<?xml version="1.0" encoding="UTF-8"?>
<svg id="Layer_2" data-name="Layer 2" xmlns="http://www.w3.org/2000/svg" viewBox="0 0 84.32 108.58">
  <g id="Layer_2-2" data-name="Layer 2">
    <g>
      <path d="m5.34,108.58c-1.48,0-2.83-.54-3.81-1.53C.54,106.06,0,104.68,0,103.15L.26,5.6C.27,2.51,2.8,0,5.89,0c1.42,0,2.77.54,3.82,1.52l72.81,68.25c1.69,1.59,2.24,3.84,1.43,5.89-.88,2.24-3.23,3.74-5.85,3.75-2.58,0-5.32-.2-8.22-.41-3.34-.24-6.8-.5-10.49-.5-8.28,0-15.19,1.34-21.75,4.22-9.7,4.27-15.79,11.11-21.17,17.16-2.31,2.6-4.5,5.05-6.72,6.98-1.28,1.1-2.85,1.71-4.42,1.71Z" fill="#fff" stroke-width="0"/>
      <path d="m3.26,5.61l-.26,97.55c0,2.61,2.82,3.14,4.8,1.43,6.97-6.03,13.97-18.15,28.65-24.61,16.34-7.19,31.18-3.56,41.66-3.57,2.67,0,4.31-2.62,2.37-4.45C56.2,49.21,31.93,26.46,7.66,3.71c-1.67-1.56-4.39-.38-4.4,1.9Z" stroke-width="0"/>
    </g>
  </g>
</svg>