<?xml version="1.0" encoding="UTF-8"?>
<svg xmlns="http://www.w3.org/2000/svg" xmlns:xlink="http://www.w3.org/1999/xlink" viewBox="0 0 73.77 73.5">
  <defs>
    <linearGradient id="linear-gradient" x1="37.58" y1="22.81" x2="37.58" y2="15.17" gradientUnits="userSpaceOnUse">
      <stop offset="0" stop-color="#343434"/>
      <stop offset=".11" stop-color="#3b525c"/>
      <stop offset=".26" stop-color="#447388"/>
      <stop offset=".41" stop-color="#4c8fad"/>
      <stop offset=".55" stop-color="#51a5ca"/>
      <stop offset=".7" stop-color="#55b4de"/>
      <stop offset=".84" stop-color="#58bdea"/>
      <stop offset=".98" stop-color="#59c1ef"/>
    </linearGradient>
    <radialGradient id="radial-gradient" cx="35.44" cy="40.25" fx="35.44" fy="40.25" r="28.03" gradientUnits="userSpaceOnUse">
      <stop offset="0" stop-color="#64cffb"/>
      <stop offset=".25" stop-color="#5fcbf8"/>
      <stop offset=".55" stop-color="#51c0ef"/>
      <stop offset=".85" stop-color="#3aafe2"/>
      <stop offset="1" stop-color="#2da5da"/>
    </radialGradient>
  </defs>
  <g id="Layer_5" data-name="Layer 5">
    <g id="Layer_4" data-name="Layer 4">
      <rect x=".25" y=".25" width="73.27" height="73" rx="4.18" ry="4.18" fill="#343434" stroke-width="0"/>
    </g>
  </g>
  <g id="Layer_2" data-name="Layer 2">
    <path d="m8.5,58.65c.08-23.28.12-39.93.01-42.07,0-.2-.03-.84.3-1.49.62-1.23,2.15-1.94,3.89-1.84,4.29.03,8.59.06,12.88.09.3,0,.74.06,1.21.28.61.29.92.7,1.43,1.3.86,1.01,1.29,1.52,1.69,1.82,1.05.81,2.19,1.05,2.78,1.17.68.14,1.21.16,1.41.17,1.61.05,6.81.08,13.84.06,4.19-.02,8.19-.01,12.51,0,1.8,0,3.79.04,5.04,1.44,1.21,1.36,1.13,3.31,1.01,4.29.05,11.57.1,23.14.14,34.72,0,.21.03.84-.28,1.54-.54,1.23-1.71,1.8-1.99,1.92-.68.31-1.33.37-1.67.4-.4.04-.75.03-1,0-16.39,0-32.79,0-49.18,0-.29.01-.7,0-1.18-.11-.27-.06-1.08-.27-1.76-.9-1.1-1.03-1.09-2.51-1.08-2.79Z" fill="url(#linear-gradient)" stroke-width="0"/>
  </g>
  <g id="Layer_3" data-name="Layer 3">
    <path d="m8.5,58.88l.05-32.03c-.05-.46-.11-1.73.66-2.99,1.24-2.02,3.56-2.25,3.83-2.27,15.73,0,31.46,0,47.19,0,2.7-.22,5.07.87,5.94,2.74.2.42.48,1.21.34,2.35.05,10.69.1,21.38.15,32.06,0,.47-.1,1.12-.46,1.75-.75,1.32-2.37,2.05-4.17,1.97-27.09.07-46.83.05-49.5,0-.58,0-1.89-.05-2.86-.94-.87-.8-1.1-1.95-1.17-2.64Z" fill="url(#radial-gradient)" stroke-width="0"/>
  </g>
</svg>