<svg viewBox="0 0 32.45 32.98" xmlns="http://www.w3.org/2000/svg"><path d="m32.07 0v32.9h-32.07c0-10.96 0-21.94 0-32.9z" fill="#fff"/><path d="m27.95 14.6c.48.93.17 2.31-1.16 2.14-.75.32-.84 1.16-1.3 1.75-.36.14.04.61.03.93.59 2.87-2.88 1.74-3.69.08-3.35 2.45-7.22 5.18-10.02 7.81.15.69 2.04-.79 2.11.25-.12 2.33-3.18 2.1-4.61 1.36-1.42 1.51 6.79 2.8 4.39-3.19-.12-.17.11-.29.25-.35.1.08.08.22.11.33.04-.44.36-.87.79-.95-3.46 5.41 7.8 7.28 4.77 1.13-1.45-2.03-1.59-.38-1.19-3.14.98-.67 1.68-1.89 2.61-2.55-.48 1.06-1.38 1.92-2.35 2.58-.17.44-.15.97-.26 1.45 3.84 3.06 1.31 7.6-3.14 5.08-.58-.7-1.29-.84-1.62.15-1.9 2.76-6.89-1.58-4.86.93-.93.91-2.3 1.7-3.37 2.58-.56.14-1.01-1.04-1.49-1.39-3.23-3.85-4.79-3.57.13-6.74.23.05.48.59.69.78.05.19.7-.52.84-.58.05-.08.46-.29.3-.35-3.93-1.95-4.9-7.47-1.43-10.34-1.26-1.44 1.44-2.53 2.34-3.33 1.27-.47 2.63-.58 3.96-1.09-1.9-.5-4.19-1.49-4.68-3.58-.26-.28-.82-.41-.84-.9-.29-1.43.17-2.77 1.8-2.56.98-1.21 2.52-1.97 4.03-2.35 9.87-2.02 13.85 6.48 5.38 9.7 1.67.11 3.29.96 4.56 2 .31.32 0-.15.73-.07-.96-1.31.57-2.24 1.82-1.69.62.2.65.77 1.35.29.64-.26-.27-.64-.45-.98.95-1 2.44-1.87 3.55-2.83 1.22 1.28 2.35 2.94 3.55 4.35 1.25 1.56 1.05.87-.44 2.07-.73.52-1.49 1.02-2.2 1.56-.17 0-.43-.52-.56-.66.45-.46.29.81 1.18-.14.77-.65 1.9-1.18 2.49-1.88-1.39-1.56-2.66-3.61-4.11-4.93-.65.92-3.71 2.06-2.58 3.04.48.4-.86.63-.87.98.21.54.3 1.11.62 1.61 1.04.32 2.11.88 2.8 1.68z" fill="#010101"/><path d="m27.95 14.6c-.63-.09-.06-1.03.12-1.39.35-.85.98-1.5 1.56-2.17.54-.79.64-1.38 1.36-.2-1.05 1.02-2.08 2.12-2.57 3.41-.17.1-.33.22-.47.35z" fill="#878a99"/><path d="m14.75 24.67c2.39-1.62 4.83-3.63 7.1-5.2-.01.03.04.04.02.07-.45.33-.88.66-1.32 1-2.51 1.83-5 3.75-7.52 5.49.38-.58 1.18-.89 1.7-1.37z" fill="#191717"/><path d="m21.03 20.19s.01-.04.04-.04v.04c-.01 0-.03 0-.04 0z" fill="#1e1b1b"/><path d="m2.35 26.17s-.01.01-.02.01c0-.01 0-.02.02-.01z" fill="#040404"/><path d="m1.3 26.96s-.01.01-.02.01c0-.01 0-.02.02-.01z" fill="#040404"/><path d="m3.39 25.37s-.01.01-.02.01c0-.01 0-.02.02-.01z" fill="#040404"/><path d="m20.34 3.06c4.56 9.37-17.22 8.13-13.08 2.1 4.15-1.46 9.12-.78 13.08-2.1z" fill="#acacbb"/><path d="m7.52 15.63c1.65.44 2.84-2.34 2.19-3.7 1.06-.15 2.18-.12 3.25-.28.18.1.38.16.58.22-.56 2.26-.09 4.33.62 6.46-1.41 1-2.82 2.28-4.27 3.1-1.11-1.71-2.41-3.64-2.36-5.8z" fill="#acacbb"/><path d="m11.28 22.61c-1.44-1.22-1.33-.61.09-1.81 2.19-1.68 4.49-3.21 6.74-4.81 1.61-1.28 3.59-2.23 4.97-3.73.13-.67 1.05 1 1.08 1.23-.79.69-1.35 1.53-2.12 2.21-.09.15-.28.19-.39.31-.31.53-.8.83-1.12 1.32-.43.41-.85.86-1.31 1.23-.06.26-.37.28-.46.49-.18.16-.3.4-.49.57-.14.1-.31.04-.38.2-.31.33-.73.65-1.02.98.03.23-.3.02-.3.23-.16.26-.44.31-.67.44-.39.23-.79.45-1.22.54-.63-.26-1.23-.32-1.97-.36-.33-.03-.46.44-.8.44-.3.05-.39.4-.63.51z" fill="#fff"/><path d="m8.14 22.98c-.67.49-1.28 1.14-1.97 1.56-4.16-1.93-4.98-8.36-.62-10.52.6.16.76.57 1.61.47.5-.17 1.75-.1 1.02.61-4.63 1.09-3.84 6.16-.03 7.87z" fill="#eab7be"/><path d="m7.21 3.1c.85-2.17 12.62-3.32 12.16-.41-3.91 1.07-8.09.9-11.97 2.06.08-.55.13-1.16-.19-1.64z" fill="#dedee4"/><path d="m15.32 11.67c.45-.22.97-.57.96-1.12 1.49-.43 4.08 1.13 5.01 2.31-1.17 1.98-4.75 3.3-6.67 5.12.55-2.02.13-4.28.7-6.32z" fill="#ffbcbd"/><path d="m2.33 29.23c-2.58-1.86.14-2.61 1.73-4 1.23.99.18 1.26 1.96-.14 1.07-.77 2.05-1.82 3.16-2.46.29.03.11.82.65 1.13.29.13-.23.34-.27.53-1.04-.36-3.43.52-1.05.84-.02.25-.51.47-.66.69-.25.23-.37.57-.61.77-.29.27-.54.6-.87.79-.25.41-.62.71-.92 1.1-.65.83-2.13.36-3.12.75z" fill="#fff"/><path d="m9.55 24.29c.01-.19.26-.29.37-.43.94.67 2.72-.33 1.35-1.25.26-.27.4-.54.8-.58.22-.11.33-.42.63-.41.39.06.81.05 1.18.13.05 0 .13-.19.18-.05.15.27.38.17.6.28.03.04.36-.09.39-.14.05-.13.29.04.32-.11.05-.14.26-.06.33-.17.04-.16.28-.08.28-.19 0-.06 0-.07.07-.06.29.06.43-.3.54-.42.27.01.22.01.24-.23.23 0 .29-.27.49-.33.09.01.02-.12.12-.13.01-.13.2-.09.16-.22 0-.09.18 0 .14-.13 0-.11.17 0 .14-.14.01-.12.22 0 .27-.07 0-.11.17 0 .15-.12-.04-.16.32-.16.29-.38-.03-.17.18 0 .14-.19 0-.05.04-.04.07-.04.18 0-.07-.17.25-.14 0-.08.13-.09.1-.19-.04-.13.18 0 .14-.14.26-.28.59-.52.85-.76.11-.04.03-.17.11-.2.11 0 .07-.14.16-.14.07 0 .09-.02.09-.08.08-.1.14-.37.3-.33.14-.05.22-.27.34-.36.24-.13.24-.41.41-.52-.03-.14.16 0 .14-.14-.01-.12.13-.02.15-.11.19-.02.09-.08.18-.16.13.03.06-.14.16-.14.13.03.04-.15.15-.14.09 0 .03-.07.21-.23.21-.18.37-.44.59-.62.02-.09.2-.21.19-.33 0-.1.15 0 .15-.11.24-.08.31-.31.51-.46.03-.07.08-.13.17-.13.24.6 1.45.43 1.1-.29.25.23.53.59.6.94-.05.06-.03.15-.13.17-.12.12-.21.28-.34.39-.22.02-.13.38-.41.29-.92-1.66-2.31-.69-1.27.79-.22.18-.42.33-.62.5-.15.03.01.27-.18.26-.37.1-.27.4-.43.42-.19.15-.4.26-.58.44-.03.19-.25.02-.31.17-.03.11-.19.03-.21.14-.09.15-.4.08-.42.29-.23.33-.59.56-.85.86-.25.26-.58.29-.78.69-.17.16-.47.12-.56.37-.15.07-.23.24-.38.3-.08.1-.18.22-.3.28-.04.1-.15.15-.19.25-.2.09-.36.32-.48.48-.02.17-.24.02-.28.16-.06.07-.14.1-.18.17-.24.01-.39.14-.53.29-.1.1-.25.06-.32.21-.11.17-.22.22-.37.33-.07.12-.26.18-.3.32-.26.36-.64.44-.99.71-.14.07-.69.48-.81.3-.19-.57-.97-1.09-1.57-.92-.15.52.69 1.42 0 1.75-.32.2-.65.28-.93.53-.41-.24-.92-.82-1.58-.81z" fill="#dedee4"/><path d="m26.86 16.39c-.99-.07-.97.96-1.44 1.47-.22.11-.77-.34-.73.2 1.75 3.85-1.27 3.47-2.87.78-.36-1.57 2.16-1.4 2.56-2.63-.05-.28-.35-.51-.49-.77-.19-.19-.34-1.41.18-.89.62.39.72 1.01.91 1.64.76.68 1.75-.93 1.13-1.55.04-.26.19-.5.03-.77 0-.05-.15-.22-.04-.19 1.14.29 2.79 2.56.75 2.71z" fill="#eab7be"/><path d="m14.94 24.69c1.84-1.4 3.74-2.81 5.63-4.15-.42 1.23-2.14 1.57-2.15 2.88-.33 1.71-.03.75.99 2.08 4.07 6.28-8.14 5.12-4.53-.71-1.24 2.53 1.7 4.96 4.1 3.65 1.96-1.03.43-3.4-1.24-3.43-.56-.03-3.08.61-2.8-.32z" fill="#ffbcbd"/><path d="m7.74 15.54c1.76-.67.49-1.68-.81-1.24-1.01.02-1.04-.98-2.13-.16-1.32-1.12 1.57-2.35 2.32-3.04 1.22-.77 2.83.49 2.76 1.79-.22.95-.85 3.11-2.14 2.64z" fill="#dedee4"/><path d="m2.33 29.23c.46-.1.95-.21 1.39-.31.45.05 1.09.14 1.45-.19.13 0 .08-.17.18-.17.05 0 .06-.02.06-.06.05-.12.12-.03.21-.26.02-.05.02-.1.1-.11.06 0 .01-.14.09-.13.16-.02 0-.09.24-.18 0-.2.19 0 .14-.28 0-.12.16-.02.14-.15.12-.14.37-.17.42-.37.12-.11.23-.24.36-.32.1 0 .02-.14.12-.14.06 0 .1-.02.09-.09.11-.08.11-.27.21-.31.12.01.03-.12.11-.15.05-.03.04-.12.12-.11.08-.01.01-.16.13-.14.09-.02.03-.09.19-.22.07-.14.42-.21.43-.41.5.1 1.22.18 1.5.62-.2.19-.4.26-.49.53-.15.12-.31.26-.43.42-.58.44-1.1 1.11-1.71 1.48-.11.2-.39.3-.49.51-.16.1-.29.24-.41.38-.07.11-.29-.03-.27.16-.19.25-.51.43-.66.77-.06.01-.12.02-.13.1-.09.09-.21.19-.36.21-.22.23-.46.55-.68.79-.11.03-.21.08-.25.19-.61-.68-1.21-1.37-1.8-2.06z" fill="#dedee4"/><path d="m26.37 13.4c-.39-.19-.91-.23-1.25-.47-.04-.19-.36-.45-.22-.63.46-.31.85-1.05.44-1.62.56-.21-.53-.62-.42-.91 1.14-.63 1.94-2.19 3.29-2.2.31 2.03-.78 3.92-1.65 5.61-.03.11-.13.14-.19.22z" fill="#dedee4"/><path d="m10.86 27.56c.78-2.94-4.59-2.57-2.45-3.11.8-.03 1.76.01 2.32.63 1.22 1.77 2.34-1.01 1.52-2.08 2.24.32.85 2.88.05 3.86-.48.17-1.06.05-.63.72.41 1.42-2.11.77-2.44.02-.09-.87 1.34-.6 1.63-.03z" fill="#eab7be"/><path d="m8.69 20.82c-1.5.14-.67 1.4-1.55.66-1.31-1.29-2.08-4.8-.1-5.68.05 1.78.76 3.49 1.64 5.02z" fill="#eab7be"/><path d="m7.41 4.74c3.58-1.6 9.46-.36 12.07-2.6.36.21.63.58.86.91-3.83 1.37-8.91.69-13.08 2.1.07-.13.08-.29.15-.42z" fill="#c2bfbf"/><path d="m30.42 10.12c-.12 0-.2.06-.24.16-.33.22-.27.73-.67.89-.27.25-.39.61-.61.81-.32.38-.63.75-.79 1.25-.27.25-.23.8-.5 1.05-.26-.24-.52-.47-.82-.65.14-.28.09-.49.2-.53.09-.29.22-.55.28-.85.48-.37.61-1.05.95-1.53.4-.69.59-1.56.89-2.22.44.54.89 1.08 1.31 1.63z" fill="#acacbb"/><path d="m5.55 29.99s.05-.06.04-.1c.93-.52 1.56-1.42 2.47-2.09.06-.1.17-.17.26-.23.14-.24.44-.33.6-.55.32-.21.48-.52.74-.75.09-.17.32-.35.52-.38.14.14.64.82.25.86-.22.04.04.09-.03.18-.73-.39-2 .32-1.16 1.06-.44.63-1.37.86-1.93 1.32-.49.34-.79.77-1.04 1.26-.14.04 0 .24-.15.27-.11.03-.06.16-.07.23.01.11-.17.1-.14.23.05.26-.07.41-.21.61-.23.23-.02.7-.36.79-.39-.36-.74-.84-1.11-1.25.36-.22.58-.62.86-.97.17-.19.44-.18.43-.48z" fill="#acacbb"/><path d="m13.05 26.04c.23-.09.42-.35.65-.43 2.59 6.31-6.03 4.73-4.39 3.28 1.32.52 3.79 1.1 4.53-.81.51-1.57-1.28-.44-1.95-.58-.39-.58.73-.25.88-.74.14-.23.08-.53.29-.72z" fill="#ffbcbd"/><path d="m15.32 11.67c-.5 2.06-.08 4.31-.7 6.32-.08.07-.16.13-.25.18-.42-2.21-1.06-4.19.02-6.28.32-.04.63-.11.92-.22z" fill="#eab7be"/><path d="m17.46 20.9s.01 0 .02 0c.25-.03.38-.17.43-.42.35-.12.58-.44.81-.67-.05-.29.26-.07.3-.26.38-.31.8-.54 1.16-.82.06-.16.27-.21.33-.37.2-.13.46-.34.53-.55-.04-.13.51-.31.64-.6.29.03.08-.1.21-.14.07 0 .12.02.1-.07-.03-.14.18 0 .14-.14-.01-.15.25.02.26-.17.07-.11.18.07.15-.18.29-.13.58-.36.83-.56.15-.09.21-.34.44-.27.45 1.07-2.58 1.11-2.41 2.54-.04.14-.15.21-.25.3-.38.35-.54.56-1.01.84-.09.09-.28 0-.34.13-.03.14-.24 0-.27.14-.08.07-.15.19-.26.21-.09-.01-.1.06-.14.11-.21.2-.47.35-.59.62-.02.14-.23.01-.22.16 0 .24-.16.24-.28.37-.18.3-.55.24-.75.53-.07.08-.27-.04-.31.09-.18.15-.47.22-.61.48-.08 0-.11.07-.14.13-.11.05-.19.16-.26.26-.07.04-.14.09-.17.16-.49.87-1.41 1.59-2.37 2.2.11-.32.24-.64.23-.98.18-.16.37-.28.51-.47.37-.22.77-.44 1-.76.24-.09.13-.41.35-.46-.04-.19.17-.01.14-.17-.03-.07.22-.13.29-.15.26-.23.62-.3.82-.55.25-.11.6-.16.64-.52z" fill="#acacbb"/><path d="m21.78 12.97c-.23.27-.32-.38-.33-.57.13-.24.75.24.67-.19-1.37-1.54 1.27-2.27 2.1-1.1.24.75.44 1.5.85 2.19-.56 1.54-1.57-2.97-2.33-.93-.32.18-.61.66-.95.6z" fill="#eab7be"/><path d="m12.02 10.08c1.34.19 2.75.21 4.07-.15.31 2.33-3.74 2.27-4.07.15z" fill="#dedee4"/><path d="m17.34.96c-2.74.12-5.65.45-8.4.69 2.45-1.45 5.7-1.5 8.4-.69z" fill="#fff"/><path d="m28.57 14.12c.04-.57.33-1.09.74-1.47.2-.2.32-.45.53-.63.1-.04.02-.2.13-.19.12 0 .04-.16.16-.16.15-.24.54-.48.86-.83.09.13 1 1.06.73 1.07-.8.56-1.78 1.18-2.09 2.19-.16.18-.4.3-.58.46-.2.01-.28-.36-.48-.43z" fill="#808594"/><path d="m14.4 11.89c-1 1.98-.4 4.14-.02 6.28-.07.05-.24.25-.28.11-.64-2.13-1.21-4.16-.56-6.41.05-.01.1.04.15.02.23.04.48.02.72 0z" fill="#c2bfbf"/><path d="m9.62 28.65c.67-.55 2.2.64 2.37-.91 4.14-1.26-.07 3.07-2.37.91z" fill="#c2bfbf"/><path d="m8.69 20.82c-.94-1.53-1.64-3.22-1.64-5.02.15-.07.3-.15.47-.18-.07 2.02 1.24 3.64 1.99 5.38-.25-.14-.53-.19-.82-.18z" fill="#c2bfbf"/><path d="m29.11 8.48c-.24.33-.14.86-.39 1.2-.17.36-.28.54-.44.94.04.14-.19.1-.14.26.03.21-.2.08-.14.35.02.13-.18.12-.14.25 0 .11-.17.05-.14.2 0 .14-.13.3-.2.41-.06.04-.18.05-.21.11-.01.07 0 .19-.04.23-.12.04.06.28-.11.29-.17.07.05.38-.17.41-.1.21.03.27-.19.5-.14-.08-.28-.15-.41-.23 0-.16.13-.08.14-.18-.03-.14.11-.06.12-.14-.02-.19.1-.3.16-.44-.01-.09.14-.32.18-.33.2 0-.03-.35.18-.33.08-.06.13-.2.14-.32.12-.1.1-.25.16-.37.12-.05.05-.2.13-.25.15-.02.1-.17.11-.26.25-.7.39-1.38.55-2.14-.07-.34.07-.68-.04-1.03.04-.03.08-.05.12-.04.25.32.53.62.76.95z" fill="#c2bfbf"/><path d="m14.65 25.51c.07-.25.18-.5.23-.75.04 0 .03-.05.06-.06.08.08-.08.21-.02.32.01.08.13-.04.15.05.83.17 1.84 0 2.68-.1.49-.05 1.38.5 1.66.89-.69-.13-.39.25-1.11-.1-1.12-.32-1.67.76-3.66-.26z" fill="#eab7be"/><path d="m7.27 4.96c-.05.18-.12.35-.22.5-.24.19-.61.13-.83-.06.11.11.56.21.13.25-.47-.1-.59-.61-.88-.93.04-.5.01-1.36.58-1.57 1.14.01 1.24-.22 1.34 1.05-.98-.58-1.52 1.02-.3.89-.31-.04.08-.16.18-.14z" fill="#eab7be"/><path d="m10.04 21.9s.03.03.05.05" fill="#eab7be"/><path d="m11.53 23.51c-1.23 1.12-1.83-.49-2.54-1.19-2.35.86-.59-2.72.74-.67.42.46 2.09 1.3 1.81 1.86z" fill="#eab7be"/><path d="m9.53 11.65c-.26-.31-.6-.54-.96-.71.88-.37 1.96.08 2.91-.18.53-.32.75.39 1.05.66-.92.39-2.03.29-3 .23z" fill="#eab7be"/><path d="m7.69 22.26c-1.79-.85-3.41-3.3-2.06-5.08.24-.35.08.12.09.28-.22 1.89.49 3.71 1.98 4.81z" fill="#fff"/><path d="m9.46 28.14c.49.36-1.39 1.03-1.55 1.55-.69.3-1.17 1.01-.96 1.83-.35.26-.69.52-1.05.77-.14-.24.14-.4.12-.63-.06-.23.21-.28.14-.51 0-.11.17-.1.14-.23-.05-.17.18-.21.14-.38-.02-.21.31-.25.29-.48.3-.59 1.07-.89 1.64-1.22.46-.08.73-.56 1.09-.7z" fill="#808594"/><path d="m12.53 11.41c-.78-1.22-2.33-.27-3.65-.62.82-.42 1.86-.68 2.79-.79.36.39.46 1.08.96 1.43-.03.04-.05.04-.1-.02z" fill="#ffbcbd"/><path d="m29.62 14.12c.17-.69.61-1.22 1.19-1.55.41-.23.44-.55.99-.75.92.89-1.61 1.58-2.18 2.3z" fill="#707889"/><path d="m17.62 21.66s.11.02.12-.02c0-.11.14 0 .15-.1-.02-.16.12-.04.14-.14 0-.07 0-.08.08-.07.15.01-.02-.18.17-.14.09 0 .03-.16.04-.23 0-.1.16-.02.21-.06s-.03-.16.08-.13c.12-.07.26.03.25-.17 0-.19.26-.05.29-.22.13-.05.17-.21.33-.21.16-.17.49-.23.6-.49.69-.02.85-.63 1.35-.89.03.09.06.17.09.26-.18.41-.25.23-.5.46-.17.21-.48.19-.63.41-.15.27-.38.14-.55.28-.44.32-.59.29-.95.75-.22.06-.3.3-.48.41-.17.08.06.32-.26.28-.17.03-.16.33-.38.32-.65.41-.31.44-1.05.62-.17.15-.18.38-.4.52-.12.24-.39.37-.61.52-.07-.09-.02-.2.09-.23.03-.05.07-.1.14-.12.07-.08-.02-.25.14-.27.15-.16.21-.37.33-.52.42-.28.95-.37 1.21-.81z" fill="#808594"/><path d="m9.46 28.14c-.12-.02-.16.11-.23.16.03.15-.19.07-.15.22-.08.03-.15.08-.19.16-.37.04-.75.41-1.16.5-.12.22-.37.25-.52.4-.08.17-.06.11-.27.18-.13.04.03.26-.13.24-.06-.03-.06.18-.07.23-.09.04-.12.13-.19.19-.18 0 .03.28-.15.33-.08.03-.07.09-.07.15.04.27-.11.12-.14.24-.02.09.07.31-.08.31-.12.01-.04.2-.06.28 0 .25-.21.24-.15.57-.11.09-.22.18-.35.26 0-.07-.1-.08-.02-.15.01-.33.21-.6.37-.81-.06-.73.19-.19.14-.7 0-.06.02-.09.08-.08.17 0-.05-.29.15-.26.14-.02-.05-.31.14-.27.06-.08.16-.21.2-.33-.04-.14.15-.03.12-.14-.01-.12.11-.05.14-.09s-.02-.14.09-.12c.12.02 0-.16.14-.14.05 0 .08 0 .07-.06-.01-.05.02-.06.07-.06.12.03.04-.15.16-.14.43-.04.18-.25.45-.22.07 0 .12 0 .11-.09.12-.04.16-.16.34-.19.15 0 0-.13.28-.14.12-.16.19-.06.36-.26.12-.15.26-.13.33-.3.07.05.14.1.2.16z" fill="#878a99"/><path d="m10.19 25.88c-.11.08-.28.11-.33.21q0 .06-.06.07c-.14-.02-.02.16-.16.14-.1-.01-.03.07-.13.2.02.14-.16.02-.14.15.03.14-.15 0-.14.13-.02.12-.18.03-.14.17 0 .03 0 .04-.04.04-.18-.03-.03.12-.17.12-.14-.03-.02.15-.15.14-.03 0-.08 0-.08.05-.02.06-.14-.02-.12.08.03.13-.12.03-.14.12.03.13-.14.05-.14.16.02.13-.17 0-.14.14.01.12-.17 0-.14.14 0 .11-.17.01-.22.12-.14.11-.19.28-.33.35-.13-.03-.03.13-.14.12-.15-.04-.04.12-.13.14-.15-.02-.07.14-.2.14-.12 0 0 .16-.11.14-.13-.02 0 .17-.14.14-.08-.02-.06.08-.13.06-.14 0-.02.18-.16.16-.05 0-.07 0-.07.06.03.14-.15.02-.14.14 0 .06 0 .06-.06.06-.16-.04 0 .17-.16.14-.17 0 .05.18-.34.14-.03-.24.1-.06.13-.19 0-.12.18-.05.14-.18.24-.01.05-.16.21-.18.17 0-.04-.24.21-.2.27.04.04-.17.26-.14.07-.18.12-.06.16-.18 0-.12.19-.02.14-.16-.02-.12.16-.01.14-.12-.01-.06.03-.07.08-.07.13.03 0-.18.15-.14.16-.06-.05-.16.29-.15.03-.06.03-.13.12-.14 0-.1.03-.15.14-.14.04-.02-.03-.15.07-.13.14.03.02-.15.2-.12.03-.15.16-.12.18-.26.21-.05.35-.22.54-.36-.02-.16.18-.08.15-.2-.02-.13.18 0 .15-.14-.03-.12.16 0 .14-.13.02-.13.15-.01.16-.21.05-.02.13.02.12-.08-.02-.08.1-.04.06-.14 0-.1.15-.02.15-.13 0-.12.17 0 .14-.13 0-.11.15 0 .15-.11.08.03.12.12.19.18z" fill="#c2bfbf"/><path d="m25.34 10.67c.32.21.24 1.03-.12 1.35-.09.11-.22.26-.37.32-.35-1.32-.7-.89.49-1.67z" fill="#fff"/><path d="m18.9 20.91c.15.03.01-.13.13-.15.03-.03-.03-.14.05-.13.12.02.12-.16.25-.14.1 0 0-.15.11-.12.06-.02.19 0 .21-.06-.01-.14.15-.03.17-.14.02-.21.41.04.41-.17 0-.13.19.03.14-.16.02-.08.17.03.16-.15.04-.09.23.04.25-.07.05-.05.16.03.14-.1-.02-.11.14 0 .15-.09-.03-.23.34.03.3-.24.12-.05-.03-.14.15-.16-.29.87-1.98 1.61-2.77 2.38-.11-.21.12-.33.14-.52z" fill="#656f82"/><path d="m7.27 4.96c-.09.05-.2.05-.3.09.03.03.29.03.17.07-1.56.24-.36-1.82.23-.81.08.2-.03.45-.09.65z" fill="#c2bfbf"/><path d="m7.5 31.1c-.1.08-.2.16-.31.22-.18-.42.16-.92.4-1.28.05-.15.27 0 .33-.13.08-.25.42.34.5.42-.13.29-.6.44-.82.7s-.07.04-.1.08z" fill="#656f82"/><path d="m12.53 11.41s.08.08.1.02c.11.08.21.16.33.22-1.02.2-2.18.19-3.25.28-.06-.09-.12-.19-.18-.28 1 0 2.05.13 3-.24z" fill="#c2bfbf"/><path d="m18.9 20.91c.01.4-.19.12-.14.52-.83.64-1.71 1.24-2.57 1.85-.03-.1.14-.09.1-.2 0-.03 0-.04.04-.04.08 0 .08 0 .08-.08.01-.12.18-.03.14-.19-.03-.25.09-.07.14-.18-.05-.23.4 0 .45-.14 0-.09.16-.06.12-.17 0-.1.23.02.2-.13 0-.04.01-.05.05-.05.08 0 .09 0 .09-.09.01-.12.28 0 .29-.13-.01-.11.13-.04.13-.14-.06-.2.18-.07.27-.13.06-.08-.07-.29.11-.27.1 0-.02-.17.11-.14s.01-.15.13-.14c.17 0-.02-.18.23-.14z" fill="#707889"/><path d="m25.82 14.84c.49.6-.68 1.95-.68.44.16-.17.46-.43.68-.44z" fill="#acacbb"/><path d="m8.06 29.87c-.19-.08-.03.11-.15.12-.46-.02-.16.02-.35.14-.08-.03-.52 1.08-.36 1.19-.05.08-.16.11-.23.18s-.02.01-.02.02c-.25-.31.1-1.39.44-1.53.1.01.03-.19.17-.14.22 0 .37-.33.5.02z" fill="#707889"/><path d="m5.47 4.72c.36.27.48 1.07 1.06.87-.06 0-.5-.21-.35-.24.27.23.56.26.87.11-.25.72-.54.14-1 .31-.55.07-.57-.65-.58-1.04z" fill="#ffbcbd"/><path d="m15.22 23.03c.03.24-.09.07-.14.19 0 .14-.14.04-.14.13.01.06-.06.07-.1.08-.04.09-.16.05-.17.14-.03.15-.23.02-.27.17-.02.1-.16 0-.17.11 0 .09-.14.03-.13.13.02.13-.15 0-.15.13-.01.09-.17.1-.24.16 0-.16 0-.31-.04-.46.19-.07.39-.15.55-.2.02-.14.11-.07.21-.18.14.02.04-.11.14-.12.15.02.19-.15.31-.16.19-.02-.04-.16.34-.12z" fill="#c2bfbf"/><path d="m5.55 29.99c.07.37-.35.32-.53.64-.15.16-.22.38-.39.51-.13 0 0 .18-.15.16-.08.04-.11.14-.23.14-.06-.04-.09-.1-.12-.15 0-.14.11-.18.24-.21.14-.11.22-.37.41-.46.1-.11.2-.27.29-.35.09 0 .2.02.21-.1.24-.08.02-.19.28-.18z" fill="#c2bfbf"/><path d="m11.04 25.13c.45-.2.36-.42.8-.41.09 0 .03-.14.12-.12.21 0 0-.19.34-.14 0 .14-.06.29-.12.42-.32.16-.67.3-.92.51-.1-.07-.16-.16-.22-.25z" fill="#c2bfbf"/><path d="m16.41 22.47c.02.29-.14-.05-.14.36 0 .07-.14.02-.12.1.03.14-.14.03-.14.14.04.37-.12.13-.14.29-.03.16-.19-.08-.14.24-.16.13-.32.25-.49.36-.04-.31.09-.09.14-.24-.02-.11.06-.05.06-.12-.04-.29.14-.09.14-.25-.03-.17.18-.02.14-.19-.03-.23.12-.06.14-.18-.04-.18.16-.02.14-.19 0-.04.02-.04.05-.04.13.03.02-.13.11-.14.2.03 0-.18.25-.14z" fill="#878a99"/><path d="m25.82 14.84c-.2-.04-.09.13-.22.14-.19.06-.32.19-.46.3-.05-.09-.11-.19-.16-.28.26-.03.14-.03.24-.18.04-.16.28-.13.31-.32-.02-.1.13-.04.12-.13 0-.05.02-.08.09-.08.11 0 0-.16.11-.14 0 .27-.23.41-.04.7z" fill="#c2bfbf"/><path d="m21.44 18.78c-.06 0-.09 0-.08.07.03.13-.18 0-.14.14.03.13-.18 0-.14.13s-.18 0-.14.14c.03.13-.18 0-.14.14.04.12-.14.02-.12.12-.04.11-.46.14-.57.15-.02-.12.19 0 .14-.14 0-.14.26.01.28-.17.04-.06.17.02.13-.1-.03-.12.18 0 .14-.13-.03-.13.18 0 .14-.14-.03-.13.18 0 .14-.14-.03-.13.18 0 .14-.14 0-.05.01-.07.07-.06.14.03.02-.14.13-.14 0 .09.01.19.02.28z" fill="#878a99"/><path d="m23.83 15.97s-.08.02-.11.02c-.18-.03 0 .17-.2.14-.1 0 .02.16-.13.14-.11-.02 0 .14-.09.14-.29-.04-.07.12-.24.14-.12-.03-.02.13-.12.12-.2-.04-.18.18-.38.14 0-.06-.02-.14.07-.12.14.01.15-.2.31-.16.14-.01-.06-.31.16-.26.04 0 .04-.02.04-.05-.05-.18.22 0 .21-.15-.04-.14.13-.02.14-.11 0-.07.04-.08.1-.09.13-.15.18-.02.25.11z" fill="#c2bfbf"/><path d="m11.26 25.38c-.04-.1.03-.12.12-.11.12-.05.16-.15.33-.16.1-.11.3-.23.47-.24-.1.32-.57.76-.92.51z" fill="#acacbb"/><path d="m5.75 5.7c.33.11.69-.13.97.2-.25.39-.78.04-.97-.2z" fill="#eab7be"/><path d="m10.42 26.92c.02-.12-.15-.02-.11-.12.08-.17.28 0 .27-.25.08.17.09.35.1.53-.09-.05-.17-.12-.26-.17z" fill="#878a99"/><path d="m28.34 7.54c-.21.06-.53.07-.74.04.04-.07.12-.09.16-.14.2 0 .46-.08.58.1z" fill="#fff"/><path d="m13.97 25.39c.02-.08.18-.24.28-.19-.17.35-.09.98-.28.19z" fill="#fff"/><path d="m7.21 3.1c.3.3.3.79.25 1.17.03-.4-.19-.83-.25-1.17z" fill="#eab7be"/><path d="m28.28 7.46c-.16-.02-.37.04-.52-.02.28-.23.29-.32.52.02z" fill="#c2bfbf"/><path d="m7.61 31.02c.18-.28.64-.42.82-.7.16.08-.71.59-.82.7z" fill="#dedee4"/><path d="m7.52 31.06s.05-.05.08-.04c-.01.03-.06.05-.08.04z" fill="#dedee4"/><g fill="#040404"><path d="m21.78 12.9s.04-.02.06 0c-.02 0-.04 0-.06 0z"/><path d="m7.23 31.3s.02-.03.04-.03c0 .03-.02.04-.04.03z"/><path d="m7.52 31.06s.01 0 .02 0c0 .03-.02.04-.04.03 0-.01.01-.02.02-.04z"/><path d="m14.59 24.79s0 .02-.02.02c0-.01 0-.02.02-.02z"/><path d="m13.45 25.26s0 0-.01 0z"/><path d="m14.75 24.67s0 .02-.02.02c0-.01 0-.02.02-.02z"/></g><path d="m8.43 30.32s-.02-.01-.02-.03c.01 0 .02.01.02.03z" fill="#dedee4"/><path d="m7.05 5.46s0-.02.02-.02c0 .01 0 .02-.02.02z" fill="#ffbcbd"/><path d="m20.56 20.55s0-.02.02-.02c0 .01 0 .02-.02.02z" fill="#ffbcbd"/><path d="m22.07 19.5s-.02-.02 0-.02z" fill="#1e1b1b"/><path d="m14.91 17.77s0-.02.02-.01c0 .01-.01.01-.02.01z" fill="#040404"/><path d="m7.17 31.35s0-.02.02-.02c0 .01 0 .02-.02.02z" fill="#656f82"/><path d="m6.97 31.5s0-.02.02-.02c0 .01 0 .02-.02.02z" fill="#808594"/><path d="m6.95 31.52s0-.02.02-.02c0 .01 0 .02-.02.02z" fill="#808594"/><path d="m14.35 4.13c4.8-.53 7.48 3.19 1.12 3.63-5.03.4-7.72-3.07-1.12-3.63z" fill="#010101"/><path d="m9.47 4.9c.51-.08 1.07-.07 1.6 0-.53-.02-1.06-.03-1.6 0z" fill="#808594"/><path d="m9.47 4.9s-.11.01-.16 0z" fill="#808594"/><path d="m11.1 4.92s0 0 0 0h.01z" fill="#808594"/><path d="m18.05 2.65c-.56.05-1.09.15-1.66.16.55-.07 1.1-.16 1.66-.16z" fill="#808594"/><path d="m18.08 2.9h.15s-.1.02-.15 0z" fill="#808594"/><path d="m21.69 17.49c.03.07-.15.23-.18.26-.07 0-.07.05-.1.08-.06 0-.06.03-.06.07.03.17-.28-.03-.27.13.04.38-.1.11-.14.27 0 .02.01.08-.02.08-.12-.02-.06.17-.18.14-.12-.01 0 .15-.16.12-.12 0 .04.18-.16.14-.03 0-.04.02-.04.04.02.15-.13.04-.14.14.04.17-.17.02-.14.18 0 .11-.14 0-.17.08-.03.13-.21.07-.24.16.03.15-.16.05-.14.16 0 .1-.17.03-.22.09 0 .1-.14 0-.13.09.02.14-.14.04-.15.14.02.15-.19.07-.29.09 0-.08-.03-.14.08-.14s0-.17.14-.14c.07-.02.18.05.2-.05.01-.07.16.02.14-.08-.02-.11.11-.02.08-.15-.02-.11.16 0 .14-.12 0-.14.16 0 .16-.2.09-.04.3.06.25-.11 0-.09.17.02.14-.09-.04-.15.14-.03.14-.13 0-.09 0-.09.1-.09s-.02-.14.13-.14c.11.01 0-.13.11-.12.14 0 .05-.13.13-.14.16 0 0-.17.19-.14.09-.27.13-.23.38-.34.15.02.02-.15.16-.14.25.03.03-.17.26-.14z" fill="#c2bfbf"/><path d="m17.46 21.18c0 .14-.01.27-.16.31-.01.12-.11.08-.17.14-.06.09-.32-.07-.29.12-.02.1-.16-.02-.14.12-.06.07-.23.07-.3.17-.2-.04-.25.25-.4.2-.03-.28.1-.09.15-.24-.04-.11.16-.08.23-.1.09-.02-.04-.15.13-.12.1 0-.02-.17.11-.14.1.02.04-.06.1-.06.06-.01.28 0 .26-.08-.02-.12.17 0 .14-.14 0-.16.33.05.27-.16 0-.05.03-.04.06-.04z" fill="#c2bfbf"/><path d="m18.75 19.95c.04.47-.11.09-.23.38-.15.1.05.1-.2.19.02.09-.29.25-.41.24-.03-.22.09-.07.12-.18 0-.06-.02-.1.06-.1.14.03.03-.14.15-.14.07 0 .08 0 .08-.07 0-.09.04-.06.1-.06.09 0 0-.14.11-.12.16-.01-.04-.18.22-.14z" fill="#c2bfbf"/><path d="m17.91 20.77c0 .14.02.3-.15.29 0 .18-.13.13-.28.13-.03-.22.1-.07.14-.18-.03-.17.12-.04.12-.17 0-.09.09-.07.16-.07z" fill="#c2bfbf"/><path d="m15.43 22.75s.02.1-.01.13c-.14.04.06.18-.19.14-.03-.12.1-.25.21-.28z" fill="#c2bfbf"/><path d="m18.74 25.93c3.05-.1.03 4.75-3.18 2.2-.8-.37-1.74-2.76-.1-2.13 1.2.67 2.17.87 3.28-.07z" fill="#1e1b1b"/><path d="m18.74 25.93c-1.97 1.77-3.03-.48-4.07.09-.01-.16-.13-.7.2-.45 1.23.88 2.69-.34 3.87.36z" fill="#dedee4"/><path d="m20.09 19.68c.04.22-.12.07-.14.21 0 .06-.02.07-.08.07-.11.13-.36.12-.34.21 0 .1-.26-.01-.23.15-.26.17-.05.18-.38.2-.13.23.09.28-.31.26-.05-.25.15-.05.14-.21-.03-.1.09-.05.13-.07-.01-.11.07-.11.14-.13.02-.07 0-.14.11-.12.09-.05-.08-.16.17-.14.16.04.02-.16.15-.14.15.04.02-.16.15-.14.43.04-.05-.19.49-.14z" fill="#878a99"/><path d="m17.62 21.66c.05.25-.16.05-.14.21.02.05-.06.06-.08.08.03.17-.13.08-.19.12-.14.02-.03.13-.15.12-.17 0-.21.19-.39.14-.19-.01-.03.18-.26.14-.04-.25.14-.05.14-.2 0-.05.01-.07.06-.06.19.02-.05-.19.26-.14.23.02-.03-.22.33-.16.13.01.11-.03.15-.12.18 0 .06-.18.27-.14z" fill="#878a99"/><path d="m5.69 4.01c-.08.2.33 1.16.02.64-.12-.18-.16-.43-.02-.64z" fill="#ffbcbd"/><path d="m6.12 5.31s-.02 0 0 0z" fill="#ffbcbd"/><path d="m17.69 4.74c5.12 2.59-5.74 3.93-6.89 1.6.48-.25 1.09.06 1.57.06-.08.09-.25.02-.37.04 1.11-.09 4.29.14 4.98-.55-.05-.07-.36.04-.29-.09.05-.06-.16 0-.16-.07 0-.06 1.13-.15.79-.02-.15.05.18.16-.14.21.56-.03 1.09-.09 1.63-.1.19-.05-.11-.23-.2-.22-.32-.03-1.01-.54-.94-.85z" fill="#ffbcbd"/><path d="m17.69 4.74c-.1.58 1.68.94 1.08 1.11-.27 0-.54.07-.86-.02-.24.1-.51.13-.81.1.05-.07.18-.03.23-.1-.13-.07-.14-.18.06-.16-.28-.03-.56.03-.84.05.09.01.17 0 .26.04-.04.02-.08.04-.13.07 1.46.45-4.36.77-4.77.58.04 0 .64.01.41-.04-.1.02-.84.06-.75-.08-.22-.06-.55-.03-.76.04 1.65-.58 4.02-.39 5.89-.8.52-.07-.8-.84-.4-1.05.28.14.64.1.88.17.04.17.36-.03.51.07z" fill="#eab7be"/><path d="m10.75 6.27c-.5-1.51 1.97-1.22 2.88-1.46-.11-.02-.38.08-.53.03.22-.27 3.54-.34 2.49.42.18-.09.44-.13.36-.36 2.05.59-5.47 1.09-5.2 1.37z" fill="#acacbb"/><path d="m11.22 5.18s0-.02-.02-.02c1.17-.71 4.11-1.3 4.92-.55-1.65-.39-3.35.15-4.9.57z" fill="#eab7be"/><path d="m15.71 4.54c.25-.04.16 0 .38.03.29.03-.13-.16-.22-.21.18 0 .36.03.49.09.41-.02.86.12 1.25.26-.12.07-.3-.05-.39.1-.05-.09-.15-.28-.21-.1-.25-.16-.47-.06-.77-.22-.05.08.07.23.12.34-.12 0-.94-.32-.66-.3z" fill="#ffbcbd"/><path d="m10.75 6.27c-.01-.09.03-.17.02-.26.09.1.21-.05.3.05.14.03.29-.03.44-.01 0 .1-.27.05-.16.12-.14.08-.52-.08-.54.16-.04 0-.04-.04-.05-.06z" fill="#ffbcbd"/><path d="m17.69 4.74s-.02 0-.02-.02c.01 0 .02 0 .02.02z" fill="#ffbcbd"/><path d="m17.61 28.6c-1.66.56-4.53-3.54-1.59-2.07 2.15 1.03 2.56-.87 3.38-.41 1.01 1.17-.47 2.6-1.79 2.48z" fill="#c2bfbf"/><path d="m11.82 6.9h-.12s.08-.02.12 0z" fill="#eab7be"/><path d="m11.34 6.17s-.07 0-.1-.03c.09-.18 6.91-.79 4.49-1.28s-.03 0-.04-.02c-.83-.16-1.81-.25-2.59 0-.36.02-.82.22-1.15.12 1.1-.4 2.72-.64 3.76-.42-.04 0-.08 0-.12 0 0 .01.01.01.02.02.28.03.51.19.76.28 1.54 1.42-3.93.92-5.03 1.33z" fill="#c2bfbf"/><path d="m16.39 4.86s-.02 0-.02-.02c.01 0 .02 0 .02.02z" fill="#ffbcbd"/><path d="m11.96 4.96c.56 0 1.13-.19 1.73-.15-.82.08-1.72.33-2.48.37.28-.01.5-.15.75-.22z" fill="#ffbcbd"/><path d="m15.73 4.86c.54.05.07.43-.22.42.12-.11.42-.21.22-.42z" fill="#ffbcbd"/><path d="m14.41 4.79c.35-.03.82-.08 1.1.08-.31-.04-.74-.1-1.1-.08z" fill="#eab7be"/><path d="m15.69 4.84s.04 0 .04.02c-.02 0-.04 0-.04-.02z" fill="#ffbcbd"/><path d="m15.61 4.56s-.05-.02-.08-.03c.03 0 .09-.02.08.03z" fill="#eab7be"/><path d="m13.02 4.9s-.05 0-.08 0c.03-.03.05-.03.08 0z" fill="#acacbb"/></svg>