<svg enable-background="new 0 0 32.5 34.1" viewBox="0 0 32.5 34.1" xmlns="http://www.w3.org/2000/svg"><path d="m15.1 24.9c-.2 0-.9.5-.9.9.7.6.2 1.9.5.3 0-.5 1.5-1.3.4-1.2z" fill="none"/><path d="m28.4 16.4c0 .1 0 .2.1.2 0 0 0 0 0-.1-.1 0 0-.1-.1-.1z"/><path d="m14.7.6c-.1 0-.2 0-.3 0 .2 0 .3.1.3 0z"/><path d="m13.4.7c0-.1 0-.1 0 0z"/><path d="m26.1 14.5c0-.1-.1-.1 0-.2-.1 0-.1.2 0 .2z"/><path d="m24.2 16.5s0-.1-.1-.1c0 0 0 .1.1.1z"/><path d="m10.1 24.4s0 .1.1.1c-.1-.1-.1-.1-.1-.1z"/><path d="m24.1 16.4c0-.1 0-.1 0 0z"/><path d="m26.2 14.7c0-.1 0-.1 0 0z"/><path d="m24.1 16.2c-.1 0-.1 0 0 0z"/><path d="m18.9 11.6c-.1 0-.1 0 0 0z"/><path d="m26.1 14.6c.1 0 .1 0 0 0 0 0 .1 0 0 0z"/><path d="m20.3 16.4c.1 0 .1 0 0 0 .1-.1 0-.1 0 0z"/><path d="m24.1 16.3c0-.1 0-.1 0 0z"/><path d="m17.1 10.9s.1 0 0 0c.1 0 .1-.1 0 0z"/><path d="m19.1 11.7c0 .1 0 .1 0 0 .1.1 0 0 0 0z"/><path d="m16 30.4c0-.1 0-.1 0 0 0-.1 0 0 0 0z"/><path d="m10.6 25s0 .1 0 0z"/><path d="m21.1 4.7c.1 0 .1 0 0 0z"/><path d="m11 26.2h-.1c-.6 0-.8-.4-1-.8-.1-.4-.3-.7-.8-.7h-.1l-.3.3-1 1.2c-.6-.2-1.2-.5-1.7-.9-.6-.4-2.3-1.7-2.8-4 0 0-.4-1.7.3-3.5.1-.4.4-.9.7-1.4.2-.4.4-.6.6-.9.2-.2.3-.3.4-.4l.1-.1h-.1c-.1-.1-.3-.3-.4-.6 0-.1 0-.3 0-.3.1-.3.3-.4.3-.5 1.5-1.3 2.6-2.1 3-2.1h.2.2.2.2c.2 0 .4-.1.5-.2.2-.1.6-.2 1.3-.5.2-.1.3-.1.4-.1.2-.1.3-.1.3-.2 0-.2-.2-.2-.5-.3s-.7-.2-1.1-.4-1.1-.5-1.7-1c-.2-.2-.5-.5-.8-.9l-.1-.2c-.2-.4-.4-.6-.4-.7s0-.2-.1-.3c0-.1-.1-.2-.2-.2s-.1-.1-.2-.1c0 0-.1-.1-.1-.1-.1-.1-.1-.1-.1-.2l-.1-.1c-.1-.6-.1-1.1 0-1.5.1-.5.3-.8.3-.8.1-.1.1-.1.2-.2h.5.6l.1-.1c.1-.1.2-.3.3-.4s.2-.2.4-.4c1.3-1.1 2.7-1.5 2.8-1.5.4-.1.7-.2 1.1-.2h.1c.8-.1 1.4-.2 1.6-.2h.4c.7 0 1.2.1 1.5.1.4.1.8.1 1.3.2s1.2.3 2 .9c.3.2.7.5 1.2 1 .3.3.6.7.9 1.4.3.8.2 1.5.1 1.9 0 0-.1.9-.5 1.6-1.1 2-3.7 2.5-4 2.5h-.1v.1.4.1h.1.2c.4 0 .9.2 1.2.3l.2.1c.5.2 1.1.4 1.6.7s.9.6 1.3 1l.1.1c.3.3.6.6.8.8v.1c.3 1.2-1.2 2.9-3.6 3.9h-.1v.1c-.1.1-.2.1-.2.2-2.5 1.3-5 3.1-7.9 5.7l-.1.1.1.1c.1.1.3.2.4.4.5.4 1.1 1 1 1.3 0 .1-.3.3-.9.4zm-4.7-8.5c-.3.3-.5.6-.6.9-.3.9 0 1.8.2 2.2.5 1.2 1.5 2 2.3 2.5l.3.1-.1-.3v-.1c-.1-.1-.1-.2-.1-.2-.2-.3-.4-.4-.5-.5-.5-.3-1.4-1.9-1.3-3.8 0-.2 0-.5.1-.9l.1-.4z"/><path d="m14.4.8c.7 0 1.2.1 1.5.1s.8.1 1.3.2 1.2.3 2 .8c.3.2.7.5 1.1.9.3.3.6.7.9 1.4.3.8.2 1.5.1 1.9 0 0-.1.9-.5 1.6-1 1.9-3.7 2.4-4 2.5h-.2v.2.4.3l.3-.1h.2c.4 0 .9.2 1.2.3l.2.1c.5.2 1.1.4 1.5.7.5.3.9.6 1.3 1 0 0 0 0 .1.1.3.2.5.5.8.7v.1c.3 1-.9 2.6-3.5 3.8h-.1v.1s-.1 0-.1.1h-.1c-2.5 1.4-4.9 3.1-7.9 5.7l-.2.2.2.2c.1.1.3.2.4.4.4.4 1.1.9 1 1.2 0 .1-.1.3-.8.4h-.1c-.5 0-.7-.3-.9-.7-.1-.3-.2-.6-.6-.8l.4-.6.2-.2-.3-.1c-.2-.1-.7-.3-1.3-.6 0-.1-.1-.2-.1-.2-.2-.3-.5-.4-.6-.5-.4-.2-1.3-1.8-1.2-3.7 0-.2 0-.5.1-.8l.1-.7-.5.5c-.3.3-.5.6-.6 1-.3 1 0 1.9.2 2.3.5 1.2 1.5 2 2.3 2.5.1.3.1.5.1.8 0 .4 0 .7.2.8 0 0 0 0 .1.1l-.8 1c-.6-.2-1.1-.5-1.6-.9-.6-.4-2.3-1.6-2.8-3.9 0 0-.4-1.7.3-3.4 0-.6.3-1 .6-1.6.2-.3.4-.6.6-.8.1-.2.3-.3.4-.4l.2-.2-.2-.2c-.1 0-.3-.2-.3-.5 0-.1 0-.2 0-.3.1-.2.2-.4.3-.5 2.1-1.9 2.7-2.1 2.9-2.1h.2.2.2.2c.3 0 .4-.1.6-.2.1-.1.5-.2 1.2-.4.2-.1.3-.1.4-.1.3-.1.4-.1.4-.3s-.2-.3-.6-.4c-.3-.1-.7-.2-1.1-.4s-1.1-.5-1.6-1c-.3-.1-.6-.3-.9-.8l-.1-.2c-.2-.3-.4-.5-.4-.7 0-.1 0-.2-.1-.3 0-.1-.1-.1-.2-.2-.1 0-.1 0-.2-.1 0 0-.1 0-.1-.1-.1 0-.1-.1-.2-.2-.1-.6-.1-1.1 0-1.5.1-.5.2-.7.3-.8 0 0 .1-.1.1-.1h.6.5.1l.1-.1c.1-.2.2-.3.3-.4 0 0 .2-.2.4-.4 1.3-1.1 2.7-1.5 2.7-1.5.4-.1.7-.2 1.1-.2h.1c.8-.1 1.4-.2 1.7-.2zm0-.2c-.1 0-.3 0-.4 0-.2 0-.8 0-1.7.2-.5.1-.8.1-1.2.3 0 0-1.4.4-2.8 1.5-.2.1-.4.3-.4.3-.1.2-.2.3-.3.5-.4 0-.8 0-1.2 0 0 0-.1.1-.2.2s-.2.3-.3.8c-.1.6 0 1.2 0 1.5v.1.1c.1.1.2.2.2.3.1.1.1.1.1.1.2.2.3.1.4.3v.2c0 .2.2.5.5 1 .3.4.5.7.8.9.1.1.7.6 1.7 1 .9.4 1.6.4 1.6.6 0 .1-.2.1-.7.2-.8.2-1.1.3-1.3.4-.1.1-.2.2-.4.2-.1 0-.2 0-.3-.1 0 0-.1 0-.2 0s-.1 0-.2 0c-.7.1-2.8 1.9-3 2.2-.1.1-.3.3-.4.6v.3c0 .4.3.6.4.7-.1.1-.3.2-.4.4-.1.1-.3.4-.6.8 0 .1-.5.8-.7 1.4-.7 1.8-.3 3.6-.3 3.6.5 2.3 2.2 3.6 2.9 4 .7.5 1.3.8 1.8 1 .4-.5.9-1 1.3-1.6-.1 0-.2 0-.3.1-.1 0-.1 0-.1 0h-.1c-.3-.1 0-.9-.2-1.5-1-.4-1.9-1.2-2.4-2.4-.2-.4-.5-1.3-.2-2.2.1-.4.4-.7.5-.9-.1.3-.1.6-.1.9 0 1.9.8 3.6 1.4 3.8.1 0 .3.2.5.5 0 0 .1.1.1.2v.1c.7.4 1.2.6 1.4.6-.2.3-.4.5-.7.8h.1c.9 0 .4 1.6 1.7 1.6h.1.1c2.1-.4.3-1.6-.5-2.3 2.4-2.1 5-4.2 7.9-5.7h.1c0-.1.2-.1.2-.2 2.6-1.1 4-2.9 3.6-4v-.1c.2 0 1 1 1 1s-.9-1.1-1.8-2c0 0 0 0-.1-.1-.4-.4-.9-.7-1.4-1s-1-.5-1.6-.7c-.4-.1-1-.4-1.4-.4-.1 0-.2 0-.3 0 0-.1 0-.3 0-.4.2 0 3-.6 4.1-2.6.4-.8.5-1.7.5-1.7.1-.4.1-1.1-.1-2-.2-.7-.7-1.2-.9-1.5-.4-.5-.9-.8-1.2-1-.8-.5-1.6-.7-2.1-.9-.6-.1-1-.2-1.3-.3.1.3-.4.3-1.2.3z"/><path d="m21 19.8c-1.8 2-6.9 3.6-6.4 4.6-.5-.4-1.4-.7-2.1-.7 0 .3.4.7.2 1 .4.6-.4 2.4-1.3 1.8-.9-1.1-2.8-1.8-4-.8 1.3.4 3.5.6 3.5 2.4-.2 0-.8-.1-1.4.2-.7.3-1 .8-1.1 1 .3.9.9 1.3 1.1 1.5 1.5 1.1 3.8.8 4.5-.2.2-.3.4-.8.7-.9.3 0 .5.3.7.4 1.5 1.5 5.1 1.3 5.4-1.2 0-2.2-1.5-2.9-2-3.7.1-.5.2-1 .2-1.5 1.5-1 3.1-2.8 2.9-5.3-.1.3-.4.9-.9 1.4zm-5.5 5.4c-.6.3-.9 1.5-.9 1.9.1 0-.1-1.1-.4-1.2-.1-.7 1.8-1.6 1.3-.7z"/><path d="m14.5 28.4c-.4.7-.9 1-1.1 1.2-.2.1-.4.2-.4.2-.4.2-.8.2-1.3.2-.3 0-1.4-.1-1.5-.5-.2-.7.5-.2.8-.3.3 0 1 .2 1.2-.1.3-.4-.5-.6-.5-.8.1-1.3 1.1-1.1 1.7-2.2.2 0 .3.1.5.1.1.1.1.2.2.3.5.7.5 1.5.4 1.9z" fill="#ffbcbd"/><path d="m15 27.9c-.1.1.7 1.8 2.3 2.2.7.2 2 .2 2.6-.7.6-.8.4-2 .1-2.1s-.6 1.3-1.8 1.6c-.3.1-.5 0-.8 0-1.4-.2-2.3-1.1-2.4-1z" fill="#c2bfbf"/><path d="m8.8 29.5c.1 1 2.6 2 4.2 1.1 1-.6 1.6-1.8 1.3-2.1s-1.6.7-2.3.1c-.4-.3-.2-.8-.5-1-.6-.4-2.8.9-2.7 1.9z" fill="#c2bfbf"/><path d="m14.5 12.7c-.4.3-1.2-.4-1.4-.4 0 .1 0 .1-.2.1 0 0-.3-.2-.3-.2.2-.1 0-.1-.1-.1-.2-.2-.2-.4-.3-.6-.2.1.7.4.3.1v-.1c0-.1 0-.3-.1-.4h.1c0 .2 0 .4.1.6.1.2.2.5.5.6.2.1.2.2.4.2 0 0 0 .1.1.1h.2c0 .1.3.2.3 0h.1c.1 0 .3-.1.4-.1h.1c.1 0 0 .1.1.1h-.1c0-.2-.3.1-.1 0 .1.1.1.1-.1.1.1 0 0-.2 0 0z" fill="#dfdfe5"/><path d="m12.7 12.2v-.1s.3.1 0 .1z" fill="#dfdfe5"/><path d="m16.7 10.3c.1 0 .1 0 .1-.1 0 0-.1 0-.3 0-.5.1-1.1.2-1.8.2-.8 0-1.5 0-2.1-.1v.3c0 .1.1.2.1.2v.1c0 .3.1.5.2.6.1.2.2.4.4.6h.1c.2.1.2.2.4.2 0 0 .1 0 0 0 0 .1.3 0 .3.1v.1c.1 0 .2-.1.3-.1h.1c0-.1.2-.3.3-.1h.1c0-.1.1-.1.1 0h.3c0-.1.9-.4.8-.6h.1c.1-.1.2-.2.3-.3s.2-.2.3-.4c-.1-.1-.1-.4-.1-.7z" fill="#dfdfe5"/><path d="m15.2 12.5c.1-.1.1-.1 0 0 .2-.1 1-.5.9-.6-.3.1 0 .3-.2.4-.1 0-.7.4-.9.3.1 0 .1-.1.2-.1z" fill="#dfdfe5"/><path d="m14.5 12.5c.4-.1 1.3-.3 1.9-1 .1-.1.2-.3.3-.4.1.3.1.5 0 .6-.1.5-1 .9-2.2.8z" fill="#dfdfe5"/><path d="m15.2 12.5c-.1 0-.1.1-.2.1 0 0 0 0-.1 0s0-.1-.1-.1c.1 0 .4-.1.4 0z" fill="#dfdfe5"/><path d="m14.5 12.7c0-.2.1 0 0 0 .1 0 .1 0 0 0z" fill="#dfdfe5"/><path d="m14.8 12.7c-.2 0 0-.3 0 0 0-.1 0 0 0 0z" fill="#dfdfe5"/><path d="m12.7 11.6v.1c-.1 0-.1-.1 0-.1-.1-.2 0-.4-.1-.5-.1 0 0-.1-.1-.1-.1.1-.1-.3 0 0 .2-.1.1.1.1.2s0 0 0-.1c0-.2 0-.4 0-.5-.1 0-.1 0-.2 0v.1s0 .1-.1.1c0 .1.1.1 0 .2v.1c-.1.1.1.2 0 .3.1 0 .1.1 0 0 0 .1 0 .2.1.3v.1c-.2-.2.7.1.3-.2zm-.2-1c0-.1.1-.1 0 0 .1-.1.1-.1.1-.1v.3c-.1-.1 0-.2-.1-.2 0 0-.1-.1 0 0zm0 .8c-.2 0-.1-.2-.1-.3.1 0 0 0 .1.1.1 0 .1 0 0 .1v.1c.2-.1 0 0 0 0z" fill="#e0dfe5"/><path d="m14.4 12.6c0-.1.2-.3.3-.1-.1 0-.3.1-.3.1z" fill="#dfdfe5"/><path d="m14.1 12.6c.1 0 .2-.1.3-.1-.1.2-.3.2-.3.1z" fill="#dfdfe5"/><path d="m12.6 11.1c-.1 0 0-.1-.1-.1.2-.2.1 0 .1.1z" fill="#e0e0e5"/><path d="m12.7 11.6v.1c-.1 0-.1-.1 0-.1 0-.1 0-.1 0 0z" fill="#e0e0e5"/><path d="m14.8 12.5c0-.1.1-.1.1 0-.1 0-.1 0-.1 0z" fill="#dfdfe5"/><path d="m12.4 11.4v.1s0 0 0-.1z" fill="#e0e0e5"/><path d="m12.5 11.6c0-.1 0 0 0 0z" fill="#dfdfe5"/><path d="m12.7 11c-.1 0-.1 0 0 0z" fill="#dfdfe5"/><path d="m13.2 12.2c.1 0 .1 0 0 0 .1.1.1.1 0 0z" fill="#dfdfe5"/><path d="m12.8 11.6c.1 0 .1.1 0 0 0 .1 0 .1 0 0z" fill="#dfdfe5"/><path d="m13.7 12.4c.1 0 .1.1 0 0 0 .1 0 .1 0 0z" fill="#dfdfe5"/><path d="m14 12.5s.1 0 0 0z" fill="#dfdfe5"/><path d="m13.8 12.5c.1.1 0 .1 0 0z" fill="#dfdfe5"/><path d="m12.3 10.5c0-.1.1-.1 0 0 .1-.1.1-.1 0 0 .1 0 .1 0 0 0z" fill="#dfdfe5"/><path d="m12.3 11.4c.1.1.1.1 0 0 .1.1 0 .1 0 0 0 .1 0 .1 0 0z" fill="#e0e0e5"/><path d="m12.3 11c.1 0 .1.1 0 0z" fill="#dfdfe5"/><path d="m12.4 10.7c-.1 0-.1 0 0 0z" fill="#dfdfe5"/><path d="m12.6 10.8s.1 0 0 0c.1 0 .1.1 0 .1.1 0 0-.1 0-.1z" fill="#dfdfe5"/><path d="m15.3 12.4s.1.1 0 0c-.1 0-.1 0 0 0z" fill="#dfdfe5"/><path d="m12.7 11c-.1 0-.1 0 0 0z" fill="#dfdfe5"/><path d="m12.5 10.6c0-.1.1-.1 0 0 .1-.1.1-.1.1-.1v.3c-.1-.1 0-.2-.1-.2z" fill="#e0e0e5"/><path d="m12.5 10.9c-.1.1-.2-.3 0 0z" fill="#dfdfe5"/><path d="m12.5 11.3c.2 0 0 .1 0 0 0 .1 0 .1 0 0z" fill="#e0e0e5"/><path d="m12.5 11.3c0 .1 0 .1 0 0-.1.1-.1.1 0 0-.1 0-.1 0 0 0z" fill="#dfdfe5"/><path d="m12.5 11.3c-.1 0-.1 0 0 0-.1 0-.1-.1-.1-.2.1.1 0 .1.1.2z" fill="#dfdfe5"/><path d="m12.5 10.6s-.1-.1 0 0z" fill="#dfdfe5"/><path d="m12.5 11.3c-.1 0-.1-.1 0 0 0-.1 0 0 0 0z" fill="#dfdfe5"/><path d="m13.6 10.7c-.3-.1-1.5-.2-1.8-.3-.1 0-.2 0-.3-.1-.4-.1-.8-.2-1.2-.3-.7-.2-1-.4-1.1-.5 0 0-.1-.1-.2-.1-.1-.1-.3-.1-.4-.2-.3-.2-.5-.4-.7-.6 0 0-.2-.2-.4-.5-.2-.2-.3-.4-.4-.5.4-.1 1.5-.5 1.5-.7v-.1s-.4 0-.3-.1c0-.1.3.1.3-.2.3 0 1.4-1.2 1.6-.5 0-.1.2.3.2.3.3.8 6.5-2.1 6.6-.9 0 .1-2.9.4-2.9.4 0 .1 2.7-.1 2.8-.1 0 0 1.5-.6 1.4-.4.1-.9 4.2-.5 2.1.3.3.1.6.1.9 0v.5s0 0-.1 0v.1c0 .2 0 .4-.1.6v.1.1c0 .2-.1.3-.2.5 0 .1-.1.2-.1.3-.2.2-.4.4-.6.7-.1 0-.2 0-.1.1-.1 0-.1.1-.2.1 0-.2-.2 0-.2.1-.2.2-.5.4-.8.5-.1.1-.3.1-.5.2h-.1s0 0-.1 0-.2.1-.3.1c-.7.3-1.6.4-2.4.6-.1-.2-.3-.1-.5-.1-.1 0-.1.1-.1.2h-.1c.3-.3-.4-.1-.5 0-.1.4-.4.4-.7.4zm-5.9-2.7c.1-.1-.5.3-.1.2.3-.2.3-.1.1-.2zm4.9-1.6c-.3.1-.1.1 0 .1.3-.1.3-.1 0-.1z" fill="#acacbb"/><path d="m21.3 6.5s-.1 0-.3 0c-.1 0-.1 0-.5-.7-.1 0-.1 0-.2-.1-.7-.2-1.4-.3-2-.3.3-.2-1.3.4-1.3.4-.1 0-2.8.2-2.8.1 0 0 2.9-.3 2.9-.4-.2-1.1-6.3 1.8-6.6.9 0 0-.2-.4-.2-.3-.3-.8-1.4.4-1.8.3 0 .2-.2.1-.3.2s.3.1.3.1c.3.5-1.2.9-1.4.9-.2-.3-.2-.6-.3-1 1.4-.4 2.3-1 3.6-1 1.6.3 3.1 0 4.7-.4.4-.1 2.4.3 1.9-.5 0-.1 0-.2 0-.3.4.7 2.3.3 3 .2 1.8.6 1-1 .4-1.7.1.1.3.4.6.7.8 1.3.5 2.8.3 2.9z" fill="#adadbb"/><path d="m20.4 2.8c.6.7 1.4 2.3-.4 1.7-.7.1-2.6.6-3-.2v.3c-.6.3-1.7 0-2.5.2s-1.1.6-2 .5c-2-.4-3.9 0-5.7 1 0-.1 0-.2 0-.3 1.9-.5 3.6-1.5 5.7-1.2 1.5-.4 3-.7 4.5-.7 1.1-.1 2.8-.6 3.9 0 .2-.4-.1-1-.5-1.3-.1.1-.1 0 0 0-.1 0-.1 0 0 0z" fill="#b2b2be"/><path d="m7.8 3.3c.1 0 .1-.1.1-.2.5.4 2.3-.7 2.7-.8 1-.4 2.2-.2 3.3-.3.7-.1 4.8-.7 4.8-.6 0 0 .1.1.1.1.5 1-2.3.5-2.7.6-1.6.3-3.5.3-5.2.7-.9.2-2.4.9-3.3.6 0 .1.1 0 .2-.1z" fill="#e7e7eb"/><path d="m7 4.5c4.1-.7 8.6-1.2 12.8-1.7-.2-.5-.3-.8.2-.2 0 1-.1.5-1.1.6-2.8.2-5.6.6-8.3 1-.9.2-2.9 1.3-3.7 1-.1-.3.1-.4.1-.7z" fill="#cacad3"/><path d="m7.6 3.5c.9.3 2.5-.4 3.3-.6 1.7-.4 3.6-.3 5.2-.7.4-.1 3.1.4 2.7-.6h.1c.5.9 0 .6-.8.8-2.2.4-4.6.4-6.9.8-.8.2-3.2 1.2-3.9.7.1-.1.2-.2.3-.4z" fill="#dfdfe4"/><path d="m18.1 1.2c.1 0 .2.1.3.2-1.3 0-2.9 0-4.6.2-2.3.3-4.3.9-5.8 1.4.4-.4 1-.9 1.8-1.4 1.4-.7 2.6-.8 3.6-.9 1.1 0 2.7 0 4.7.5z" fill="#f4f4f6"/><path d="m7.3 3.9c.7.5 3-.6 3.9-.7 2.3-.4 4.6-.3 6.9-.8.9-.1 1.3.1.8-.8.1 0 .3.1.4.2 1 1.2-4.8 1.2-5.4 1.4-2.3.2-4.7.6-6.8 1 .1-.1.1-.2.2-.3z" fill="#d7d7de"/><path d="m7.1 4.2c4.8-.9 6.5-1.1 6.7-1.1h.3.4c.3 0 2.2-.4 4.8-1h.1s.6.3.5.5c0 0 0 .1-.3.2-2.1.2-4.2.5-6.4.7-2 .4-4.1.6-6.2 1 .1-.1.1-.2.1-.3z" fill="#d1d1d8"/><path d="m9.3 2c.6 0 9.2-1 9-.6.1 0 .2 0 .3.1 0 .3-2.2 0-2.6 0-1.8.4-3.5.2-5.3.5-.7.2-1.8 1.3-2.6 1 0 0 .1-.1.1-.1.1-.1.2-.2.3-.3s.2-.2.3-.3c0 0 .1-.1.2-.2.2 0 .3-.1.3-.1z" fill="#ececef"/><path d="m6.7 6.4c1.8-1 3.7-1.4 5.7-1 .9 0 1.2-.3 2-.5s1.9.1 2.5-.2c.5.9-1.5.5-1.9.5-1.4.5-3 .8-4.6.5-1.4 0-2.3.6-3.6 1-.1-.1-.1-.2-.1-.3z" fill="#b0b0bc"/><path d="m8.1 3c.9.3 1.9-.8 2.7-1 1.8-.3 3.5-.1 5.3-.5.4 0 2.5.3 2.6 0h.1c0-.1-4.1.5-4.8.6-1.1.1-2.3-.1-3.3.3-.4.1-2.2 1.2-2.7.8-.1-.1 0-.2.1-.2z" fill="#eaeaed"/><path d="m9.2 9.5c.1-.1 2.4.6 2.3.5-.1.1-.1.2-.1.3-.3 0-.6-.1-.9-.2 0 0 0-.1-.1-.1-.3-.1-.5-.2-.8-.3-.2 0-.3-.1-.4-.2z" fill="#adadbb"/><path d="m8.7 9.2c0-.2.1-.1.2-.1.2 0 .3.2.2.4-.2-.2-.3-.3-.4-.3z" fill="#adadbb"/><path d="m19.6 2.2s0-.1-.1-.1c.2.1.4.2.5.4-.2-.1-.3-.2-.4-.3z" fill="#b2b2be"/><path d="m20 2.5c0-.1-.1-.1-.1-.2.2.1.3.3.5.5-.2-.1-.3-.2-.4-.3z" fill="#acacbb"/><path d="m19.5 2.1c-.1 0-.2-.1-.2-.2.1.1.1.1.2.2z" fill="#cacad3"/><path d="m19.7 9.1c-.1-.1.2-.3.2-.1-.1 0-.1.1-.2.1z" fill="#adadbb"/><path d="m20.1 8.8c0-.1.1-.1.1-.1 0 .1-.1.1-.1.1z" fill="#adadbb"/><path d="m21.3 6.4c0-.1.1-.1 0 0 .1 0 .1 0 0 0z" fill="#adadbb"/><path d="m21.1 7.2c.1 0 .1 0 0 0z" fill="#adadbb"/><path d="m15.1 10.7c0-.1 0-.2.1-.2.2 0 .4-.1.5.1-.1 0-.3-.1-.4.1-.1 0-.2 0-.2 0z" fill="#adadbb"/><path d="m14.9 10.7c-.2 0-.3 0-.5 0 .1-.1.8-.3.5 0z" fill="#adadbb"/><path d="m7.7 8c.2.1.2 0-.1.2-.4.1.2-.3.1-.2z" fill="#adadbb"/><path d="m12.6 6.4c.2 0 .3.1 0 .1-.1-.1-.2-.1 0-.1z" fill="#adadbb"/><path d="m6.7 6c0-.1 0-.1 0-.2 3.7-1.6 7.7-1.6 11.7-2.1.7 0 2.8.3 1.9-.7s.1 0 .1.1c.3 1.2.3.7-.8.8-4.3.6-8.8.5-12.9 2.1z" fill="#b9b9c4"/><path d="m6.7 6c4.1-1.7 8.6-1.5 12.9-2.2 1.1-.1 1 .4.8-.8.3.3.5.8.4 1.2-1.1-.5-2.8 0-3.9 0-1.5 0-3 .4-4.5.7-2.1-.3-3.8.7-5.7 1.2 0 0 0 0 0-.1z" fill="#b5b5c1"/><path d="m20 2.5c.1.1.4.2.3.4-.2 0-.3-.2-.3-.4z" fill="#b9b9c4"/><path d="m20 2.6c.1.1.2.3.3.4.7.8-5.1.8-5.6 1-2.8.3-5.4.7-8 1.7 0-.1.1-.3.1-.4.8.3 2.8-.8 3.7-1 2.8-.3 5.6-.8 8.3-1 1.1-.2 1.2.3 1.2-.7z" fill="#c3c3cc"/><path d="m6.7 5.6c.7-.3 1.7-.6 3-.9 2-.5 3.3-.5 5-.7 1.4-.2 3.3-.5 5.6-1.1.2.2.5.4.4.6-.1.5-1.9.4-2.3.4-1.6 0-4.8.3-11.7 1.9 0 0 0-.1 0-.2z" fill="#bebec8"/><path d="m6 6c-.1-.4-.2-1.3.1-2 .1-.4.3-.5.4-.6h.5.7c.4.2.4 1.2.2 2-.2.5-.4.8-.6 1-.1.1-.3.2-.6.2-.3-.1-.6-.3-.7-.6z" fill="#fcbbbc"/><path d="m12.9 5c.4-.1.9-.2 1.4-.2.3 0 1-.1 2 0 1.1.1 1.6.2 1.7.2.2.1.6.2 1 .5.3.2.6.4.6.7.1.5-.3.9-.4 1-.4.4-.9.6-1.4.7-.3.1-1.5.3-3.6.2-.4 0-.9-.1-1.6-.3-.6-.2-1.1-.3-1.3-.8s.1-.9.2-1.1c.4-.7 1.2-.9 1.4-.9z" fill="#fcbbbc"/><path d="m7.8 5.6c-1.6.3-.8-1.4-1.2-2.2.2.5.6.3.7 0 0 .2-.4.8 0 .8 0-.2.4.4.7.4-1.2-.6-1.7 1.1-.2 1zm-.7-1.7c-.2.1-.3.4.1.2-.1-.2-.3.2-.1-.2zm-.2.4v.3c.1-.1-.1-.6 0-.3z" fill="#cbb7bf"/><path d="m6.6 3.4c.4 1-.2 2.3 1.1 2.3-1.4.1-1.1-1.3-1.1-2.3z" fill="#cdb7bf"/><path d="m6.6 3.4c.1 1-.3 2.4 1.1 2.2-1.5.3-1.5-1.2-1.1-2.2z" fill="#d0b7bf"/><path d="m6.1 6.2c-.3-.8 0-.9.5-.2-.3-.1-.4 0-.5.2z" fill="#fcbbbc"/><path d="m6 5c-.1-.5.1-1.2.5-1.3-.4.3-.4 1.3-.5 1.3z" fill="#dab8be"/><path d="m8 4.6c-.7-.3-1-.4-.7-1.2 0 .5.1 1 .7 1.2z" fill="#cdb7bf"/><path d="m8 4.5c-.5 0-1-.7-.6-1.1-.1.5.3.9.6 1.1z" fill="#d0b7bf"/><path d="m8 4.5c-.3 0-.8-.8-.5-1-.1.3.3.9.5 1z" fill="#d2b7be"/><path d="m6.1 5c0 .1.8 1.2.4.8 0-.2-.7-.9-.4-.8z" fill="#ecbabc"/><path d="m6.7 3.4h.5c0 .4-.4.2-.5 0z" fill="#c6b6bf"/><path d="m6.4 5.7c-.3-.1-.4-.4-.4-.6 0 0 .4.6.4.6z" fill="#f7bbbc"/><path d="m7.9 4.3c-.1.4-.6-.9-.3-.9 0 .1.2 1 .3.9z" fill="#dab8be"/><path d="m6.7 3.4c.1.2.5.3.5 0 .2.5-.7.4-.5 0z" fill="#c9b6bf"/><path d="m6.5 3.7c-.1-.1-.6.7-.4.3.1-.1.7-.9.4-.3z" fill="#e0b9bd"/><path d="m7.5 3.4c0 .2.1.9.4 1-.1.1-.6-.8-.4-1z" fill="#d5b8be"/><path d="m6.4 5.7c0-.1-.4-.6-.4-.7.2 0 .7 1.1.4.7z" fill="#f0babc"/><path d="m7.9 4.1c0 .5-.4-.9-.2-.6-.1.1.1.6.2.6z" fill="#e5b9bd"/><path d="m7.7 3.4c0 .2.1.7.3.9-.2.1-.5-.9-.3-.9z" fill="#e0b9bd"/><path d="m6.1 5h-.1c0-.1.1 0 .1 0z" fill="#e0b9bd"/><path d="m6.5 3.4c0 .1 0 .1 0 0z" fill="#f0babc"/><path d="m7.7 3.5c0-.1.1 0 0 0z" fill="#f0babc"/><path d="m7.8 5.4c-.9.4-.9-.9.2-.8-.4.3-1.1.6-.2.8z" fill="#c4b6bf"/><path d="m8 4.6c-1 0-1.1.8-.2.9-1.4.3-.7-1.5.2-.9z" fill="#c6b6bf"/><path d="m8 4.6c-1-.4-1.5 1-.2 1-1.5.2-.9-1.7.2-1z" fill="#c9b6bf"/><path d="m7.7 5.8c-.3.4-1.3 0-1.2-.6.1.6.7.5 1.2.6z" fill="#dab8be"/><path d="m6.6 6c.2.2.9 0 .7.5-.2-.7-2-.2-.7-.5z" fill="#f7bbbc"/><path d="m7.8 5.4c-1 0-.2-.9.1-.5-.8.2-.2.2-.1.5z" fill="#bfb6c0"/><path d="m7.8 5.3c.1-.1-.4-.1-.4-.1.3-.5.7-.5.4.1z" fill="#bbb5c0"/><path d="m6.5 5.2c0 .7.7.7 1.1.8-.6.4-1.6-.8-1.1-.8z" fill="#e0b9bd"/><path d="m7.7 5.8c-.5-.1-1 0-1.2-.6.2.6 1.1.4 1.2.6z" fill="#d5b8be"/><path d="m6.2 6.4c.1-.2 1.1 0 .7.2 0-.2-.5-.2-.7-.2z" fill="#dab8be"/><path d="m7.1 6c.4-.1.6 0 .2.3.1-.2-.5-.2-.2-.3z" fill="#fcbbbc"/><path d="m6.1 6.2c.3-.1 1.3-.2 1.1.3.1-.5-.8-.2-1.1-.3z" fill="#f0babc"/><path d="m6.5 6.2c.2-.1.8 0 .7.3-.1-.1-.4-.3-.7-.3zm.6.1s.1 0 0 0z" fill="#ecbabc"/><path d="m6.5 6.2c.2-.1.9.4.5.3 0-.4-1.4-.1-.5-.3z" fill="#e5b9bd"/><path d="m7.7 3.5c.1.2.1.4.2.7-.1-.1-.3-.6-.2-.7z" fill="#ecbabc"/><path d="m6.7 6.6c-.1 0-.3 0-.3-.1s.5-.1.3.1z" fill="#bbb5c0"/><path d="m7.9 4c-.1 0-.2-.3-.1-.3.1.1.1 0 .1.3z" fill="#f7bbbc"/><path d="m6.5 6.2c-.1 0-.3.1-.3.1 0-.1.2-.2.3-.1z" fill="#ecbabc"/><path d="m6.8 6.5c-.1 0-.4 0-.4-.1 0 0 .3 0 .4.1z" fill="#cdb7bf"/><path d="m6.8 6.5h.1c.1.1-.1.1-.1 0z" fill="#cbb7bf"/><path d="m7 6.5s.1 0 0 0c0 .1-.1 0 0 0z" fill="#e0b9bd"/><path d="m7.6 6s-.1 0-.1-.1c0 0 .2 0 .1.1z" fill="#ecbabc"/><path d="m6.8 6.5c.1.1-.1.1 0 0z" fill="#bfb6c0"/><path d="m6.3 6.4c0 .1-.2-.1 0 0z" fill="#d2b7be"/><path d="m7.1 3.9c-.2.3-.1 0 0 .2-.3.2-.2-.1 0-.2z" fill="#cdb7bf"/><path d="m6.9 4.3c0-.3.1.2 0 .3z" fill="#cdb7bf"/><path d="m7.7 5.7c-1.3.2-1.8-1.1-1.2-2-.2 1-.2 2.1 1.2 2z" fill="#d2b7be"/><path d="m6.4 3.5c0 .1-.1.3-.2.3 0-.1.1-.2.2-.3z" fill="#ecbabc"/><path d="m6.3 3.8s-.1.1-.1.1 0-.1.1-.1z" fill="#dab8be"/><path d="m6.1 3.9s0 .1 0 0z" fill="#bbb5c0"/><path d="m6.5 3.8c-.1.4-.6 1-.1 1.3-.6-.2-.3-1 .1-1.3z" fill="#d5b8be"/><path d="m6.5 3.7c-.1 0 0 0 0 0z" fill="#d5b8be"/><path d="m6.2 5c.3.2.4 1 .9 1-.5.3-.8-.6-.9-1z" fill="#e5b9bd"/><path d="m6.3 5.1c.1 0 .1 0 0 0z" fill="#d5b8be"/><path d="m6.3 3.8c-.1 0-.1 0 0 0z" fill="#e0b9bd"/><path d="m16.8 8c-.8-.1-3.2.4-1.4-.5-.2-.2-2.1 0-2.1.5-.8-.2-2.6-.9-.7-.7.7.3 3.3-.5 3 .3 0 .4 4.4-1.3 3.6-.5.2.2-3.7.5-2.4.9z" fill="#febcbd"/><path d="m11.3 6.5c-.6-1 4.5-1.6 4.8-1.1-1.2.4-3.4.7-4.8 1.1z" fill="#adadbb"/><path d="m11.3 7c.7-.2 5.4-.1 6.7-.6-1.6 1-4.9.4-6.7.6z" fill="#f5babb"/><path d="m11.3 6.5c1.3-.4 3.6-.7 4.8-1.1 0-.9-5.3.9-4.6.3 7.2-1.4 4.8.3-.2.8z" fill="#afaeba"/><path d="m11.5 7.3c.8-.7 5.6.1 7.1-.9-1.8 1-5.1.8-7.1.9z" fill="#fcbcbc"/><path d="m13.3 8c-.4-.6 3.6-1 1.2 0 2.7.2-.4.1-1.2 0z" fill="#febcbc"/><path d="m12.1 6.4c1 0 7.2-.9 2.8-1.3 0-.1 2.1-.2 1.8.8 0 0-7.2 1-4.6.5z" fill="#b9afba"/><path d="m11.5 6.7c.1.1 5-.5 5.7-.5-.4.3-6.3.7-5.7.5z" fill="#d3b4ba"/><path d="m13.5 8s.1-.3.4-.4c.2-.1.5 0 .7.3-.2 0-.4.1-.7.1-.1 0-.3 0-.4 0z" fill="#febcbd"/><path d="m11.5 6.7c0 .1-.2.2-.2 0z" fill="#cdb3ba"/><path d="m15.6 7.2c1-.6 4.6-.5 3.6-1.5 2.2 1.1-4 2.4-3.6 1.5z" fill="#febcbc"/><path d="m16.8 8c-1.4-.3 2.5-1 2.1-.7-.4.2-1.4.8-2.1.7z" fill="#febcbc"/><path d="m19.1 5.7c0 .1-.9-.1-2.6-.6.2-.1.7-.3 1.4-.1.7.1 1.1.5 1.2.7z" fill="#fbbcbc"/><path d="m15.2 4.8c.4 0 1.7-.1 1.4.3 0-.3-1.3-.1-1.4-.3z" fill="#dbb6bb"/><path d="m12.1 5.5c-.9.3.4-.5.6-.3-.2.2-.5.1-.6.3z" fill="#dbb6bb"/><path d="m12.7 5.2c-.1-.1.6-.2.8-.2-.1.2-.6.2-.8.2z" fill="#eab8bb"/><path d="m15.2 4.8c0 .2-1 .2-.9.1.1-.2.7 0 .9-.1z" fill="#e0b6bb"/><path d="m19.1 5.7c-.2 0-.4-.3-.4-.4.1.1.6.3.4.4z" fill="#febcbd"/><path d="m16.7 4.9s-.3-.1-.3-.1c.2-.1.6.1.3.1z" fill="#f5babb"/><path d="m14.3 4.8c0 .1-.4.1-.5 0 .2 0 .4.1.5 0z" fill="#eab8bb"/><path d="m15.1 4.8c0 .1-.6.1-.6 0 .2-.1.4 0 .6 0z" fill="#eab8bb"/><path d="m13.8 4.9h.3c0 .1-.6.1-.3 0z" fill="#e0b6bb"/><path d="m21.3 6.4c-.2 0-.4 0-.7 0" fill="#eab8bb"/><path d="m11.7 5.5c0 .1 0 .2 0 0-.1.3-.2.2 0 0z" fill="#c2b1ba"/><path d="m13.7 4.9c0 .1-.2 0-.3.1.1-.1.3-.1.3-.1z" fill="#f5babb"/><path d="m18.7 7.5c0-.1-.1-.1 0 0 .1-.2 0-.1 0 0z" fill="#febcbd"/><path d="m19.7 6.3c-.1.1-.2 0 0 0-.1 0 0 0 0 0z" fill="#febcbd"/><path d="m14.2 7.3c.2 0 1.2-.2 1.4-.1-.1.1-1.3.2-1.4.1z" fill="#febcbc"/><path d="m12.5 7.3c.2-.2 1.1.1 1.4 0-.1.1-1.4 0-1.4 0z" fill="#febcbc"/><path d="m17.5 6.4c-.3.6-5.3.4-5.3.6 1.7-.1 3.7-.7 5.3-.6z" fill="#eab8bb"/><path d="m17.5 6.4c-1.6-.2-3.9.8-5.5.5 1.1.2 6-1 5.5-.5z" fill="#e0b6bb"/><path d="m17.5 6.4c.2-.1.5-.2.7-.1.1.2-.5 0-.7.1z" fill="#eab8bb"/><path d="m12 6.8c.6.3-.9 0-.1 0 0 0 0 .1.1 0z" fill="#eab8bb"/><path d="m13.3 8s.1 0 0 0c.1 0 .1 0 0 0z" fill="#febcbd"/><path d="m12.3 5.4c5.4-1 5.1.7-.1.9 6.3-1 3.8-1.4.1-.9z" fill="#b4aeba"/><path d="m12.3 5.4c-.1 0-.1.1-.2.1.1-.1.1-.1.2-.1z" fill="#c2b1ba"/><path d="m12.1 6.4c0 .1-.1.1-.2.1.1-.1.1-.1.2-.1z" fill="#b4aeba"/><path d="m12.1 5.5c.1 0 0 .1 0 0z" fill="#b4aeba"/><path d="m18.3 6.3c-.1-.1.5 0 .5-.1 0 .1-1.8-1-1.2-1.1.2.6 2.5 1.5.7 1.2z" fill="#e0b6bb"/><path d="m15 5.1c-.6 0-2.7.4-2.4.2 1.5-.3 3.9-1 4.9.7 0 .1-5.2.7-5.6.6 1.4-.4 8-1 3.1-1.5z" fill="#c2b1ba"/><path d="m11.9 6.6c.4.1 5.5-.5 5.6-.6 0 .1-.9-1-.7-.9.4-.1.9 1.2 1.3 1.1-.5-.1-7.4.7-6.2.4z" fill="#cdb3ba"/><path d="m17.1 6.2c1 0-4.1.8-5.1.6.2-.7 5.1 0 5.1-.6z" fill="#dbb6bb"/><path d="m18.9 6.3c1 .2-2.2-1.3-.7-1.1 0 .6 2.2 1.1.7 1.1z" fill="#eab8bb"/><path d="m19.5 6.2c0-.1-.2-.3-.2-.4 0-.2.2.5.2.4z" fill="#febcbd"/><path d="m19.2 5.9c-.1.5-1-.3-1-.7.3 0 .7.5 1 .7z" fill="#f5babb"/><path d="m17.5 5.1c0 .1-.7-.1-.8-.2.3.1.7 0 .8.2z" fill="#eab8bb"/><path d="m17.5 5.1c-.1-.2-.5 0-.7-.2 0 0 1 .1.7.2z" fill="#f5babb"/><path d="m16.3 5c.1-.1-1.2 0-1.2-.1.2 0 1.1-.1 1.2.1z" fill="#cdb3ba"/><path d="m16.8 4.9c0 .2.7.1.7.2-.2 0-1.1-.1-.7-.2z" fill="#e0b6bb"/><path d="m16.5 5s-.1-.1 0 0c0-.1 0 0 0 0z" fill="#cdb3ba"/><path d="m13.9 5c-.2 0-.6.3-.4 0 .3 0 1-.1.4 0z" fill="#dbb6bb"/><path d="m14.1 5c.1-.1.2-.1.3-.1.5 0-.1.1-.3.1z" fill="#cdb3ba"/><path d="m15 4.9c0 .1-.1.1 0 0-.1 0 0 0 0 0z" fill="#cdb3ba"/><path d="m14.9 4.9c-.1 0-.1 0 0 0z" fill="#cdb3ba"/><path d="m17.1 5.1c2.4 1.9-.3 1 1 1-.2.1-1-.8-1-1z" fill="#d3b4ba"/><path d="m18.1 6.2c.2-.4-.9-.4-.8-1.1.1-.2 1.3 1.1 1.5 1-.1.1-.5.1-.7.1z" fill="#dbb6bb"/><path d="m13.9 5.2c.1 0 .2-.1.4 0-.1 0-.3 0-.4 0z" fill="#b9afba"/><path d="m12.8 5.4c.1-.1.2-.1.3-.1-.1.1-.2.1-.3.1z" fill="#b9afba"/><path d="m12.5 5.4c0-.1.1-.1.2 0-.1 0-.2 0-.2 0z" fill="#b9afba"/><path d="m14.6 5.1h.3c-.1.1-.3.1-.3 0z" fill="#b9afba"/><path d="m13.7 5.2h.2c-.1 0-.2 0-.2 0z" fill="#b9afba"/><path d="m13.6 5.1c0-.1.2 0 .3 0-.1 0-.2-.1-.3 0z" fill="#cdb3ba"/><path d="m13.9 5c.1 0 .1 0 0 0 .1.1.1 0 0 0z" fill="#cdb3ba"/><path d="m9 22.9h-.1c-.2 0-.4-.1-.7-.2-.4-.2-.6-.4-.7-.5-.3-.3-.5-.7-.6-.9-.3-.6-.5-1.5-.5-2.5 0-.4 0-1 .3-1.7.2-.5.5-.8.7-1h.1c-.1.1-.1.2-.2.3-.9 0-.7 3.1-.6 3.6.2 1.2 1.5 2.2 2.3 2.9z" fill="#f5babb"/><path d="m10.1 23s0 .1 0 0c-.1.1-.1.1-.1.1-1.1-2.7-3.3-3.7-2.1-7.3.1 0 0 .1 0 .2-.1 0-.3.6-.3.6.1 2.4 1.1 4.4 2.5 6.4z" fill="#cbb3ba"/><path d="m7.9 15.8c-1.2 3.6 1 4.6 2.1 7.3 0 0 0 0-.1 0 0-.1 0-.1-.1-.1-1.6-2.5-3.2-4-1.9-7.2-.1 0 0 0 0 0z" fill="#d0b4ba"/><path d="m13.3 20.6c0 .1 0 .1 0 0-.2.1-.2.1-.2.2 0 0-.1 0-.1.1-.1 0-.1-.1 0 0 0 0 0 .1-.1.1s-.2 0-.2.1c0 0-.1 0-.1.1-.1 0-.1-.1 0 0-.1.1-.3.1-.2.2 0 0-.1 0-.1.1h-.1v.1c-.2 0-.1.2-.3.2-.1 0-.1 0 0 0 0 0-.1.1-.1.1-.1 0-.1 0-.1.1 0 0-.1 0-.1.1 0 0 0 0-.1 0v.1c-.1 0-.1 0-.1.1 0 0-.1 0-.1.1-.5-.1-1.7-3.5-2-4.1-.6-1.5-.3-2.2-.4-3.7 0-.1.1 0 .1 0v-.1s0 0 0-.1c.1 0 .1 0 .1-.1s.1-.1.1-.2c.2 0 .1-.1.2-.2v-.1h.1s.1-.1 0-.1c0-.1 0-.1.1-.1 0 .1.1 0 0 0 0-.1.1-.1.1-.2.2 0 .3-.1 0-.1v-.1c.5.1 1.4-.3 1.9-.3 4.4-.5-.5 0 3 6.7-.1.1-.3.4-.5.3v.1c-.2 0-.1.2-.3.2 0 0 0-.1-.1 0 0 .1 0 .1-.1.2-.1 0-.2 0-.2.1.1 0 .1 0-.1.1zm-2.6.1c-.3.1.1.6.1.6.3-.1.1-.5-.1-.6zm3-.6h.1s0 0-.1 0zm-1.8 1.7c-.1 0-.1 0-.1 0zm2.3-1.9s-.1-.1-.1 0zm-2.1 1.6s.1 0 0 0zm1.3-1.1c0 .1-.1.1 0 0 0 .1 0 .1 0 0zm-3.8-6.8c.1.1.1.1 0 0zm4.4 4.7c-.1 0-.1 0 0 0-.1 0-.1.1 0 0z" fill="#adadbb"/><path d="m16.8 10.9c.6.1 1.6.2 2.6.7.3.1.5.3.6.3.5.3 1.5 1 2.3 2.3-1.6 1.4-5 3.9-7 4.7-.3-.8 1.4-7.9 1.7-7.9-.2.1-.3.2-.4.3.1 0-.1-.3.2-.4-.1 0-.1.1 0 0z" fill="#ffbcbd"/><path d="m8.7 14.7c0 1.4-.2 2.2.4 3.7.3.6 1.5 4.1 2 4.1-.1.1-.2.2-.4.3.1-1.3-1.7-3.4-2.1-4.6-.1-.4-.6-2.8-.3-2.8.1-.3.3-.5.4-.7z" fill="#aeadbb"/><path d="m9.6 12.9c0-.1 0-.1 0-.2.4-.2 4.1-.1 4.1-.4.2.1.2 0 .4.1-.1.9-.8 3.8.2 4.9-.1.4.5 2.1.4 2.3-.6-1.2-1.4-4-1.2-5.3 1.5-2.9-2.5-1.4-3.9-1.4z" fill="#b7afba"/><path d="m8.3 15.4c-.2-.1.2 2.4.3 2.8.4 1.3 2.2 3.4 2.1 4.6 0 0-.1 0-.2.1-1.1-2.3-2.7-4.7-2.4-7.3.1-.1.1-.1.2-.2z" fill="#b7afba"/><path d="m8.1 15.6c-.3 2.6 1.3 5 2.4 7.3 0 .1-.1.1-.2.1-.8-2.8-2.7-4.3-2.2-7.4z" fill="#bcb0ba"/><path d="m16.2 11.9s.1-.1.1-.1c0 1.7-1.5 5.5-1.1 7.3 0 0-.1.1-.1.1s-.1-.1-.1-.1v-.1c.1-.1 0-.2 0-.3.1 0 .1-.1.1-.2.4-.3.2-6.4.8-6.3.1-.1.3-.1.3-.3z" fill="#f5babb"/><path d="m9.6 12.9c1.4 0 5.4-1.5 3.9 1.4-.3 1.4.8 4.2 1.2 5.4-.1-1.3-.9-2.6-1.2-3.9.2-4.3 1-3.1-3.9-2.7 0-.1 0-.2 0-.2z" fill="#b1aeba"/><path d="m15.2 19.1c-.4-1.7 1.1-5.6 1.1-7.3.2-.2.3-.6.7-.7-.3 0-2 7.1-1.8 8 .1 0 .1 0 0 0z" fill="#fdbcbc"/><path d="m10.9 10.8c2.4-.7 1.1.2 2.5 1.4-.1 0-.3-.1-.4-.2-.2-.1-.3-.3-.5-.5 0-.2-.2-.3-.3-.3-.3-.5-2.4.6-2.7 0 .1 0 .3 0 .3-.2.1 0 .2-.1.3-.1.1.2.7 0 .8-.1z" fill="#fdbcbc"/><path d="m8 15.7v.9c0 .5.1 1.7.7 2.9.4.9.6.8 1.1 1.8.3.7.5 1.3.6 1.7 0 0 0 0-.1 0 0 0 0 0-.1 0-1-2.3-2.9-4.3-2.3-7.1.1 0 .1-.1 0-.2z" fill="#c1b1ba"/><path d="m9.6 13c4.9-.4 4.1-1.6 3.9 2.7.3 1.3 1.1 2.6 1.2 3.9 0 0 0 0-.1 0-3.5-6.7 1.4-7.2-3-6.7-.5 0-1.4.3-1.9.3-.1 0-.2-.1-.1-.2z" fill="#aeadbb"/><path d="m7.9 16c-.5 2.7 1.4 4.8 2.3 7.1h-.1c-1.4-2-2.4-4-2.5-6.4 0-.1.2-.7.3-.7z" fill="#c6b2ba"/><path d="m15.1 12.4h.2c-.4 1-.8 2.1-.5 3.2 0 1.1-.1 2.8.2 3.8h-.1c-.1-.1 0-.3 0-.4.3-1.1-.6-4-.3-5.3 0-.4.6-1 .5-1.3z" fill="#d5b5bb"/><path d="m13 12c.1.1.2.1.3.2 0 .1.1 0 .1 0s0 .1.1.1c0 .1-3.7.3-4 .3 0-.1-.1-.2-.1-.3.9-.1 2.8.1 3.6-.3z" fill="#c6b2ba"/><path d="m7.8 15.8c-1.2 3.3.3 4.7 2 7.2h-.1c-2-3-2.6-3.2-2-7.1s0 0 .1-.1c-.1 0 0 0 0 0z" fill="#d5b5bb"/><path d="m14.7 19.5c-.2-.3-.5-1.9-.5-2.2-1-1-.3-3.9-.2-4.9.1.1.3.1.4.1-.1.7-.5 1.3-.6 2.1.3 1.6.6 3.3.9 4.9.1 0 .1 0 0 0z" fill="#bcb0ba"/><path d="m15.2 18.5c0 .1 0 .1-.1.2-.5-.6.2-6.3.4-6.3.1-.1.2 0 .2-.1 0 .1.1 0 .2 0-.6-.1-.9 5.7-.7 6.2z" fill="#e6b8bb"/><path d="m13 12c-.8.4-2.7.2-3.6.3 0-.1-.1-.2-.1-.3.9 0 2.5.1 3.4-.3.1.1.2.2.3.3z" fill="#d5b5bb"/><path d="m15.5 12.3c.1.3-.5 1.8-.5 2.3.2 1.2-.1 3.4.1 4.5-.1 0 0 .1 0 .2-.3-1-.1-2.7-.2-3.8-.3-1.1.1-2.2.5-3.2 0 .1 0 0 .1 0z" fill="#dbb6bb"/><path d="m14.8 19.5c-.4-1.6-.7-3.3-.9-4.9 0-.8.5-1.3.6-2.1h.1c0 1-.6 1.8-.5 2.9.2.9.4 2.9.7 3.8v.3c.1-.1 0 0 0 0z" fill="#c1b1ba"/><path d="m15.1 12.4c0 .4-.5.9-.6 1.3-.3 1.3.6 4.2.3 5.3v-.1c-.1-2.2-1-4.4.1-6.4.1-.1.2-.1.2-.1z" fill="#d0b4ba"/><path d="m12.7 11.7c-.9.4-2.5.3-3.4.3.1 0 0-.1 0-.1.2-.4 2.8-.1 3.3-.4 0 .1 0 .2.1.2z" fill="#e0b6bb"/><path d="m9.5 12.6c.4 0 4-.2 4-.3.1 0 .1 0 .1.1 0 .3-3.7.2-4.1.4 0-.1 0-.2 0-.2z" fill="#bcb0ba"/><path d="m12.3 11.2c.1 0 .1.1.2.1-.4.2-3.4.3-3.4.4-.1 0-.2-.1-.2-.2.1-.1.3-.1.4-.2 0 .1 2.8.3 3-.1z" fill="#edb9bb"/><path d="m8.8 11.5c.1.1.3.3.4.3 0 0 .1.1 0 .1 0 0-.8-.2-.4-.4z" fill="#fdbcbc"/><path d="m15.9 12.2c-.1 0-.1.1-.2 0 .1 0 .4-.3.5-.3 0 .2-.2.2-.3.3z" fill="#ffbcbd"/><path d="m10.9 10.8c0 .1-.7.3-.7.2.2-.1.4-.1.7-.2z" fill="#b7afba"/><path d="m15 12.4s0 .1 0 0c-.3 0-.6.1-.9 0z" fill="#f5babb"/><path d="m9.3 11.3c.1-.1.3-.2.5-.2-.1.2-.3.2-.5.2z" fill="#cbb3ba"/><path d="m13.7 12.3c0-.1-.2 0-.2-.1 0 0 .5.1.5.2-.1 0-.2 0-.3-.1z" fill="#f5babb"/><path d="m7.6 15.9c0 .1-.1.1-.1.2-.1 0-.1 0-.2 0 .1-.1.3-.1.3-.2z" fill="#fdbcbc"/><path d="m9.4 13.7c0-.1 0-.2.1-.3.1.1.1.2-.1.3.1 0 .1 0 0 0z" fill="#f5babb"/><path d="m9.6 13.5c.2-.2.2 0 0 0z" fill="#aeadbb"/><path d="m15 19.3c.1-.1-.1-.1 0-.2v.2c.1 0 0 .1 0 0 0 .1 0 .1 0 0z" fill="#e0b6bb"/><path d="m9.2 14.1c0 .1 0 .1-.1.1 0-.1 0-.1.1-.1z" fill="#aeadbb"/><path d="m15.1 19.3s-.1-.1-.1-.2c.1.1.1.1.1.2z" fill="#edb9bb"/><path d="m13.5 20.5c0-.1 0-.1.2-.1-.1 0-.1.1-.2.1z" fill="#aeadbb"/><path d="m12.3 21.6c0-.1 0-.1.2-.1-.1 0-.2 0-.2.1z" fill="#aeadbb"/><path d="m12.7 21.2c0-.1 0-.1.2-.1-.1 0-.1.1-.2.1z" fill="#aeadbb"/><path d="m13.1 20.9c0-.1 0-.1.2-.1-.1 0-.1 0-.2.1z" fill="#aeadbb"/><path d="m9.4 13.8c.1 0 0 .1 0 .1-.1 0-.1 0 0-.1-.1.1-.1 0 0 0z" fill="#aeadbb"/><path d="m11.5 22.2c0-.1 0-.1.1-.1 0 0 0 0-.1.1z" fill="#aeadbb"/><path d="m8.8 14.6c.1 0 0 .1 0 0-.1 0 0 0 0 0z" fill="#aeadbb"/><path d="m13.9 20.2c0-.1 0-.1.1-.1 0 0 0 0-.1.1z" fill="#aeadbb"/><path d="m12 21.8c0-.1 0-.1.1-.1 0 0-.1.1-.1.1z" fill="#aeadbb"/><path d="m12.1 21.7v-.1.1c.1-.1 0 0 0 0z" fill="#aeadbb"/><path d="m14.1 20v-.1z" fill="#aeadbb"/><path d="m11.3 22.3c.1 0 0-.1 0 0 .1-.1.1-.1 0 0 .1 0 .1 0 0 0z" fill="#aeadbb"/><path d="m14.3 19.9c.1-.1.1-.1 0 0 .1-.1.1 0 0 0z" fill="#b1aeba"/><path d="m13.8 20.3s-.1-.1 0 0c0-.1 0 0 0 0z" fill="#aeadbb"/><path d="m13.5 12.2h-.1s.1-.1.1 0z" fill="#f5babb"/><path d="m12.9 21c0-.1 0 0 0 0 .1 0 .1 0 0 0z" fill="#aeadbb"/><path d="m12.5 21.3c0-.1 0 0 0 0 .1 0 .1 0 0 0z" fill="#aeadbb"/><path d="m13.3 20.6c0-.1 0 0 0 0 .1 0 .1 0 0 0z" fill="#aeadbb"/><path d="m9 14.3c0 .1-.1.1 0 0-.1.1-.1.1 0 0z" fill="#aeadbb"/><path d="m16.8 10.9c-.1.1-.1 0 0 0-.1 0 0 0 0 0z" fill="#fdbcbc"/><path d="m7.7 15.8s0 .1 0 0z" fill="#fdbcbc"/><path d="m7.8 15.8c-.1 0 0-.1 0 0z" fill="#fdbcbc"/><path d="m8.9 14.4c0 .1 0 .1 0 0-.1.1-.1.1 0 0z" fill="#aeadbb"/><path d="m11.3 22.4c0-.1 0-.1 0 0 0-.1 0 0 0 0z" fill="#aeadbb"/><path d="m9.5 23c-.1 0-.2-.1-.3-.1-.9-.9-2.2-1.7-2.3-3.1-.1-.3-.3-3.1.4-3.2v1.1c.1 1.8 0 2.1.1 2.5.1.7.5 1.7 2.1 2.8z" fill="#e6b8bb"/><path d="m7.3 16.6c0-.1.1-.1.1-.2s.1-.3.2-.3c0 .1 0 .3.1.5.2 1.8-.2 2.3.1 3.1.2.5.3.3 1 1.5.5.7.8 1.4 1 1.8h-.1s-.1 0-.1-.1c0-.2-.3-.2-.4-.4-.3-.2-.7-.6-1-1.2-.5-1-.4-1.7-.8-1.8-.4 0-.9.4-.1-2.9z" fill="#dbb6bb"/><path d="m7.3 16.4c0 .1 0 .2-.1.2-.7 0-.4 2.9-.4 3.2.2 1.4 1.5 2.2 2.3 3.1h-.1c-.8-.7-2.1-1.7-2.2-2.9-.2-.6-.4-3.6.5-3.6z" fill="#edb9bb"/><path d="m10.7 20.7c.2.1.4.5.1.6 0 0-.4-.5-.1-.6z" fill="#aeadbb"/><path d="m13.7 20.1h.1c0 .1 0 .1-.1 0z" fill="#aeadbb"/><path d="m11.9 21.8h-.1c0-.1 0-.1.1 0z" fill="#aeadbb"/><path d="m14.2 19.9h-.1c0-.1 0 0 .1 0z" fill="#aeadbb"/><path d="m12.1 21.5s.1 0 0 0z" fill="#aeadbb"/><path d="m9.4 13.7c.1 0 .1 0 0 0 .1 0 .1.1 0 0z" fill="#aeadbb"/><path d="m10.8 21.4s.1 0 0 0z" fill="#aeadbb"/><path d="m13.4 20.4c0 .1 0 .1 0 0-.1.1 0 .1 0 0z" fill="#aeadbb"/><path d="m9.6 13.6c.1.1.1.1 0 0z" fill="#aeadbb"/><path d="m14 18.3c-.1.1-.1 0 0 0-.1 0 0 0 0 0z" fill="#aeadbb"/><path d="m13.7 12.4c.1 0 .1 0 0 0z" fill="#bcb0ba"/><path d="m15 19.1c-.2-1.1 0-3.3-.1-4.5 0-.5.7-2 .6-2.3-.2 0-.9 5.7-.4 6.3v.2c-.1.1 0 .2-.1.3z" fill="#e0b6bb"/><path d="m15.9 12.2c-.4-.2-.3 5.9-.7 6.2-.2-.4.1-6.2.7-6.2z" fill="#edb9bb"/><path d="m15.1 19v-.1z" fill="#edb9bb"/><path d="m9.3 11.9c-.1 0-.1-.1-.2-.1 0-.1 2.9-.2 3.4-.4.1 0 .1.1.1.2-.5.2-3.2-.1-3.3.3z" fill="#e6b8bb"/><path d="m9.3 11.3c.1 0 .2-.1.2-.1.3.6 2.5-.6 2.7 0-.1.4-2.9.2-2.9.1z" fill="#f5babb"/><path d="m14.6 12.5h.3c.1.3-.6 1.4-.6 1.8-.1.6.2 1.3.2 1.8.1.5 0 2.5.4 2.7 0 .1 0 .2-.1.3-.3-.8-.4-2.8-.7-3.8-.1-1 .5-1.8.5-2.8z" fill="#c6b2ba"/><path d="m14.8 19v-.1c.1 0 .1 0 0 .1.1 0 .1 0 0 0z" fill="#cbb3ba"/><path d="m14.9 18.8c-.3-.3-.3-2.3-.4-2.7-.1-.6-.3-1.2-.2-1.8 0-.4.7-1.5.6-1.8h.1c-1.2 1.9-.2 4.2-.1 6.3z" fill="#cbb3ba"/><path d="m7.3 16.6c-.1 1.2-.1 2.2 0 2.9.1 1 .3 1.4.4 1.6.4.7 1 1.2 1.3 1.4-.4-.3-1.3-1.1-1.7-5.9z" fill="#e0b6bb"/><path d="m8.5 16.4h-.1v-.1c-.2 0-.2-.2-.3-.3.1-.1-.2-.4-.2-.2-1.6.1-1.8.2-2.9-1 0-.4 0-.8.1-1.2.1-.1.2 0 .3-.2 0-.1.2 0 .2-.2s.1 0 .1-.1c.1 0 .1-.1.2-.2 0 0 .1.1.1 0h.1s0 0 0-.1c.1 0 .1 0 .2-.2 0 0 0-.1.1-.1 0 .2.2 0 .2-.1 0 0 0-.1.1-.1 0 .2.2 0 .2-.1.1-.1.3 0 .3-.2 1.3-1.2 2.9-.3 3.3 1.1.3 1.1-.8 2.1-1.1 3-.2.1-.4.2-.6.2-.2.1-.3 0-.3.1zm1.5-3.8c-.1-.2-.2-.3-.4-.5 0-.1 0-.1-.1-.1 0-.2-.7-.6-.8-.4-.7 0-.8.2-1.1.3 0 0-.9.7-.9.8 0 0-.3.8-.3.7 0 0 .2-.7.2-.7-.2.2-.4.3-.6.4 0 .1-.4.3-.4.5 0 0-.1 0-.1.1-.1 0-.1.2-.1.4-.1 0-.3 0-.3.1-.3 0-.1.3 0 .3.1.2 2.2 1.8 2.1 1.1.2.1.5 0 .8.1 0 .1.2.3.3.3h.2c.1.1.8.1.7-.2.1 0 .2 0 .2-.1h.1c.1 0 0-.1 0-.1.1 0 .5-.7.4-.7.3-.2.1-1.1.3-1.3.3.2 0-.6-.2-.7.1-.1.1-.2 0-.3.2 0 .1 0 0 0zm-1.7-1.1h.4c-.1 0-.3 0-.4 0z" fill="#dfdfe5"/><path d="m5 14.8c0-.1-.1-.2-.1-.4 0-.1 0-.2 0-.3v-.1c0-.1.1-.2.1-.3 0 0 .1-.1.1-.1.1.2 0 .3 0 .4 0 0-.1.1-.1.2v.2c.1.1.1.2 0 .4z" fill="#e0e0e5"/><path d="m8.5 16.4c0-.1.1 0 .1-.1v.1s0 0-.1 0z" fill="#e9e9ed"/><path d="m8.7 16.4c0-.1.1-.1.1-.1v.1z" fill="#f3f4f5"/><path d="m7.6 12c.3-.1.5-.3 1.1-.3.1.1.5 0 .5.2 0 0-.3.2-.2.2.9.2.4 1.5.8 1.8-.1 0-.2.4-.2.4-.1 0 .1-.2 0-.3 0-.1-.3.4-.3.5.1.1.3-.2.3.1 0-.1-.3.3-.2.2 0 0-.1-.3-.2-.2 0 .1-.4.6-.4.6 0 .1.1-.1.1 0 0 .2-.4.6-.5.6-.2 0 0-.1 0-.1 0-.1-.7-.2-.8-.1.1 0 .3-.2.3-.2-.1 0-1-.2-.9-.2-.1.1.3.2.2.2 0 0-.9-.1-.6 0 .1 0 0-.1.2.2-.3.1-.4 0-.6.1 0 0 .1-.2.1-.2-.2-.2-.1 0-.2-.1-.1.1-.3-.8-.3-.8-.1-.1-.2.2-.2.2-.3.2-.2-.6-.2-.6s-.3-.3 0-.3c-.2.2.8-.7.8-.7s.1.3.2.1c0 0-.1-.6.2-.4.1 0-.1.4-.1.3 0 0 .4-.4.5-.4s-.1-.1 0-.2h.3s-.2-.2-.1-.2h.1c.1-.1 0 .2 0 .2s.3-.4.3-.5c.2-.1 0 0 0-.1zm.7 0c.3 0 0-.2-.1-.2 0 0 .5.1.5 0-.4-.3-.7.3-.4.2zm-2.2 2.7c-.1 0 .1.4.2.3s-.1-.3-.2-.3z" fill="#dfdfe5"/><path d="m7.6 12c.1.1.2 0 .2 0s-.3.5-.3.5v-.2s0 .1-.1 0c-.1 0 .1.2.1.2h-.3c-.1.1.1.1 0 .2-.1 0-.4.4-.5.4s.1-.3.1-.3c-.2-.1-.2.4-.2.4-.1.2-.2-.2-.2-.1 0 0-1 1-.8.7-.3 0 0 .3 0 .3s-.2.8.2.6c0 0 0-.3.2-.2 0 0 .2 1 .3.8.2.1.1-.2.2.1 0 0-.1.2-.1.2.2-.1.4-.1.6-.1-.2-.2-.1-.1-.2-.2-.3-.1.6 0 .6 0 .1 0-.3-.1-.2-.2-.1.1.8.2.9.2 0 0-.2.2-.3.2.1-.1.8 0 .8.1 0 0-.3.2 0 .1.2 0 .5-.3.5-.6 0-.1-.1.1-.1 0 0 .1.4-.5.4-.6.1-.2.1.2.2.2-.1 0 .2-.3.2-.2 0-.3-.2 0-.3-.1-.2 0 .1-.4.2-.4 0 0-.1.3 0 .3 0 0 .1-.4.2-.4-.4-.3.1-1.7-.8-1.8-.1 0 .2-.2.2-.2-.1.1.2.4.4.2.2.1.3.3.4.4-.1.1 0 .7.1.7 0 0-.1.5 0 .5-.2-.5-.1.4-.1.4 0 .4-.9 1.2-.4 1.3 0 .1-.2 0-.1.2h-.1c-.5 0-.1-.1-.1.1-.3 0-.6 0-.8.2-.1 0-.1 0-.1-.1.2 0 .1-.2-.2-.2v-.1c-.1 0-.3-.1-.1 0-.2-.1-.5 0-.8-.1 0 .6-2-.8-2.2-1.1 0-.2-.1-.6.2-.6 0-.1 0 .2 0 0-.1-.2.1-.2.2-.2v.1c0-.1.1-.1 0-.2s.1 0 0 0c.1-.1.3-.3.3-.4.2-.1.3-.2.4-.3v.1c.3-.1 1.1-.8 1.3-.8zm-2.3 2.2c-.1.2 0 .3.1.4 0 0-.1-.4-.1-.4zm2.1 1.2h-.1zm2.1-2.9c0 .1 0 .1 0 0zm-2.3 2.8c0 .1 0 .1 0 0zm-.4-2.4c0-.1 0-.1 0 0z" fill="#dfdfe5"/><path d="m10 14.3s-.1-1 .1-.5v-.5c-.1 0-.2-.5-.2-.7h.1c.1 0 .1 0 0 .1-.1 0-.1.1 0 .1.2.2.5 1 .2.7-.2.2 0 1.1-.3 1.3 0 0-.4.7-.4.7-.4 0 .5-.9.5-1.2z" fill="#dfdfe5"/><path d="m8.5 16c.2-.1.5-.2.7-.2 0 .3-.6.3-.7.2z" fill="#dfdfe5"/><path d="m9.3 11.9c0-.3-.4-.1-.5-.3.1-.2.8.2.8.4-.2 0-.1-.1-.3-.1z" fill="#dfdfe5"/><path d="m9.3 11.9c.3 0 .1.1.3.1 0 0 .1.1.1.1-.2.3-.5-.1-.4-.2z" fill="#dfdfe5"/><path d="m5.1 14.1c-.1.1.7.3.7.3 0 .1-.7 0-.7.1-.1 0-.2-.4 0-.4z" fill="#dfdfe5"/><path d="m8.1 16.1c-.1-.1-.2-.2-.2-.3s.3.2.2.3z" fill="#dfdfe5"/><path d="m8.1 15.7c0-.1 0 0 0 0h.1c0 .1.2.1.2.3-.1 0-.3-.3-.3-.3z" fill="#dfdfe5"/><path d="m9.3 15.8c0-.1-.4 0 0 0 .1 0 .1 0 0 0z" fill="#dfdfe5"/><path d="m6.7 13c0 .1.1-.6.1-.5 0 0-.3.3-.3.3s-1.5 1.2-1.3 1.1c0 .1 1.5-.9 1.5-.9z" fill="#dfdfe5"/><path d="m8.3 11.5h.4c-.1 0-.3 0-.4 0z" fill="#dfdfe5"/><path d="m6.7 12.3c.1 0 .1 0 .2-.1-.1.1-.2.2-.2.1z" fill="#e1e1e5"/><path d="m6.4 12.5c.1 0 .1 0 .2-.1 0 .1-.2.2-.2.1z" fill="#e1e1e5"/><path d="m5.6 13.6c.1.1 0 .1 0 .2 0-.1-.1-.1 0-.2-.1 0 0 0 0 0z" fill="#dfdfe5"/><path d="m6.9 12.1c0-.1.1-.1.2-.1 0 .1-.1.1-.2.1z" fill="#e1e1e5"/><path d="m6.2 12.7c0-.1.1-.1.2-.2-.1.2-.1.2-.2.2z" fill="#e1e1e5"/><path d="m5.6 13.2c0-.1.1-.1.2-.2 0 .1-.1.2-.2.2z" fill="#e1e1e5"/><path d="m5.9 13s.1-.1.2-.1c-.1.1-.2.1-.2.1z" fill="#e1e1e5"/><path d="m9.5 15.8c0-.1-.1-.2 0 0 0-.1 0-.1 0 0z" fill="#dfdfe5"/><path d="m5.2 13.5s.1-.1.1-.1c0 .1 0 .1-.1.1z" fill="#e1e1e5"/><path d="m5.4 13.4s.1-.1.1-.1 0 .1-.1.1z" fill="#e1e1e5"/><path d="m10.1 12.8c-.1 0 0-.1 0 0z" fill="#dfdfe5"/><path d="m5.5 13.3c0-.1.1-.1 0 0 .1-.1.1 0 0 0z" fill="#e1e1e5"/><path d="m7.3 15.6c-.1-.1 0-.1 0 0z" fill="#dfdfe5"/><path d="m6 12.8s.1 0 0 0c.1 0 .1 0 0 0z" fill="#e1e1e5"/><g fill="#dfdfe5"><path d="m5 14s1 1.1.1.8c0 0-.1-.8-.1-.8z"/><path d="m5.7 13.5c-.1 0 0 0 0 0z"/><path d="m10 12.6s.1 0 0 0z"/><path d="m8.3 12c-.2 0 0-.6.5-.1 0 0-.5-.1-.5 0-.1-.1.3.2 0 .1z"/><path d="m6.1 14.7s.3.2.2.3c0 .1-.3-.3-.2-.3z"/><path d="m8.3 15.9c0-.1-.1-.1-.2-.2.3 0 .4.2.2.2z"/><path d="m5.3 14.2s.1.4.1.4c-.2-.1-.2-.3-.1-.4-.1 0 0 0 0 0z"/><path d="m8.2 15.7c-.1 0-.1-.1 0 0-.3-.2-.1-.1 0 0 0-.1 0-.1 0 0z"/><path d="m7.4 15.4h-.1z"/><path d="m9.5 12.5c0 .1 0 .1 0 0z"/><path d="m7.2 15.3c0 .1 0 .1 0 0z"/><path d="m6.8 12.9c0-.1 0-.1 0 0z"/><path d="m10.3 13.4s0 .1 0 0z"/></g><path d="m8.9 29.8c.2.3.7.8 1.4 1.2 1.1.5 2.1.3 2.5.3.4-.1.9-.2 1.3-.7.2-.3.3-.5.4-.7.3-1 0-1.9-.1-1.9s.2 1.1-.5 1.8c-.3.3-.7.5-1.1.6-.2.1-1.4.4-2.3-.2-.6-.4-.7-.9-1.1-.8-.3 0-.4.2-.5.4z" fill="#ffbdbd"/><path d="m15.8 24.5c0 .2-.1.4 0 .7 0 .2.1.4.1.5.2.1.8.4 1.6.2.6-.1.9-.4 1.1-.5 0-.2.1-.4.1-.7.1-.6.2-1.2.2-1.7-.4.4-1.5 1.4-2.8 1.3-.1 0-.2 0-.4-.1.1.1.1.2.1.3z" fill="#ffbdbd"/><path d="m21.8 19.3-6.3 5.1c.6 0 2.4 0 4-1.2 1-.8 1.5-1.8 1.7-2.2.4-.7.5-1.3.6-1.7z" fill="#ffbdbd"/><path d="m15.5 26.3c-.2.2-.5.6-.6 1.3v.7c0 .3.1 1 .6 1.5.3.3.5.5.7.6 1.1.7 2.2.5 2.4.5.3 0 .8-.1 1.3-.5.1-.1.5-.4.7-.9.5-1.2-.3-2.4-.4-2.6-.5-.8-1.2-1.3-1.3-1.3 0 0 .1.1.3.3.5.6 1.4 1.7 1.1 2.6-.1.4-.5.7-.7.8-.3.2-.5.2-.8.3-.3 0-.7.1-1.4 0-.3-.1-1.2-.2-1.8-1-.1-.1-.2-.3-.3-.4-.4-.8.1-1.7.2-1.9z" fill="#ffbdbd"/><path d="m28.5 7.4c-1.2 1-2.4 1.9-3.6 2.9.3.3.5.6.8.8-.3.2-.7.5-1 .4-.1-.1-.1-.1-.3-.3-.4-.3-.8-.3-1-.3-.3 0-.7 0-1 .2-.1.1-.2.2-.3.3-.1.3-.1.8.1 1.1 0 .1.1.2.1.2-.1.1-.3 0-.4.1s-.1.2 0 .7c0 .1.1.2.1.3.1-.2.3-.4.4-.6.2-.3.4-.4.6-.6.3-1.1 1.3.7 1.4 1.2.6.9 1.5.4.9-.6.5.3 1.2 1.2 1.2 1.7 0 0 0-.1-.1-.1 0 0 0 .1.1.2-.1.2.1.6-.1.7 0 .1.1.2.1.4s-.2.4-.3.5-.3.3-.6.3c0-.2 0-.9-.6-1.5-.7-.6-1.4-1-1.3-.1v.2c0 .1.1.1 0 .1v.1.1c.1.1.1.2.1.3.3.4.4.7.4.8 0 .8-1 1.6-2.6 1.8.3.8.6 1.4.9 1.7.3.5.7.9 1.3 1.2.1.1 1.1.5 1.6 0 .5-.4.5-1.6-.3-2.7.9.7.7-.6 1.4-1.3.1-.1.3-.3.6-.4.5-.2.7-.1.9-.3.3-.2.1-.7.2-1.6 0-.5.1-.8.2-1.1.3.4.5.8.8 1.1 1.2-.9 2.4-1.7 3.6-2.6-1.4-1.5-2.8-3.4-4.3-5.3z"/><path d="m9.8 29.5c.7.8 2 1.1 3 .8.2-.1.9-.3 1.3-.9.2-.3.3-.8.1-1s-.6.1-1.5.3c-.5.1-1 .2-1.6 0-1-.3-1.4-1.1-1.7-.9-.1.1-.1.3-.1.6 0 .6.4 1 .5 1.1z" fill="none" stroke="#000" stroke-miterlimit="10" stroke-width=".216"/><path d="m15.1 27.6c0-.3 0-.6 0-.9.2 0 .5.3.6.4.1 0 .6.2.6.2.3-.1.6 0 .9 0h.3c.1 0 .2-.1.3-.1-.1 0 .3-.1.3-.1s.6-.1.7 0h-.1.1s1 .3 1.1.3c0 .3-.1.6-.3.8-.1 0-.2 0-.3 0s-.4-.1-.4-.1v.1c0-.1-.3 0-.3 0-.1 0-.4-.1-.7-.1-.4 0-.8.1-1.1.1 0-.1-.9-.2-.9-.1v.1c-.1 0 0 .2-.1.2-.4-.1-.4-.7-.7-.8zm1.8-.3c.1 0 .1 0 0 0z" fill="#d0cece"/><path d="m18.6 25.3c0 .2.5.4.6.5.2.2.4.4.6.7 0 0-.8-.4-.8-.5-.2 0-.3-.2-.5-.2s-.1 0-.3.2c-.3.2-1.1.3-1.1.3-.4 0-1 0-1.7-.2 0-.1.1-.4.3-.6l.2-.2c.4-.2.8.5 1.4.6.2 0 .6-.1 1-.5s0 0 0 0c.1-.1.2-.1.3-.1z" fill="#febcbc"/><path d="m20 27.3s0 .1 0 0c0 .1 0 .1 0 0-.2.1-.2 0-.2 0-.1 0-.2 0-.3 0-.2 0-.3-.1-.4-.1-.1-.1-.3-.2-.4-.2 0 0-.4 0-.3-.1 0 0-.2.1-.2 0 0 0 .1 0 0 0s-.2.1-.4.1c.1 0-.1.1-.1.1 0 .1-1.4 0-1.5 0-.2 0-.4-.1-.6-.1-.1 0-.2-.1-.3-.1s-.1-.2-.2-.2c0 0 0 0 0-.1.2.1.3.1.5.2.1.1.2.1.3.1h.3c.2.1.6.1.9.1.2 0 .3 0 .5-.1.1 0 .1-.1.1-.1s.2 0 .1 0 .5-.1.5-.1c.2 0 .3.1.4.2.2.1.4.1.6.2s.6.2.7.2c-.1 0 0-.1 0-.1v.1c0-.1 0 0 0 0zm-1.8-.4c.1 0 .1 0 0 0zm-.7.2s.1 0 0 0zm-1.9-.2s0 .1 0 0c0 .1 0 .1 0 0z" fill="#d4cccb"/><path d="m20 27.1c0 .1-1.2-.3-1.2-.3s0 0 0 0c.1 0-.3-.1-.2-.1-.2-.1-.3-.1-.5 0-.3.1-.6.3-1 .2-.4 0-.7 0-1.1-.1-.2-.1-.3-.1-.5-.2-.1 0-.3-.1-.4-.2v-.1c.4.1.7.3 1.2.4.3.1.7 0 1 0s.4-.1.6-.2c.4-.2.6-.2 1 0 .3.2.7.6 1.1.6z" fill="#ddc8c8"/><path d="m20 27.1c-.3 0-.8-.3-1.1-.4-.4-.1-.6-.1-1 0-.3.1-.4.2-.6.2-.3 0-.7 0-1 0-.4-.1-.8-.3-1.2-.4v-.1c.2 0 .4.2.6.3s.5.2.6.2c.3.1.6 0 .9 0 0 0 .8-.2.8-.2h-.1s.4-.2.4-.2h.2c.1 0 .2.1.3.1.4.1.8.2 1.2.5 0-.1 0-.1 0 0z" fill="#e5c5c5"/><path d="m15.1 26.5c.1 0 .3.1.4.2.2.1.3.1.5.2.4.1.7.1 1.1.1s.7-.2 1-.2c.2-.1.3-.1.5 0 0 0 .3.1.2.1s1.1.4 1.2.4v.1c-.1 0-.4-.2-.5-.2-.3-.2-.5-.2-.7-.3s-.3-.2-.4-.2c0 0-.5.1-.5.1h-.1s0 .1-.1.1c-.3.1-.4.1-.6.1-.3 0-.7 0-.9-.1 0 0-.2 0-.3 0s-.2-.1-.3-.1c-.2-.1-.3-.1-.5-.3z" fill="#d8caca"/><path d="m20 27c-.4-.2-.8-.3-1.2-.5-.1 0-.2-.1-.3-.1-.2 0-.1 0-.2 0 0 0-.4.1-.4.2h.1s-.7.2-.8.2c-.3 0-.6.1-.9 0-.2 0-.3-.1-.6-.1-.3-.1-.5-.1-.7-.1 0-.1.1-.2.1-.4.1-.2.2-.3.3-.4.1.1.3.7.9.9.1 0 .7.1 1.2 0s.5-.5 1-.4c.2.1.5.3.7.4s.5.3.7.3c0-.1 0-.1.1 0 0-.1 0 0 0 0z" fill="#ebc3c3"/><path d="m15.1 26.6c.1 0 .2.2.2.2.1 0 .2.1.3.1.2.1.3.1.6.1.1 0 1.5.1 1.5 0s.2-.1.1-.1c.2 0 .3-.2.4-.1 0 .1.2 0 .2 0-.1 0 .4.1.3.1.2 0 .3.1.4.2.1 0 .2.1.4.1h.3c.1 0 .1.1.2.1-.1 0-1.1-.3-1.1-.3 0-.1-.1 0-.1 0h.1c-.1-.1-.7-.1-.7 0 0-.1-.3 0-.3.1-.1 0-.2 0-.3.1-.1 0-.2 0-.3 0-.3 0-.6 0-.9 0 0 0-.6-.1-.6-.2-.3 0-.6-.3-.7-.4 0 .1 0 .1 0 0z" fill="#d2cccc"/><path d="m18.3 25.4c-.1 0-.1-.1 0 0-.1-.1-.1-.1 0 0 0-.1 0-.1 0 0 0-.1 0 0 0 0z" fill="#ebc3c3"/><path d="m16.8 28.2c.4 0 .8-.1 1.1-.1.2 0 .5.1.7.1 0 0 .4 0 .3 0 0 0-.1 0-.1.1s0 0 .1.1c0 .1-.1.1-.1.1s0 0-.1 0c-.1-.3-.1-.1-.2-.1 0 0-.1-.1-.2-.1h-.2c-.1 0-.3 0-.4 0-.2 0-.7 0-.7.1h-.1s-.1 0-.1-.2v.1c.1 0 0-.1 0-.1z" fill="#cbc9c9"/><path d="m16.8 28.2s0 .1 0 0c-.1 0-.4-.2-.6-.1-.1 0-.3.1-.3.3s0 0-.1-.1c0 0 0-.2.1-.2.1 0 0-.1 0-.1.1 0 .9.1.9.2z" fill="#d2cccc"/><path d="m18.9 28.3c-.1 0 0 0 0 0 .1-.1.1-.2.1-.2s.3.1.4.1h.3c0 .1-.1.1-.1.2-.3-.1-.5-.2-.7-.1z" fill="#d2cccc"/><path d="m16.9 27.3c.1 0 .1 0 0 0z" fill="#d2cccc"/><path d="m15.3 26.2s0-.1.1-.2.2-.1.2-.1c-.1 0-.2.1-.2.1 0 .2.9.3.9.3s-.2-.1-.2 0h.8c.3 0 .7 0 1-.2s.2-.4.6-.3c.1 0 .5.2.4.3.1 0 .9.5.9.5v.1c-.2.1-.6-.3-.7-.4-.1 0-.6-.3-.8-.3-.1 0-.3.3-.4.4-.4.2-.9.2-1.4.2-.1 0-.3 0-.4 0-.2 0-.2-.1-.4-.2-.1-.1-.2-.2-.4-.2z" fill="#f6bebe"/><path d="m19.9 26.7s-.8-.4-.9-.5c0 0-.3-.2-.4-.3-.4-.2-.3.1-.6.3s-.7.1-1 .2c-.1 0-.8.1-.8 0h.2s-.7 0-.9-.3v-.1-.1c0-.1.1-.1.1-.1.3.2.8.5 1.5.5.5 0 1-.2 1.1-.3.2-.1.1-.2.3-.2s.3.3.5.2c0 .1.8.5.8.5 0 .1 0 .1.1.2-.1 0 0 0 0 0z" fill="#fabdbd"/><path d="m19.9 26.9c-.2 0-.5-.2-.7-.3s-.4-.3-.7-.4c-.5-.1-.5.3-1 .4-.3.1-.6.1-1.2 0-.3 0-.7-.1-1.1-.3 0 0 0-.1.1-.1.1-.1.2-.1.3-.1 0 .1.1.2.2.3s.2.1.3.2c.1 0 .2.1.3.1.5.1 1.2.1 1.6-.2s.4-.2.8 0c.2-.1.8.4 1.1.4 0-.1 0 0 0 0z" fill="#eec2c2"/><path d="m18.5 28.9c-.5.1-.9 0-1.4 0 0-.3.5-.2.7-.2s.8 0 .7.2z" fill="#b3b0b0"/><path d="m18.5 28.9c.1-.3-.5-.2-.7-.2-.3 0-.7-.1-.7.2h-.1c0-.1 0-.3 0-.4s.1.1.1.1c.1 0 0-.1.1-.1h.6c.3 0 .6-.1.7.2.1.1.1.2 0 .2z" fill="#b8b5b5"/><path d="m19.8 26.8c-.3.1-.8-.2-1-.4-.3-.2-.3-.3-.5-.3-.1 0-.2.1-.4.3-.4.3-.9.2-1.7.1-.1 0-.2 0-.3-.1 0 0-.2 0-.3-.1s-.2-.1-.4-.3c.1 0 .2 0 .3.1.2 0 .3.1.5.1s.3-.1.5-.1c.5-.1.7.1 1.5 0h.2c.3 0 .5.1.9.4.2.1.4.2.7.4.1-.1 0-.1 0-.1z" fill="#f2c0c0"/><path d="m16.8 28.3s.1.1.1.2-.1 0-.1.1c0 0 0 0-.1 0-.2-.3-.5-.3-.6.1h-.1c.1-.1 0-.2.2-.3.1-.2.4-.1.6-.1z" fill="#ddc8c8"/><path d="m16.8 28.3c-.2 0-.4-.1-.6 0-.2 0-.2.1-.2.2 0 0-.1 0-.1-.1 0-.2.2-.3.3-.3.2 0 .5.1.6.2 0-.1.1 0 0 0z" fill="#d8caca"/><path d="m18.6 28.9c0-.1 0-.1 0-.2.2-.1 0-.3.2-.2h.1.1s-.1.2-.1.2v.1c-.2.1-.2.1-.3.1z" fill="#d6b9b9"/><path d="m16.1 28.6c.1-.3.4-.4.6-.1-.1 0-.6-.2-.5.1z" fill="#e5c5c5"/><path d="m16.8 28.6s.1-.1.1-.1h.1c0 .1-.1.3 0 .4-.1 0-.1 0-.1-.1s-.1-.1-.1-.2z" fill="#d6b9b9"/><path d="m16.2 28.6c-.1-.4.4-.2.5-.1-.1 0-.4.1-.5.1.1.1 0 .1 0 0z" fill="#ebc3c3"/><path d="m18.9 28.6c0-.1 0-.1 0 0-.1-.1 0-.1 0-.2.2 0 .3-.1.4.1-.2-.2-.1.1-.4.1z" fill="#ddc8c8"/><path d="m16.3 28.7c0-.1.3-.2.4-.2v.2c-.1-.1-.3-.1-.4 0z" fill="#f6bebe"/><path d="m16.1 29.8c0-.1.3-.2.4-.2v.2c-.1-.1-.3-.2-.4 0z" fill="#f6bebe"/><path d="m19.4 28.5c-.1-.2-.2-.1-.4-.1-.1 0-.1 0-.1-.1.2-.1.5-.1.7.1-.1.1-.2.1-.2.1z" fill="#d4cccb"/><path d="m16.7 28.7v-.2h.1c0 .1.1.2 0 .3h-.1c0 .1-.1.1 0-.1 0 .1 0 .1 0 0z" fill="#f2c0c0"/><path d="m19.3 28.6c0 .1-.2.2-.3.2 0-.3.1-.2.3-.2z" fill="#fabdbd"/><path d="m16.7 28.7c0 .1 0 .1 0 0-.1 0-.2.1-.3 0 0-.1.2-.1.3 0z" fill="#fabdbd"/><path d="m19.3 28.6c-.2 0-.3-.1-.3.2h-.1s0 0-.1 0v-.1c.1-.1.2-.2.3-.3.1.1.2.2.2.2z" fill="#f6bebe"/><path d="m19.2 28.5c-.1 0-.2.1-.3.1.2 0 .2-.2.4 0 0 0 0 0-.1 0 .1-.1 0-.1 0-.1z" fill="#ebc3c3"/><path d="m19.2 28.5s.1 0 .1.1-.1-.1-.1-.1z" fill="#eec2c2"/><path d="m18.2 26.9c.1 0 .1 0 0 0z" fill="#d2cccc"/><path d="m17.5 27.1s.1 0 0 0z" fill="#d2cccc"/><path d="m15.6 26.9c0 .1 0 .1 0 0z" fill="#d2cccc"/><path d="m18.7 28.5c-.2-.1 0 .1-.2.2-.1-.3-.4-.2-.7-.2-.2 0-.4.1-.6 0-.1 0 0 0-.1.1 0 0-.1-.1-.1-.1 0-.2.6-.1.7-.1h.4.2s.1.1.2.1c.1-.1.2-.3.2 0z" fill="#c2bfbf"/><path d="m18.9 28.6c.1 0 .1-.1.2-.1-.1.1-.2.2-.3.3.1 0 .1-.2.1-.2z" fill="#eec2c2"/><path d="m15.4 25.7c-.2.2-.3.4-.4.6-.2.5-.2 1-.2 1.3v.6c.2.4.6.6 1.4.8 1.6.4 2.4.7 3.2.2.2-.1.8-.5.8-1.1.1-.8-.4-1.3-.5-1.4-.3-.4.3.5.3.9 0 .6-.5 1-.8 1.2-.5.3-1 .3-1.6.3-.5 0-1.1-.1-1.6-.5 0 0 0 0-.1 0-.2-.1-.7-.6-.8-1.4 0-.8.2-1.3.3-1.5z" fill="#ffbdbd"/><path d="m10.1 29.5c4-3.1 8.1-6.2 12.1-9.3" fill="none" stroke="#1a1818" stroke-miterlimit="10" stroke-width=".216"/><path d="m14.5.7c.7 0 1.2.1 1.5.1s.8.1 1.3.2 1.2.3 2 .8c.3.2.7.5 1.1.9.3.3.6.7.9 1.4.3.8.2 1.5.1 1.9 0 0-.1.9-.5 1.6-.6 1.2-1.7 1.7-2.2 1.9-.5.2-1 .4-1.6.5h-.1l-.1.1c-.1.1-.1.2-.1.3v.3.2l.2-.1h.2c.4 0 .9.2 1.2.3l.2.1c.5.2 1.1.4 1.5.7.5.3.9.6 1.3 1 .2.2.4.5.5.9l-5.8 4.3-5.7 4.2c0-.1-.1-.2-.2-.3-.2-.3-.6-.4-1-.4-.1 0-.2 0-.2 0-.3.1-.6.2-.7.4s-.2.4-.2.5c0 0-.1 0-.1-.1-1.6-.9-1.5-3.7-1.5-4s0-.6.1-.8l.1-.6-.5.5c-.3.3-.5.6-.6 1-.3.8-.1 1.5.1 2 0 .1.1.2.1.3.4 1.5 2.2 2.7 2.9 3.1-.4.4-1.3 1.1-1.9 1.6-.6-.4-1.9-1.3-2.6-2.4-.4-.6-.7-1.2-.8-1.9-.2-.8-.3-2.1.2-3.5.4-1 1-1.8 1.4-2.2l.4-.4.1-.1-.2-.2c-.1 0-.3-.2-.3-.5 0-.1 0-.2 0-.3.1-.2.2-.4.3-.5 2.1-1.9 2.7-2.1 2.9-2.1h.2.2.2.2c.3 0 .4-.1.6-.2.1-.1.6-.2 1.2-.4.2-.1.5-.1.8-.2l.9-.2-.9-.2c-.6-.1-1.2-.3-1.7-.5 0 0-1-.4-1.6-.9l-.1-.1c-.2-.2-.5-.5-.8-.9l-.1-.2c-.2-.4-.4-.6-.4-.7s0-.2-.1-.3c0-.2-.1-.2-.2-.2s-.1 0-.2-.1c0 0-.1 0-.1-.1-.1-.1-.1-.2-.2-.2-.1-.6-.1-1.1 0-1.6s.3-.7.3-.8c0 0 .1-.1.1-.1h.6.5.1l.1-.1c.1-.1.2-.2.3-.4 0 0 .2-.2.4-.4 1.3-1.1 2.7-1.5 2.7-1.5.4-.1.7-.1 1.1-.2h.1c.8-.1 1.4-.2 1.7-.2zm0-.2c-.1 0-.3 0-.4 0-.2 0-.8 0-1.7.2-.5.1-.8.1-1.2.3 0 0-1.4.4-2.8 1.5-.3.2-.4.4-.4.4-.2.1-.3.3-.4.4-.4 0-.8 0-1.2 0 0 0-.1.1-.2.2s-.2.4-.3.9c-.1.6 0 1.2 0 1.5v.1.1c.1.1.2.1.2.2.1.1.1.1.1.1.2.2.3.1.4.3v.2c0 .2.2.5.5 1 .3.4.5.7.8.9 0 0 0 0 .1.1.6.5 1.6 1 1.6 1 .4.2 1 .4 1.8.5-.3.1-.6.2-.9.2-.8.2-1.2.4-1.3.4-.1.1-.2.2-.4.2-.1 0-.2 0-.3-.1 0 0-.1 0-.2 0s-.1 0-.2 0c-.7.1-2.8 1.9-3 2.2-.1.1-.3.3-.4.6v.3c0 .4.3.6.4.7-.1.1-.2.2-.4.4-.4.4-1 1.2-1.4 2.3-.6 1.6-.4 3-.2 3.6.1.5.4 1.2.9 2 .8 1.2 2.2 2.2 2.8 2.6.9-.7 2.3-1.9 2.3-1.9s-2.7-1.4-3.1-3.1c-.1-.5-.5-1.3-.2-2.2.1-.4.4-.7.5-.9 0 .2-.1.5-.1.9 0 .3-.1 3.3 1.6 4.2.2.1.3.2.5.2 0-.1-.1-.4.2-.7.2-.3.5-.4.6-.4h.2c.2 0 .6.1.8.3.1.2.2.4.2.5 3.9-2.9 7.9-5.8 11.8-8.7-.1-.3-.2-.8-.6-1.1 0 0 0 0-.1-.1-.4-.4-.9-.7-1.4-1s-1-.5-1.6-.7c-.4-.1-1-.4-1.4-.4-.1 0-.2 0-.3 0 0 0 0-.1 0-.2s.1-.2.1-.2c.4-.1 1-.2 1.7-.5.5-.2 1.7-.8 2.4-2.1.4-.8.5-1.7.5-1.7.1-.4.1-1.1-.1-2-.2-.7-.7-1.2-.9-1.5-.4-.5-.9-.8-1.2-1-.8-.5-1.6-.7-2.1-.9-.6-.1-1-.2-1.3-.3-.1.3-.6.2-1.3.2z"/><path d="m15.4 4.6c2.4 0 4.3.8 4.3 1.8s-1.9 1.8-4.3 1.8-4.3-.8-4.3-1.8 1.9-1.8 4.3-1.8z" fill="none" stroke="#000" stroke-miterlimit="10" stroke-width=".216"/><path d="m7.9 5c-.1.7-.5 1.6-1.1 1.6-.5 0-.7-.5-.9-.6 0-.5 0-.9 0-1.1 0-.5.1-.7.1-.7.1-.3.3-.6.5-.7h1.2c.1.2.4.8.2 1.5z" fill="none" stroke="#000" stroke-miterlimit="10" stroke-width=".054364"/><path d="m9.3 16.2c-.1.1-.5.3-.8.2-.1 0-.3-.1-.3-.2s.1-.1.4-.2c.2-.1.4-.2.4-.4.1-.2-.1-.5-.3-.6s-.3 0-.7 0c-.3 0-.6.1-.9 0-.2 0-.5-.2-.8-.5-.2.1-.5.2-.7.4-.1 0-.2.1-.2.2-.2-.1-.3-.2-.4-.4-.1-.1-.1-.2-.1-.2 0-.1-.1-.4 0-.6s.2-.3.2-.3c.7-.6.4-.5 1.4-1.2 0 0 .5-.4 1-.7 0 0 .1-.1.2-.1.3-.2.6-.3.8-.3.3.1 1.4.4 1.8 1.3.2.4.2.8.2.8 0 .5-.2.9-.4 1.3-.1.1-.1.3-.3.6-.3.4-.4.7-.5.9z" fill="none" stroke="#000" stroke-miterlimit="10" stroke-width=".054364"/><path d="m21.9 13.5c.1.2.1.3.2.5.4-.3.8-.7 1.2-1 0 0 0-.1 0-.2 0 0 .1-.2.2-.3.1 0 .3.1.4.2.4.3.7 1.1.8 1.4 0 0 .1.1.2.2.2.1.6.1.7-.1s-.1-.4-.4-1c-.1-.2-.1-.3-.3-.8-.1-.2-.1-.3-.1-.4.2.7.3 1.1.4 1.3 0 0 0 0 .1.1s.2.3.3.6v.2c0 .1 0 .2-.1.2-.1.1-.4.1-.6 0-.3-.1-.2-.4-.5-.9-.3-.4-.7-.9-.8-.8-.1 0-.1.2-.2.4s-.3.3-.3.3c-.3.2-5.3 3.9-12.6 9.2l.3.3c.5.4.8.6 1.1.9s.4.4.4.5c0 .3-.6.7-1.1.7-.4 0-.8-.3-1-.7s-.1-.7-.3-.8-.5.1-.9.1c-.3-.1-.7-.3-.7-.7-.1-.5.4-1 .9-1 .5-.1 1 .2 1.2.7 3.9-2.8 7.8-5.7 11.7-8.5-.2-.3-.2-.6-.3-.7 0-.2 0-.3 0-.4.1-.1.4-.1.4-.1.2 0 .2.1.2.1.1-.1-.4-.5-.4-1.1 0-.4.3-.6.4-.7.2-.2.5-.2.9-.2.2 0 .4 0 .7.1s.5.3.6.4.1.2.1.2c0 .1.1.2.1.3" fill="none" stroke="#000" stroke-miterlimit="10" stroke-width=".216"/><path d="m8.1 25.7s.1.1.1.1c.5.1.9.2 1.4.3.2 0 .8.2 1.3.8s.4 1.3.4 1.5c-.4-.4-.9-.5-1.2-.3 0 0-.4.2-.4.5 0 .5 1 .9 1.1.9.3.1.8.3 1.3 0 .1 0 .4-.2.4-.5 0-.1-.1-.3-.1-.4-.1-.2-.2-.3-.1-.3 0-.1.2-.1.6-.2.2 0 .3-.1.3-.1.2-.1.2-.3.2-.5.1-.6.3-.5.7-1.4.1-.3.2-.6.2-.7 0-.2 0-.3-.1-.6-.2-.4-.5-.6-.7-.7-.1-.1-.3-.1-.5-.2-.1 0-.1 0-.1 0-.1.1 0 .3.1.4 0 0 .2.4.2 1 0 .5-.2 1-.7 1.3-.1 0-.2.1-.4.1-.3 0-.4-.3-.6-.5-.5-.7-1.6-.7-1.9-.8-.3 0-.7 0-1.1.2-.3 0-.4.1-.4.1z" fill="none" stroke="#000" stroke-miterlimit="10" stroke-width=".216"/><path d="m26 14c.5.1 1.3.5 1.9 1.1.3.3.5.7.5 1v.1c0 .1 0 .3-.1.6s-.4.4-.5.4c-.4.2-.6 0-.9.1-.4.2-.6.7-.6.7-.1.2-.1.3-.2.5-.1.1-.2.2-.3.3-.2.1-.5-.2-.5-.1-.1.1 0 .3.2.5.2.4.2.6.3 1 .1.5.1.8.1.9-.1.3-.2.4-.2.5-.1.1-.3.2-.3.2-.1 0-.3.1-.6.1-.4 0-.7-.2-.8-.3-.2-.2-.4-.3-.6-.6-.5-.5-.8-.9-1.1-1.3-.1-.1-.1-.4-.1-.6.1-.6.7-.9 1-1.1.6-.4 1-.3 1.4-.8.1-.1.2-.3.2-.3 0-.1-.1-.2-.2-.3-.2-.3-.3-.4-.3-.4-.2-.4-.1-.7-.1-.8 0-.2 0-.3.2-.4s.5.2.7.4.4.5.5.6.1.2.1.3c.1.2 0 .4.1.6 0 .1.1.2.2.2.2.1.4-.2.5-.3s.3-.3.3-.6c0-.1 0-.2 0-.3 0 0 0-.1-.1-.3 0 0 0 0 0-.1s-.1-.1 0-.2c0 0 0-.1.1-.1 0 0 0-.1.1-.2 0-.1 0-.2-.2-.5-.5-.2-.6-.4-.7-.5z" fill="none" stroke="#000" stroke-miterlimit="10" stroke-width=".36"/><path d="m18 29.8c.3 0 1 0 1.6-.5.2-.1.7-.5.7-1.2 0-.4-.1-1-.5-1.2-.5-.2-.8.6-1.7.8-1.3.3-2.4-1-2.8-.6-.2.2-.1.6 0 .8.2 1 1.5 1.9 2.7 1.9z" fill="#c2bfbf" stroke="#1a1818" stroke-miterlimit="10" stroke-width=".216"/><path d="m12.4 10.5c0 .1.1.2.1.3.1.3.4.9.9 1.3.6.4 1.3.3 1.7.3.6-.1 1-.4 1.1-.4.2-.1.4-.3.5-.6 0-.1 0-.1.1-.4 0-.2.1-.4.1-.6-.3.1-.8.2-1.4.3s-1.1.1-1.4.1c-.5-.1-1.1-.2-1.7-.3z" fill="none" stroke="#000" stroke-miterlimit="10" stroke-width=".216"/><path d="m5.1 15.1c-.9.9-1.3 1.7-1.6 2.3s-.3 1.2-.4 1.4c-.1.5-.2 1.3 0 2.3.3 1.8 1.5 2.9 2 3.4.6.6 1.2 1 1.6 1.2.8-.7 1.6-1.3 2.4-2-1.1-.4-1.8-.9-2.2-1.3-.4-.3-.8-.7-1.1-1.4-.2-.3-.5-1.1-.3-2.2.2-.9.7-1.4.9-1.7.6-.6 1.3-.9 1.7-1 0 0 .1 0 .1-.1.3-.2.4-.2.6-.3 0 0 .1-.1.1-.3s-.2-.5-.4-.6-.3 0-.6.1c0 0-.4.1-.7 0-.2 0-.6-.1-1.1-.5-.1 0-.3 0-.5.1s-.4.2-.5.3c.1.3.1.3 0 .3z" fill="none" stroke="#000" stroke-miterlimit="10" stroke-width=".216"/><path d="m6.9 22.3c.3.3.7.6 1.1 1 .2.2.5.3.7.4" fill="none" stroke="#000" stroke-miterlimit="10" stroke-width=".216"/><path d="m13.6 26.7c2.8-2.2 4.4-3.3 5.7-4.3.8-.7 1.8-1.4 2.9-2.3" fill="none" stroke="#010101" stroke-miterlimit="10" stroke-width=".2842"/><path d="m22.3 13.7c-2.9 2-5.8 4.2-8.9 6.5-2.9 2.2-5.5 4.5-8 6.7-.2-.3-.5-.6-.7-.9-1.1.9-2.3 1.8-3.4 2.7.7.8 1.3 1.5 2 2.3.9 1 1.8 2.1 2.6 3.1 1.1-.9 2.2-1.7 3.3-2.6-.2-.2-.4-.5-.6-.7.5-.4 1.1-.9 1.8-1.4" fill="none" stroke="#010101" stroke-miterlimit="10" stroke-width=".2842"/></svg>