<svg enable-background="new 0 0 32.5 34.1" viewBox="0 0 32.5 34.1" xmlns="http://www.w3.org/2000/svg" xmlns:xlink="http://www.w3.org/1999/xlink"><linearGradient id="a"><stop offset=".322" stop-color="#2b292a"/><stop offset=".6468" stop-color="#ce3f13"/></linearGradient><linearGradient id="b" gradientUnits="userSpaceOnUse" x1="-1.4633" x2="9.3155" xlink:href="#a" y1="19.324" y2="19.324"/><linearGradient id="c" gradientUnits="userSpaceOnUse" x1="-1.0431" x2="11.0816" xlink:href="#a" y1="17.3529" y2="17.3529"/><path d="m5.2 5.9c-.1-.7.2-1.4.3-1.4-.1.3.5 3.1 1.5 1.4-.2.4-.4.8-.5 1.1-.3.2-1.3-.7-1.3-1.1zm6.3 22v.3c-.1-.1-.2-.2 0-.3zm-4.4-11.2h.2c.6 1.6 1.3 3.5 2.1 5.1-.3-.1-.6-.1-.9-.2-.8-1-1.7-3.8-1.6-5 .1 0 .2.1.2.1zm6.4 11.6c-.4-.2-1.1.2-1.7.6.1 0 .2-.6 0-.7.5.2 1.6-1.1 1.4-1.5.1-.1 0 0 0 0 .6 1.7 1 2.3.3 1.6zm5.9-7.7c-5.1 4.9-8.9 6.5.9-1.1.2-.5.7-.6 1.1-1 .1-.4 1.6-1.7 1.9-1.7-1.6.9-4 3.9-3.9 3.8zm6.9-3.3c0-.1 0 0 0 0zm1.5-1.8c.1-.1.3-.2.3-.2-.1 0-.2.2-.3.2z" fill="url(#b)"/><path d="m30.7 9.9c-1.1-1.4-1.8-2.4-2.8-2.3-.3 0-.3.1-1.8 1.2-1.1.7-1.8 1.1-1.7 1.4 0 .1.1.1.4.4.2.2.4.3.4.4-.3.3-.7.5-1.1.7-1.8-1.6-3.3-.7-2.5.8-.1 0-.3 0-.4.1-.3.1-.3.4-.4.5-.3-.4-1-1-2-1.5s-1.9-.5-2.4-.5c0-.1 0-.4-.1-.4 12-3.7-.8-15.8-9.3-6.9-2.2-.8-2.8 3.3-.5 3.5-.2 2 2.7 3.1 5.1 3.6-.9 0-2.2.2-3.2.7-2.8-.2-5 1-4.1 3.6-.6.5-1.8 1.6-2.2 3.3-.6 2.6.9 5.5 3.7 7.2-.4.2-.8.7-1.1 1-.2-.3-.4-.8-.8-.8-.5-.1-.7.5-1.6 1.2-1.1 1-1.6.9-1.7 1.3-.2.7 1 1.1 2.3 2.8 1.4 1.7 1.6 2.9 2.3 2.9.5 0 .5-.6 1.7-1.5.8-.5 1.6-.9 1.6-1.3 0-.1-.1-.3-.2-.4-.1-.2-.2-.3-.3-.4.1-.1.2-.2.3-.3.2.4.4.8.7 1.1.8.9 2.2.8 3.1.5 1.6-.6 2.1-2.3 2.1-2.5 1.6 1.7 3.7 2.2 5 1.4.5-.3 1.1-.9 1.3-1.8s-.3-1.7-.4-1.9c-.1-.1-.2-.4-.5-.7-.5-.5-1-.6-1.2-1.2-.1-.2-.2-.4-.2-.5.4-.5.9-1.1 1.4-1.7.7-.8 1.5-1.5 2.1-2.1.7 1.1 1.9 1.6 2.7 1.3.5-.2.8-.8.8-.9.4-1-.1-2-.2-2 .1 0 .6 0 1.1-.4.4-.4.4-1 .4-1 .5.1 1-.1 1.2-.4.4-.5.2-1.2.2-1.2.1-.2.4-.4.6-.5h.1c.1.2.2.3.4.5 1.4-1.2 2.3-2 2.9-2.5 0 0 .1-.1.2-.2.5-1.1-.8-2.8-1.4-3.6zm-.6 4.3c-.6-.1-2.2.8-2.3 1.4-.2-.9-1.6-2.1-2.5-1.8 0-.2-.1-.6-.3-1s-.4-.6-.6-.8c.4-.3.8-.6 1.2-.9-.2-.2-.4-.5-.6-.7 1-.8 2-1.6 3-2.4.6.5 1.4 1.3 2 2.6.6 1 .9 1.9 1 2.6-.3.3-.6.6-.9 1z" fill="url(#c)"/><path d="m31.9 12.7c.1.4-.2.9-1.9 1.9 0-.2-.1-.3-.2-.4-.5-.3-1.6 1-2.1 1.5-.2-.3-.3-.5-.5-.8.9-1.4 1.9-2.9 2.9-4.2.2.2.4.6.8.9.7.7 1 .8 1 1.1z" fill="#4b7069"/><path d="m16.6 5.4c.1 0 .1-.1.2-.1 5.8 2.3-2.3 3.5-6 1.9-.8-1.9 3.7-2 5.1-2-.3.2-.8.5-1 .8.1.1 1.5-.5 1.7-.6z" fill="#e8a126"/><path d="m25.4 15.2c-2.7-1.1-2.7 1.4-4 3.3-.4.4-.8.5-1.1 1-2.6 1.7-4.6 4.9-8.1 3-.3.2-.7.6-.9.9-.2-.1-.6-.5-.8-.7 6.1-4.2 5.3-4.8 12.8-9.6.3.5 1.2 2.3 1.9 1.4-.1-.1 0 0 .2.7z" fill="#fff"/><path d="m8 23.8c-.7.5-1.4 1.2-2 1.7-3.7-2-5.5-8.4-.6-10.6.7.3 1.5.7 2.2.9-4 .9-2.6 7.6.4 8z" fill="#5d4456"/><path d="m14.2 6.5c-.7.1-2 .2-3.5-.2 1.8-1.7 10.4-1.4 3.5.2z" fill="#251d22"/><path d="m9.7 24.7c-.8.5-1.2.2-1.9.6-.4.6 0 1 .9 1-.5 4-1.9 6.8-3.3 6.8-.6 0-.7-.6-3.5-3.3-.3-.3-.8-.7-.7-1.3.1-.3.3-.4 1.2-1.1.9-.8 1.1-1.1 1.5-1 .1 0 .5.1.8.9 1.2-1.1 2.4-2.3 3.6-3.4.5-.2 1.4.5 1.4.8z" fill="#fff"/><path d="m27.8 16.1c.1.4 0 .8-.3 1-.3.3-.8.3-1.2.1.1.5-.1 1.1-.5 1.4-.5.4-1.1.1-1.2.1.7 1 .6 2.2 0 2.7-.3.3-.9.5-1.4.3-.4-.1-.7-.4-.9-.6-.5-.6-.6-1.4-.7-1.7.4-.4.9-.8 1.4-1.3.4-.3.7-.7 1-1-.2-.5-.6-1.5-.4-1.7h.2c.7.1 1.2 1.6 1.3 1.8.8-.1 1-.4 1.2-.7.4-.8-.5-1.9-.1-2.3.1-.1.2-.1.2-.1s.1 0 .1.1c.4.3.6.7.7.9.2.4.1.4.6 1z" fill="#5d4456"/><path d="m9.4 26.5c.1.1.2.1.3.2-.8-.1-3.1 1.8-3.1 2.6-.3.3-2.1 2.2-2.4 2.9-.5-.7-1.2-1.6-1.8-2.3 2.4.8 5.8-3.1 5.5-4 .4.3.9.4 1.5.6z" fill="#251d22"/><path d="m28 9.4c-.1-.1-.3-.2-.2-.4 0-.1.1-.2.2-.3 0-.1 0-.3-.1-.7-.5.4-1 .8-1.5 1.2s-1 .9-1.4 1.3c-.2-.1-.4-.2-.4-.4 0-.3.6-.5 1.6-1.2 1.2-.8 1.2-1 1.5-1.1 1.8-.4 4.4 4.6 4.2 4.8-.2.1-1-1.4-2.5-2.2-.6-.2-1-.7-1.4-1z" fill="#251d22"/><g fill="#e8a126"><path d="m30.9 11.8c-.3.1-1.3.3-2.2 1.2-.9 1-1 2.1-1.1 2.4-.2-.4-.6-.9-.9-1.2.1-.2.1-.6.1-.8.4-.4.9-1.1 1.3-2.2.4-.9.4-1.8.5-2.3.3.2.7.5 1 .9.7.7 1.1 1.4 1.3 2z"/><path d="m9.6 29c-1 .3-2 .7-2.8 1.7-1 1.2-1.1 3-1.6 2.9-.1 0-.1-.1-.6-.7-.2-.3-.4-.5-.5-.6 1.1-.9 2-2.5 3.4-2.8.1-.8.7-2 1.4-1.8 0 .4.2.8.7 1.3z"/><path d="m10.6 27.9c-.2-.1-1.2-.5-1.6-.1.1-.1.3-.2.5-.5s.2-.5.2-.6c.1.1.4.3.6.6.2.2.3.4.3.6z"/><path d="m20.3 18.7c-1.4 2.2-4.3 5.2-6.8 6.9.8-3.2 5-4.4 6.8-6.9z"/></g><path d="m24.8 13.8c0 .1 0 .6-.2.7-.3.1-.9-.9-1.4-1.7-.5.4-1.1.9-1.6 1.2-1-.5-.3-1.6.3-1.1 0-.1-.5-1.4 0-1.7.1-.1.2-.1.4-.1 1 0 2.5 1.3 2.5 2.7z" fill="#5d4456"/><path d="m11.9 10.9c1.3.2 2.7.2 4.1-.1.3 2.3-3.8 2.2-4.1.1z" fill="#251d22"/><path d="m7.1 5.7c-.2.5-.5 1-.7 1-.5-.4-1.1-.7-1-1.6.1-1.6 2.2-1.4 1.9 0-.8-.5-1.5.5-.8.9z" fill="#5d4456"/><path d="m11.3 24.4c-.6 1-1.4-.5-2.1-.6-1.1-.3-1.6-.1-1.7-1 0 0 0 .4-.1.2-.5-1 1.2-1.5 1.6-1.2 1 .3 1.1 1.2 1.9 1.6.3.1.7.6.4 1z" fill="#5d4456"/><path d="m12.4 12.3c-.6.3-2.2.4-2.9.2-.1-.2-.6-.7-.9-.7.7-.4 2.2-.7 3-.6.1.3.5.9.8 1.1z" fill="#5d4456"/><path d="m9.1 28.9c0 .2.2.5.5.7.1 0 .2.1.5.2s1 .3 1.7 0c.2-.1.5-.2.7-.4.3-.3.3-.6.4-.6s.3.5.1.9c-.1.5-.5.7-.8.8-.2.1-1.4.7-2.4.2-.2-.1-.5-.3-.7-.7-.3-.5-.1-1 0-1.1z" fill="#ce3f13"/><path d="m7.2 4.8c0 .1 0 .1.1.2-.3.7-.3 1.2-.9 1.6-.3-.2-.3-1.4-.1-1.7.1.2.9-.2.8-.4.1.1.1.2.1.3z" fill="#1a4ddf"/><path d="m8.1 31.1c.1.7-2.2 1.8-2.4 1.5-.1-.1.1-.7 1.8-2.3.1.1.3.2.4.4.1.1.2.3.2.4z" fill="#4b7069"/><path d="m30.8 13.3c.1.2.1.3.2.5-.7.5-1.3 1.1-2 1.6-.2-.2-.4-.4-.6-.6 0-.1 0-.2 0-.3 0 .3.4.2.3-.1.7-.3 1.4-.7 2.1-1.1z" fill="#4b7069"/><path d="m12.9 12.5c-.7.4-2.4.5-3.2.3-.1-.1-.1-.2-.1-.3-.1-.1-.2-.2-.2-.2.8-.1 2-.2 2.9-.1.1.1.3.2.6.3z" fill="#1a4ddf"/><path d="m9.2 15.3c0 .2-1.3 1.2-2 1.1.3-.2.6-.4 1-.6-.8-.4-1.8-.8-2.7-1.2-.3.2-.6.3-.9.5-1.4-4.4 7.2-4.6 4.6.2z" fill="#251d22"/><path d="m9.3 5.7s-.1 0-.2 0z" fill="#186a89"/><path d="m17.9 3.7h.1s0 0-.1 0z" fill="#186a89"/><path d="m16.2 5.8c-.8 1.4-3.9 2.3-5.3 1.5-2-1.8 4.7-2.4 4.8-1.5.1 0 .2-.1.2-.2.1 0 .1 0 .2.1.1 0 .1.1.1.1z" fill="#e8a126"/><path d="m11.2 7c-.1 0-.1 0 0 0 0-.2 6.8-.8 4.4-1.3-1.2-.5-2.6.1-3.8.1 1.1-.4 2.7-.6 3.8-.4h-.1c3.6 1.4-2.9 1.3-4.3 1.6z" fill="#1a4ddf"/><path d="m15.7 12.3c-.4 2.1-.8 4.3-1.1 6.5-.1.1-.2.1-.2.2-.7-1.1-.9-5-.2-6.2.5 0 1-.2 1.5-.5z" fill="#5d4456"/><path d="m18.5 16.1c.2-.1.7-.5 1.4-1 .5-.4 1-.7 1.3-.8-.2-.4-.8-1.4-2-2.1-1.3-.8-2.5-.8-2.9-.8 0 .4-.7 1.2-1 1.2-.3 2.1-.7 4.6-1.2 6.7 1.2-.6 3-2.2 4.4-3.2z" fill="#ffee5b"/><path d="m13.3 26.4c.1.4-.9 1.7-1.4 1.7.5 1.6-1.9 1.5-2.4.7-.1.1-.1.2-.2.2.3.8 3.2 1 3.5-.7.1.1.5.6.4 1.1-.1.6-.5.9-.9 1.1-.2.1-.6.4-1.1.5-.3.1-1 .2-1.5-.2-.1-.1-.3-.2-.5-.6-.4-.7-.2-1.5-.2-1.5-.1 0-.6 1.1 0 2 .2.3.5.5.6.6.8.5 1.9.3 2.7 0 1-.5 1.9-1.7 1.8-2.7 0-.3-.1-.4-.6-1.8-.2-.1-.2-.2-.2-.4z" fill="#ffee5b"/><path d="m12.1 7.4c-.2.2-.4.3-.6.5-.2 0-.3 0-.5 0-.7-2.4-1-.8-.5.1.3.8 1.6.2 1.6-.6z" fill="#ffee5b"/><path d="m18.8 7c.2-.6-2.7-2.5-3.1-1.5.1.2 1.5.3 1.7.4.9.7-.5 1.2-1 .7-1.6 1-4 .7-5.6.6 0 .1.1.1.2.2 6.2.4 7.8.1 7.8-.4z" fill="#ffee5b"/><path d="m20.1 3.5c-.4.2-.7.6-1.1 1-.3.4-.7.8-1.2 1-.8-.5-2.5-.6-4.1-.5s-3 .6-3.3 1.2c-.9-.2-2-.4-3-.5.1-.3.1-.7.1-1s-.1-.6-.3-.8c0-.1.7-.2 2.7-.3 1 0 2.3-.1 4-.1s3.7 0 6.2 0z" fill="#4b7069"/><path d="m13.3 2.3c1-.1 2.1-.1 3.2 0 .8.1 1.6.2 2.5.4v.3c-.2 0-.4 0-.5.1-.1 0-.2.1-.2.1-.3.2-.7.3-1.2.4-.9-.3-2.4-.3-3.8 0-1.3.3-2.3.7-2.9 1.1-.1.1-.1.1-.2.2-.6.1-1.4.1-2.2-.1-.2 0-.4-.1-.5-.1.1-.2.5-.7.9-1.1 0-.2.1-.4 0-.5.2-.2.7-.3 1.9-.4.8-.2 1.8-.3 3-.4z" fill="#4b7069"/><path d="m17.6 1.8c-.6-.1-2.6-.4-4.9.3-1.1.4-1.8.8-2.5 1.2-.7.3-1.3.5-2.2.4-.2 0-.4-.1-.5-.1.3-.3.9-.8 1.7-1.4.9-.5 2.1-1.1 3.5-1.3 1-.2 2-.2 2.9-.1s1.8.5 2.5 1c-.1.1-.3 0-.5 0z" fill="#4b7069"/><path d="m20.3 7.9c-.5.8-1.2 1.2-1.8 1.6-1.1.7-2 .9-2.6 1-.4.1-1.9.5-3.9.2-.5-.1-1.9-.3-3.3-1-1.3-.5-1.7-1-1.9-1.5-.1-.4-.2-.7-.2-.9.7-.7 2-2.1 4.2-2.4 1.8-.3 3.8-.2 5.7-.1-.2.1-.3.2-.4.2-1.7-.3-5.4.4-5.6 1.3-1.7 3.9 14.4 2.3 6.5-1.1.9-.4 2-.9 2.9-1.3.2.2.8.7 1 1.5.3 1.1-.3 2.1-.6 2.5z" fill="#e8a126"/><path d="m19.9 3.9c.2.2.8.7 1 1.5.3 1.1-.3 2-.6 2.5-.5.8-1.2 1.2-1.8 1.6-1.1.7-2 .9-2.6 1-.2 0-.5.1-1.1.2-.7.1-1.7.1-2.8 0-.5-.1-1.9-.3-3.3-1-1.3-.6-1.7-1.1-1.9-1.6-.1-.3-.2-.6-.2-.8.7-.7 2-2.1 4.2-2.4 1.7-.3 3.7-.2 5.7-.1-.1.1-.3.2-.4.2-1.6-.3-5.4.4-5.6 1.2-1.7 3.9 14.3 2.4 6.5-1 .2-.1.5-.2.7-.3.8-.4 1.5-.7 2.2-1z" fill="#e7a027"/><path d="m19.9 3.9c.2.2.8.7 1 1.5.3 1.1-.3 2-.6 2.5-.5.8-1.2 1.2-1.8 1.6-1.1.7-2 .9-2.6 1-.2 0-.5.1-1.1.2-.7.1-1.7.1-2.8 0-.6-.1-1.9-.3-3.3-.9-1.3-.7-1.7-1.2-1.9-1.7-.1-.3-.2-.6-.2-.8.7-.7 2-2 4.2-2.4 1.7-.3 3.7-.2 5.6-.1-.1 0-.2.1-.4.2-1.6-.3-5.3.4-5.5 1.2-1.6 3.9 14.3 2.3 6.5-1 .2-.1.5-.2.7-.3.8-.4 1.5-.7 2.2-1z" fill="#e5a029"/><path d="m19.9 3.9c.2.2.8.7 1 1.5.3 1.1-.3 2-.6 2.4-.5.8-1.2 1.2-1.8 1.6-1.1.6-2 .9-2.6 1-.2 0-.5.1-1.1.2-.7.1-1.7.1-2.8 0-.6-.1-1.9-.3-3.3-.9-1.3-.6-1.7-1.1-1.9-1.6-.1-.3-.2-.6-.2-.8.7-.6 2-2 4.2-2.4 1.7-.3 3.7-.2 5.6-.1-.1 0-.3.1-.4.2-1.6-.3-5.3.4-5.5 1.2-1.6 3.8 14.2 2.3 6.6-1 .2-.1.5-.2.7-.3.7-.4 1.4-.7 2.1-1z" fill="#e49f2a"/><path d="m19.9 3.9c.2.2.8.7 1 1.4.3 1.1-.3 2-.6 2.4-.5.8-1.2 1.2-1.8 1.6-1.1.6-2 .9-2.6 1-.2 0-.5.1-1.1.2-.7.1-1.7.1-2.8 0-.6-.1-1.9-.2-3.3-.9-1.3-.5-1.7-1-1.9-1.5-.1-.4-.2-.7-.2-.9.7-.6 2-2 4.1-2.4 1.7-.3 3.7-.2 5.6-.1-.1.1-.2.2-.3.3-1.6-.3-5.2.4-5.4 1.2-1.6 3.8 14.1 2.3 6.5-1.1.2-.1.5-.2.7-.3.7-.3 1.4-.6 2.1-.9z" fill="#e29f2b"/><path d="m19.9 3.9c.2.2.8.7 1 1.4.3 1.1-.3 2-.5 2.4-.5.8-1.2 1.2-1.8 1.6-1.1.6-2 .9-2.6 1-.2 0-.5.1-1.1.2-.7.1-1.7.1-2.8 0-.6-.1-1.9-.2-3.3-.9-1.4-.5-1.8-1-2-1.5-.1-.4-.1-.7-.2-.9.7-.6 2-2 4.1-2.3 1.7-.3 3.7-.2 5.6-.1-.1.1-.3.2-.4.2-1.6-.3-5.2.4-5.4 1.2-1.5 3.7 14.1 2.2 6.6-1.1.2-.1.5-.2.7-.3.7-.3 1.4-.6 2.1-.9z" fill="#e19e2c"/><path d="m19.9 3.9c.2.2.8.7.9 1.4.3 1.1-.3 2-.5 2.4-.5.8-1.2 1.2-1.8 1.6-1.1.6-2 .9-2.6 1-.2 0-.5.1-1.1.2-.7.1-1.7.1-2.8 0-.6-.1-1.9-.2-3.3-.9-1.3-.6-1.7-1.1-1.9-1.6-.1-.3-.1-.6-.1-.8.7-.6 2-2 4.1-2.3 1.7-.3 3.7-.2 5.5-.1-.1 0-.3.1-.4.2-1.6-.3-5.1.4-5.3 1.2-1.5 3.7 14 2.2 6.5-1.1.2-.1.5-.2.7-.3.7-.3 1.4-.6 2.1-.9z" fill="#e09e2e"/><path d="m19.9 3.9c.2.2.7.7.9 1.4.3 1.1-.3 2-.5 2.4-.5.8-1.2 1.2-1.9 1.6-1.1.6-2 .9-2.6 1-.2 0-.5.1-1.1.2-.7.1-1.7.1-2.8 0-.6-.1-1.9-.2-3.3-.9-1.2-.6-1.6-1.1-1.8-1.6-.1-.3-.1-.6-.1-.8.7-.6 2-2 4.1-2.3 1.7-.3 3.6-.2 5.5-.1-.2 0-.3.1-.4.2-1.5-.3-5.1.4-5.3 1.2-1.5 3.7 13.9 2.2 6.5-1.1.2-.1.5-.2.7-.3.7-.3 1.4-.6 2.1-.9z" fill="#de9d2f"/><path d="m19.9 3.9c.2.2.7.7.9 1.4.3 1.1-.3 2-.5 2.4-.5.8-1.2 1.2-1.9 1.5-1.1.6-2 .9-2.6 1-.2 0-.5.1-1.1.2-.7.1-1.7.1-2.8 0-.6-.1-1.9-.2-3.3-.9-1.2-.5-1.6-1-1.8-1.5-.1-.3-.1-.6-.1-.8.7-.6 2-2 4.1-2.3 1.7-.3 3.6-.2 5.5-.1-.2 0-.3.1-.4.2-1.5-.3-5 .4-5.2 1.2-1.5 3.6 13.8 2.2 6.5-1.1.2-.1.5-.2.7-.3.6-.3 1.3-.6 2-.9z" fill="#dd9c30"/><path d="m19.9 3.9c.2.2.7.7.9 1.4.3 1.1-.3 1.9-.5 2.4-.5.8-1.2 1.2-1.9 1.5-1.1.6-2 .9-2.6 1-.2 0-.5.1-1.1.2-.7.1-1.7.1-2.8 0-.6-.1-1.9-.2-3.3-.9-1.2-.5-1.6-1-1.8-1.5-.1-.3-.1-.6-.1-.8.7-.6 2-1.9 4.1-2.3 1.7-.3 3.6-.2 5.5-.1-.1.1-.3.2-.4.2-1.5-.3-5 .4-5.2 1.2-1.4 3.6 13.8 2.1 6.5-1.1.2-.1.5-.2.7-.3.6-.3 1.3-.6 2-.9z" fill="#db9c31"/><path d="m19.9 3.9c.2.2.7.7.9 1.4.3 1.1-.3 1.9-.5 2.3-.5.8-1.2 1.2-1.9 1.5-1.1.6-2 .8-2.6 1-.2 0-.5.1-1.1.2-.7.1-1.7.1-2.8 0-.6-.1-1.9-.2-3.3-.8-1.2-.5-1.6-1-1.8-1.5-.1-.4-.1-.6-.1-.9.7-.6 2-1.9 4-2.3 1.7-.3 3.6-.2 5.4-.1-.1.1-.2.2-.3.3-1.5-.3-4.9.4-5.1 1.1-1.4 3.6 13.7 2.2 6.5-1.1.2-.1.4-.2.7-.3.6-.3 1.3-.5 2-.8z" fill="#da9b33"/><path d="m19.9 3.9c.2.2.7.6.9 1.4.3 1-.3 1.9-.5 2.3-.5.8-1.2 1.2-1.9 1.5-1.1.6-2 .8-2.6 1-.2 0-.5.1-1.1.2-.7.1-1.7.1-2.8 0-.6-.1-1.9-.2-3.3-.8-1.2-.6-1.6-1.1-1.8-1.6-.1-.3-.1-.6-.1-.8.7-.6 2-1.9 4-2.2 1.7-.3 3.6-.2 5.4-.1-.1 0-.2.1-.3.2-1.5-.3-4.9.4-5 1.1-1.5 3.6 13.5 2.1 6.4-1.1.2-.1.4-.2.7-.3.6-.3 1.3-.5 2-.8z" fill="#d99b34"/><path d="m19.9 3.9c.2.2.7.6.9 1.4.3 1-.3 1.9-.5 2.3-.5.8-1.2 1.1-1.9 1.5-1.1.6-2 .8-2.6 1-.2 0-.6.1-1.1.2-.7.1-1.7.1-2.8 0-.6-.1-1.9-.2-3.3-.8-1.2-.6-1.6-1.1-1.8-1.6-.1-.3-.1-.6-.1-.8.7-.6 2-1.9 4-2.2 1.7-.3 3.6-.2 5.4-.1-.1 0-.3.1-.4.2-1.5-.3-4.8.4-5 1.1-1.3 3.5 13.6 2.1 6.5-1.1.2-.1.4-.2.7-.3.6-.3 1.4-.6 2-.8z" fill="#d79a35"/><path d="m19.9 3.9c.2.2.7.6.9 1.4.3 1-.3 1.9-.5 2.3-.5.8-1.2 1.1-1.9 1.5-1.1.6-2 .8-2.6 1-.2 0-.6.1-1.1.2-.7.1-1.7.1-2.8 0-.6-.1-1.9-.2-3.3-.8-1.2-.6-1.6-1.1-1.7-1.6-.2-.3-.2-.6-.2-.8.7-.6 2-1.9 4-2.2 1.7-.3 3.5-.2 5.4-.1-.1.1-.2.2-.4.2-1.4-.3-4.8.4-4.9 1.1-1.4 3.5 13.4 2.1 6.4-1.1.2-.1.4-.2.7-.3.6-.3 1.4-.6 2-.8z" fill="#d69a36"/><path d="m19.9 3.9c.2.2.7.6.9 1.4.3 1-.3 1.9-.5 2.3-.5.8-1.2 1.1-1.9 1.5-1.1.6-2 .8-2.6 1-.2 0-.6.1-1.1.2-.7.1-1.7.1-2.9 0-.6 0-1.9-.2-3.3-.8-1.1-.6-1.5-1.1-1.6-1.6-.2-.3-.2-.6-.2-.8.7-.6 2-1.9 4-2.2 1.7-.3 3.5-.2 5.3-.1-.1.1-.2.2-.4.2-1.4-.3-4.8.3-4.9 1.1-1.3 3.5 13.4 2 6.4-1.1.2-.1.4-.2.7-.3.8-.3 1.5-.6 2.1-.8z" fill="#d49938"/><path d="m19.9 3.9c.2.2.7.6.9 1.4.3 1-.3 1.9-.5 2.3-.6.7-1.2 1.1-1.9 1.5-1.1.6-2 .8-2.6 1-.2 0-.6.1-1.1.2-.7.1-1.7.1-2.9 0-.6 0-1.9-.2-3.3-.8-1.1-.5-1.5-1-1.7-1.5-.1-.4-.1-.7-.1-.9.7-.6 2-1.9 4-2.2 1.6-.3 3.5-.2 5.3-.1-.1.1-.2.2-.3.2-1.4-.3-4.7.3-4.8 1.1-1.3 3.4 13.3 2 6.4-1.1.2-.1.4-.2.7-.3.6-.3 1.3-.6 1.9-.8z" fill="#d39839"/><path d="m19.9 3.9c.2.2.7.6.9 1.4.3 1-.3 1.9-.5 2.3-.6.7-1.2 1.1-1.9 1.5-1.1.6-2 .8-2.7 1-.2 0-.6.1-1.1.2-.7.1-1.7.1-2.9 0-.6 0-1.9-.2-3.3-.8-1.1-.5-1.5-1-1.7-1.5 0-.5 0-.7 0-.9.7-.6 2-1.8 3.9-2.2 1.6-.3 3.5-.2 5.3-.1-.1.1-.2.2-.3.2-1.4-.3-4.7.3-4.8 1.1-1.3 3.4 13.3 2 6.4-1.1.2-.1.4-.2.7-.3.7-.3 1.4-.6 2-.8z" fill="#d2983a"/><path d="m19.9 3.9c.2.2.7.6.9 1.3.3 1-.3 1.9-.5 2.2-.6.7-1.2 1.1-1.9 1.5-1.1.6-2 .8-2.7 1-.2 0-.6.1-1.1.2-.7.1-1.7.1-2.9.1-.6 0-1.9-.2-3.3-.8-1.1-.5-1.5-1-1.7-1.5 0-.4 0-.7 0-.9.7-.6 1.9-1.8 3.9-2.1 1.6-.3 3.5-.2 5.3-.1-.1.1-.2.2-.3.2-1.4-.3-4.6.3-4.7 1-1.3 3.4 13.1 2 6.4-1.1.2-.1.4-.2.7-.3.6-.2 1.3-.5 1.9-.7z" fill="#d0973b"/><path d="m19.9 3.9c.2.2.7.6.9 1.3.3 1-.2 1.8-.5 2.2-.6.7-1.3 1.1-1.9 1.5-1.1.6-2 .8-2.7 1-.2 0-.6.1-1.1.2-.7.1-1.7.1-2.9.1-.6 0-1.9-.2-3.3-.8-1.1-.5-1.5-1-1.6-1.5 0-.4-.1-.7-.1-.9.7-.6 1.9-1.8 3.9-2.1 1.6-.3 3.5-.2 5.3-.1-.1.1-.2.2-.3.2-1.4-.3-4.6.3-4.7 1-1.2 3.4 13.1 2 6.4-1.1.2-.1.4-.2.7-.3.6-.2 1.3-.5 1.9-.7z" fill="#cf973d"/><path d="m19.9 3.9c.2.2.7.6.9 1.3.3 1-.2 1.8-.5 2.2-.6.7-1.3 1.1-1.9 1.4-1.1.6-2 .8-2.7.9-.2 0-.6.1-1.1.2-.6.2-1.6.2-2.7.1-.6 0-1.9-.2-3.4-.7-1.1-.5-1.4-1-1.6-1.5-.1-.3-.2-.6-.2-.8.7-.6 1.9-1.8 3.9-2.1 1.6-.3 3.5-.2 5.2-.1-.1.1-.2.2-.3.2-1.3-.3-4.5.3-4.6 1-1.2 3.3 13 1.9 6.4-1.1.2-.1.4-.2.7-.3.6-.3 1.3-.5 1.9-.7z" fill="#cd963e"/><path d="m19.9 3.9c.2.2.7.6.9 1.3.3 1-.2 1.8-.5 2.2-.6.7-1.3 1.1-1.9 1.4-1.1.6-2 .8-2.7.9-.2 0-.6.1-1.1.2-.6.1-1.6.2-2.8.1-.6 0-1.9-.2-3.4-.7-1.1-.5-1.4-1-1.6-1.5 0-.3-.1-.6-.1-.8.7-.6 1.9-1.8 3.9-2.1 1.6-.2 3.4-.2 5.2-.1-.1.1-.2.2-.3.2-1.3-.3-4.5.3-4.6 1-1.2 3.3 13 1.9 6.4-1.1.2-.1.4-.2.6-.3.7-.3 1.4-.5 2-.7z" fill="#cc963f"/><path d="m19.9 3.9c.2.2.7.6.9 1.3.3 1-.2 1.8-.5 2.2-.6.7-1.3 1.1-1.9 1.4-1.1.6-2 .8-2.7.9-.2 0-.6.1-1.1.2-.7.1-1.6.1-2.8.1-.6 0-1.9-.2-3.4-.7-1.1-.5-1.4-1-1.6-1.5 0-.3-.1-.6-.1-.8.7-.6 1.9-1.8 3.9-2.1 1.6-.2 3.4-.2 5.2-.1-.1.1-.2.2-.3.2-1.3-.3-4.4.3-4.5 1-1.1 3.3 12.9 1.9 6.3-1.1.2-.1.4-.2.6-.3.7-.3 1.4-.5 2-.7z" fill="#cb9540"/><path d="m19.9 3.9c.2.2.7.6.9 1.3.3 1-.2 1.8-.4 2.2-.6.7-1.3 1.1-1.9 1.4-1.1.6-2 .8-2.7.9-.2 0-.6.1-1.1.2-.8.1-1.7.1-2.9 0-.6 0-1.9-.2-3.4-.7-1-.5-1.4-1-1.6-1.5 0-.3-.1-.5-.1-.7.7-.6 1.9-1.8 3.9-2.1 1.6-.2 3.4-.2 5.2-.1-.1.1-.2.2-.3.2-1.3-.3-4.4.3-4.5 1-1.1 3.2 12.8 1.8 6.3-1.1.2-.1.4-.2.6-.3.7-.3 1.4-.5 2-.7z" fill="#c99442"/><path d="m19.9 3.9c.2.2.7.6.9 1.3.3 1-.2 1.8-.4 2.2-.6.7-1.3 1.1-1.9 1.4-1.1.6-2 .8-2.7.9-.2 0-.6.1-1.1.2-.8.1-1.7.1-2.9.1-.7 0-1.9-.1-3.4-.7-1-.5-1.4-1-1.6-1.5 0-.4 0-.7 0-.8.7-.6 1.9-1.7 3.8-2 1.6-.2 3.4-.2 5.1-.1-.1.1-.2.1-.3.2-1.3-.3-4.3.3-4.4 1-1.1 3.2 12.7 1.8 6.3-1.1.2-.1.4-.2.6-.3.7-.4 1.4-.6 2-.8z" fill="#c89443"/><path d="m19.9 3.8c.2.2.7.6.9 1.3.3 1-.2 1.8-.4 2.1-.6.7-1.3 1.1-1.9 1.4-1.1.6-2 .8-2.7.9-.2 0-.6.1-1.1.2-.8.1-1.7.1-2.9.1-.7 0-1.9-.1-3.4-.7-1-.5-1.4-1-1.6-1.5 0-.2 0-.5 0-.7.7-.5 1.9-1.7 3.8-2 1.6-.2 3.4-.2 5.1-.1-.1.1-.2.1-.3.2-1.3-.3-4.3.3-4.3 1-1.1 3.1 12.6 1.8 6.3-1.2.2-.1.4-.2.6-.3.6-.2 1.3-.4 1.9-.7z" fill="#c69344"/><path d="m19.9 3.8c.2.2.7.6.9 1.3.3 1-.2 1.8-.4 2.1-.6.7-1.3 1-1.9 1.4-1.1.6-2 .8-2.7.9-.2 0-.6.1-1.1.2-.8.1-1.7.1-2.9.1-.7 0-1.9-.1-3.4-.7-1-.5-1.4-1-1.5-1.5-.1-.2-.1-.5-.1-.7.7-.5 1.9-1.7 3.8-2 1.6-.2 3.4-.2 5.1-.1-.1.1-.2.1-.3.2-1.2-.3-4.2.3-4.3 1-1.1 3.1 12.6 1.7 6.3-1.2.2-.1.4-.2.6-.3.6-.2 1.3-.5 1.9-.7z" fill="#c59345"/><path d="m19.9 3.8c.2.2.7.6.8 1.3.2.9-.2 1.7-.4 2.1-.6.7-1.3 1-1.9 1.4-1.1.5-2 .8-2.7.9-.2 0-.6.1-1.1.2-.8.1-1.7.1-2.9.1-.7 0-2-.1-3.4-.7-1-.5-1.4-1-1.5-1.5 0-.2 0-.5 0-.7.7-.5 1.9-1.7 3.8-2 1.6-.2 3.3-.2 5.1-.1-.1.1-.2.1-.3.2-1.2-.3-4.2.3-4.2 1-1 3.1 12.5 1.8 6.3-1.2.2-.1.4-.2.6-.3.5-.2 1.2-.5 1.8-.7z" fill="#c49247"/><path d="m19.9 3.8c.2.2.7.6.8 1.3.3.9-.1 1.7-.3 2.1-.6.7-1.3 1-2 1.4-1.1.5-2 .8-2.7.9-.2 0-.6.1-1.1.2-.8.1-1.7.1-2.9.1-.7 0-2-.1-3.4-.6-1-.5-1.4-1-1.5-1.5 0-.3 0-.6 0-.8.7-.5 1.9-1.7 3.8-2 1.6-.2 3.3-.2 5-.1-.1.1-.2.1-.3.2-1.2-.3-4.1.3-4.2 1-1 3.1 12.5 1.7 6.3-1.2.2-.1.4-.2.6-.3.7-.3 1.3-.5 1.9-.7z" fill="#c29248"/><path d="m19.9 3.8c.2.2.7.6.8 1.3.3.9-.1 1.7-.3 2.1-.6.7-1.3 1-2 1.4-1.1.5-2 .8-2.7.9-.2 0-.6.1-1.1.2-.8.1-1.7.1-2.9.1-.7 0-2-.1-3.4-.6-1-.5-1.3-1-1.5-1.5 0-.4 0-.6 0-.8.7-.5 1.9-1.7 3.8-2 1.6-.2 3.3-.2 5-.1-.1.1-.2.1-.3.2-1.2-.3-4.1.3-4.1.9-1 3.1 12.4 1.7 6.3-1.2.2-.1.4-.2.6-.3.6-.2 1.2-.4 1.8-.6z" fill="#c19149"/><path d="m19.9 3.8c.2.2.7.6.8 1.2.3 1-.1 1.8-.3 2.2-.6.7-1.3 1-2 1.4-1.1.5-2 .8-2.7.9-.2 0-.6.1-1.1.2-.8.1-1.7.1-2.9.1-.7 0-2-.1-3.4-.6-1-.5-1.3-1-1.5-1.5 0-.4 0-.6 0-.8.7-.5 1.9-1.7 3.7-2 1.5-.2 3.3-.2 5-.1-.1.1-.2.1-.3.2-1.2-.3-4 .3-4.1.9-1 3 12.3 1.7 6.3-1.2.2-.1.4-.2.6-.3.7-.2 1.3-.4 1.9-.6z" fill="#bf904a"/><path d="m19.9 3.8c.2.2.7.6.8 1.2.3 1-.1 1.8-.3 2.1-.6.7-1.3 1-2 1.3-1.1.5-2 .8-2.7.9-.2 0-.6.1-1.1.2-.8.1-1.8.1-2.9.1-.7 0-2-.1-3.4-.6-1-.5-1.3-1-1.5-1.5 0-.2 0-.5 0-.6.7-.5 1.9-1.7 3.7-1.9 1.5-.2 3.3-.2 5-.1-.1.1-.2.1-.3.2-1.2-.3-4 .3-4 .9-.9 3 12.2 1.7 6.3-1.2.2-.1.4-.2.6-.3.6-.3 1.2-.5 1.8-.7z" fill="#be904c"/><path d="m19.9 3.8c.2.2.6.6.8 1.2.2.9-.2 1.7-.4 2-.6.7-1.3 1-2 1.3-1.1.5-2 .8-2.7.9-.2 0-.6.1-1.1.2-.8.1-1.8.1-2.9.1-.7 0-2-.1-3.4-.6-1-.5-1.3-1-1.5-1.5.1-.1.1-.4.1-.6.7-.5 1.9-1.6 3.7-1.9 1.5-.2 3.3-.2 4.9-.1-.1.1-.2.1-.3.2-1.1-.3-3.9.3-4 .9-.9 3 12.2 1.6 6.2-1.2.2-.1.4-.2.6-.3.8-.2 1.4-.4 2-.6z" fill="#bd8f4d"/><path d="m19.9 3.8c.3.2.7.6.9 1.2.2.9-.2 1.7-.4 2-.6.7-1.3 1-2 1.3-1.1.5-2 .8-2.7.9-.2 0-.6.1-1.1.2-.8.1-1.8.1-2.9.1-.7 0-2-.1-3.4-.6-1-.5-1.3-1-1.5-1.5 0-.1 0-.4 0-.6.7-.5 1.9-1.6 3.7-1.9 1.5-.2 3.2-.2 4.9-.1-.1.1-.2.1-.3.2-1.1-.3-3.9.3-3.9.9-.9 2.9 12.1 1.6 6.2-1.2.2-.1.4-.2.6-.3.7-.2 1.3-.4 1.9-.6z" fill="#bb8f4e"/><path d="m19.9 3.8c.2.2.7.6.9 1.2.2.9-.2 1.7-.4 2-.6.7-1.3 1-2 1.3-1.1.5-2 .7-2.7.9-.2 0-.6.1-1.1.2-.8.1-1.8.1-2.9.1-.7 0-2-.1-3.4-.6-1-.5-1.3-1-1.4-1.5-.1-.2-.1-.4-.1-.6.7-.5 1.9-1.6 3.7-1.9 1.5-.2 3.2-.2 4.9-.1-.1.1-.2.1-.3.2-1.1-.3-3.9.3-3.9.9-.9 2.9 12 1.6 6.2-1.2.2-.1.4-.2.6-.3.7-.2 1.3-.4 1.9-.6z" fill="#ba8e50"/><path d="m19.9 3.8c.2.2.7.6.8 1.2.2.9-.2 1.7-.4 2-.6.7-1.3 1-2 1.3-1.1.5-2 .7-2.7.9-.2 0-.6.1-1.1.2-.8.1-1.8.1-2.9.1-.7 0-2-.1-3.4-.6-1-.5-1.3-1-1.4-1.5 0-.2 0-.4 0-.6.7-.5 1.9-1.6 3.7-1.9 1.5-.2 3.2-.2 4.9-.1-.1.1-.2.1-.3.2-1.1-.3-3.8.3-3.8.9-.8 2.9 11.9 1.6 6.2-1.2.2-.1.4-.2.6-.3.6-.2 1.2-.4 1.8-.6z" fill="#b88e51"/><path d="m19.9 3.9c.2.2.6.6.8 1.2.2.9-.2 1.6-.4 2-.6.6-1.3 1-2 1.3-1.1.5-2 .7-2.7.9-.2 0-.6.1-1.1.2-.8.1-1.8.1-2.9.1-.7 0-2-.1-3.4-.5-.8-.6-1.1-1.1-1.3-1.6 0-.2-.1-.5-.1-.7.7-.5 1.9-1.6 3.7-1.8 1.5-.2 3.2-.2 4.8-.1-.1 0-.2.1-.2.1-1.1-.3-3.8.3-3.8.9-.8 2.9 11.9 1.6 6.2-1.2.2-.1.4-.2.6-.3.6-.2 1.2-.4 1.8-.5z" fill="#b78d52"/><path d="m19.9 3.9c.3.1.7.5.8 1.1.2.9-.2 1.6-.4 2-.6.6-1.3 1-2 1.3-1.1.5-2 .7-2.7.9-.2 0-.6.1-1.1.2-.8.1-1.8.1-2.9.1-.7 0-2-.1-3.4-.5-.8-.5-1.1-1-1.2-1.5-.1-.3-.2-.5-.2-.7.7-.5 1.9-1.6 3.7-1.8 1.5-.2 3.2-.2 4.8-.1-.1 0-.2.1-.3.1-1.1-.2-3.7.2-3.7.8-.8 2.8 11.8 1.5 6.2-1.2.2-.1.4-.2.6-.3.6-.1 1.2-.3 1.8-.4z" fill="#b68c53"/><path d="m19.9 3.9c.3.1.7.5.8 1.1.2.9-.2 1.6-.4 2-.6.6-1.3 1-2 1.3-1.1.5-2 .7-2.7.9-.2 0-.6.1-1.1.2-.8.1-1.8.1-2.9.1-.7 0-2-.1-3.4-.5-.8-.5-1.1-1-1.2-1.5-.1-.3-.2-.5-.2-.7.7-.5 1.9-1.6 3.7-1.8 1.5-.2 3.2-.2 4.8-.1-.1 0-.2.1-.3.1-1-.2-3.7.2-3.7.8-.8 2.8 11.7 1.5 6.2-1.2.2-.1.4-.2.6-.3.6-.1 1.2-.3 1.8-.4z" fill="#b48c55"/><path d="m19.9 3.8c.3.2.7.6.8 1.2.3.9-.1 1.6-.3 2-.6.6-1.3.9-2 1.3-1.1.5-2 .7-2.7.9-.2 0-.6.1-1.1.2-.8.1-1.8.1-2.9.1-.7 0-2-.1-3.4-.5-.9-.6-1.2-1-1.3-1.5-.1-.3-.2-.5-.2-.7.7-.5 1.9-1.6 3.7-1.8 1.5-.2 3.2-.2 4.8-.2-.2.1-.2.2-.3.2-1-.2-3.6.2-3.6.8-.8 2.8 11.6 1.5 6.2-1.2.2-.1.4-.2.6-.3.5-.1 1.2-.3 1.7-.5z" fill="#b38b56"/><path d="m19.9 3.8c.3.2.7.6.8 1.2.3.9-.1 1.6-.3 2-.6.6-1.3.9-2 1.3-1 .5-2 .7-2.7.9-.2 0-.6.1-1.1.2-.8.1-1.8.2-2.9.1-.7 0-2-.1-3.4-.5-.9-.6-1.2-1.1-1.3-1.5-.1-.3-.1-.6-.1-.7.6-.5 1.8-1.6 3.5-1.8 1.5-.2 3.1-.2 4.8-.2-.1.1-.2.2-.3.2-1-.2-3.6.2-3.5.8-.7 2.8 11.6 1.5 6.2-1.2.2-.1.4-.2.6-.3.5-.1 1.2-.3 1.7-.5z" fill="#b18b57"/><path d="m19.9 3.8c.2.2.7.6.8 1.2.2.9-.2 1.6-.3 1.9-.6.6-1.3.9-2 1.3-1 .5-2 .7-2.7.9-.2 0-.6.1-1.1.2-.8.1-1.8.2-2.9.1-.7 0-2-.1-3.4-.5-.9-.5-1.2-1-1.3-1.4-.1-.3-.1-.6-.1-.7.6-.5 1.8-1.6 3.5-1.8 1.5-.2 3.1-.2 4.7-.2 0 .1-.1.2-.2.2-1-.2-3.5.2-3.5.8-.7 2.7 11.5 1.4 6.1-1.2.2-.1.4-.2.6-.3.7-.1 1.3-.3 1.8-.5z" fill="#b08a58"/><path d="m19.9 3.8c.2.2.7.6.8 1.2.2.9-.2 1.6-.3 1.9-.6.6-1.3.9-2 1.2-1 .5-2 .7-2.7.9-.2 0-.6.1-1.1.2-.8.1-1.8.2-2.9.1-.7 0-2 0-3.4-.5-.9-.4-1.2-.9-1.3-1.4-.1-.2-.1-.5-.1-.7.6-.4 1.8-1.5 3.5-1.7 1.5-.2 3.1-.2 4.7-.2-.1.1-.1.2-.2.2-1-.2-3.5.2-3.4.8-.7 2.7 11.4 1.4 6.1-1.2.2-.1.4-.2.6-.3.6-.2 1.2-.3 1.7-.5z" fill="#af8a5a"/><path d="m19.9 3.8c.2.2.7.6.8 1.2.2.8-.2 1.6-.3 1.9-.6.6-1.3.9-2 1.2-1 .5-2 .7-2.7.9-.2 0-.6.1-1.1.2-.8.1-1.8.2-2.9.1-.7 0-2 0-3.4-.5-.9-.4-1.2-.9-1.3-1.4-.1-.3-.1-.5-.1-.7.6-.4 1.8-1.5 3.5-1.7 1.5-.2 3.1-.2 4.7-.2-.1.1-.2.2-.2.2-1-.2-3.4.2-3.4.8-.6 2.7 11.4 1.4 6.1-1.2.2-.1.4-.2.6-.3.6-.2 1.2-.3 1.7-.5z" fill="#ad895b"/><path d="m19.9 3.8c.2.2.6.6.8 1.2.2.8-.2 1.5-.3 1.9-.6.6-1.3.9-2 1.2-1 .5-2 .7-2.7.8-.3.1-.7.1-1.2.2-.8.1-1.8.2-2.9.2-.7 0-2 0-3.4-.4-.8-.6-1.1-1-1.2-1.5-.1-.3-.1-.5-.1-.7.7-.4 1.8-1.5 3.5-1.7 1.4-.2 3.1-.2 4.7-.2-.1.1-.2.2-.3.2-.9-.2-3.4.2-3.3.8-.6 2.6 11.3 1.4 6.1-1.2.2-.1.4-.2.6-.3.6-.2 1.2-.3 1.7-.5z" fill="#ac885c"/><path d="m20 3.8c.1.2.5.6.7 1.2.2.8-.2 1.5-.3 1.9-.6.6-1.3.9-2 1.2-1 .5-2 .7-2.7.8-.2 0-.6.1-1.1.2-.8.1-1.8.2-2.9.2-.8 0-2 0-3.4-.4-.9-.6-1.2-1.1-1.3-1.5-.1-.3-.1-.5-.1-.7.7-.5 1.8-1.5 3.5-1.7 1.4-.2 3.1-.2 4.6-.2-.1.1-.1.2-.2.2-.9-.2-3.3.2-3.3.8-.6 2.6 11.2 1.4 6.1-1.2.2-.1.4-.2.6-.3.6-.2 1.2-.3 1.8-.5z" fill="#aa885d"/><path d="m20 3.8c.2.2.6.5.8 1.1.2.8-.2 1.5-.3 1.9-.6.6-1.3.9-2 1.2-1 .5-2 .7-2.7.8-.4.1-.8.2-1.3.2-.8.1-1.8.2-2.9.2-.8 0-2 0-3.4-.4-.8-.5-1.1-1-1.2-1.4-.1-.3-.1-.5-.1-.7.7-.5 1.8-1.5 3.5-1.7 1.4-.2 3-.2 4.6-.2-.1.1-.2.2-.2.2-.9-.2-3.3.2-3.2.7-.6 2.6 11.1 1.4 6.1-1.2.2-.1.4-.2.6-.3.5-.1 1.1-.3 1.7-.4z" fill="#a9875f"/><path d="m20 3.8c.2.2.6.5.7 1.1.2.8-.2 1.5-.3 1.8-.6.6-1.3.9-2 1.2-1 .5-2 .7-2.7.8-.2 0-.6.1-1.1.2-.8.1-1.8.2-2.9.2-.8 0-2 0-3.4-.4-.9-.4-1.2-.9-1.3-1.4-.1-.2-.1-.5-.1-.6.7-.5 1.8-1.5 3.5-1.7 1.4-.2 3-.2 4.6-.2-.1.1-.2.2-.3.2-.9-.2-3.2.2-3.2.7-.5 2.6 11.1 1.3 6.2-1.2.2-.1.4-.2.6-.3.5-.1 1.1-.3 1.7-.4z" fill="#a88760"/><path d="m20 3.8c.2.2.6.5.7 1.1.2.8-.2 1.5-.3 1.8-.6.6-1.4.9-2.1 1.2-1 .5-2 .7-2.7.8-.2 0-.6.1-1.1.2-.8.1-1.8.2-2.9.2-.8 0-2 0-3.4-.4-.8-.4-1.1-.9-1.2-1.4-.1-.2-.1-.5-.1-.6.7-.5 1.8-1.5 3.5-1.7 1.4-.2 3-.2 4.6-.2-.1.1-.2.2-.3.2-.9-.2-3.2.2-3.1.7-.5 2.5 11 1.3 6.1-1.2.2-.1.4-.2.6-.3.5-.1 1.1-.3 1.7-.4z" fill="#a68661"/><path d="m20 3.8c.2.2.6.5.7 1.1.2.8-.1 1.5-.3 1.8-.6.6-1.4.9-2.1 1.2-1 .5-2 .7-2.7.8-.2 0-.6.1-1.1.2-.8.1-1.8.2-2.9.2-.8 0-2 0-3.4-.4-.8-.5-1.1-.9-1.2-1.4-.1-.3-.1-.5-.1-.7.7-.4 1.8-1.4 3.5-1.6 1.4-.2 3-.2 4.5-.2-.1.1-.1.2-.2.2-.9-.2-3.1.2-3.1.7-.5 2.5 11 1.3 6.1-1.2.2-.1.4-.2.6-.3.5-.1 1.1-.3 1.7-.4z" fill="#a58662"/><path d="m20 3.8c.2.2.6.5.7 1.1.2.8-.1 1.5-.3 1.8-.6.6-1.4.9-2.1 1.2-1 .5-2 .7-2.7.8-.2 0-.6.1-1.1.2-.8.1-1.8.1-2.9.2-.8 0-2 0-3.4-.4-.8-.5-1.1-1-1.2-1.4-.1-.3-.1-.5-.1-.7.7-.4 1.8-1.4 3.4-1.6 1.4-.2 3-.2 4.5-.2 0 .1-.1.2-.1.2-.9-.2-3.1.2-3 .7-.5 2.4 10.9 1.2 6.1-1.2.2-.1.4-.2.6-.3.4-.1 1-.3 1.6-.4z" fill="#a38564"/><path d="m20 3.8c.2.2.6.5.7 1.1.2.8-.1 1.5-.3 1.8-.6.6-1.4.9-2.1 1.2-1 .5-2 .7-2.7.8-.2 0-.6.1-1.1.2-.8 0-1.8.1-2.9.1-.8 0-2 0-3.4-.4-.8-.4-1.1-.9-1.2-1.3-.1-.3-.1-.5-.1-.7.7-.4 1.8-1.4 3.4-1.6 1.4-.2 3-.2 4.5-.2-.1.1-.1.1-.2.2-.8-.2-3.1.2-3 .7-.4 2.4 10.8 1.2 6-1.2.2-.1.4-.2.6-.3.6-.2 1.2-.3 1.8-.4z" fill="#a28465"/><path d="m20 3.8c.2.2.6.5.7 1.1.2.8-.1 1.4-.3 1.8-.6.6-1.4.9-2.1 1.2-1 .4-2 .7-2.7.8-.2 0-.6.1-1.1.2-.8 0-1.8.1-2.9.1-.8 0-2 0-3.4-.4-.8-.4-1.1-.9-1.2-1.3-.1-.3-.1-.5-.1-.7.7-.4 1.8-1.4 3.4-1.6 1.4-.2 2.9-.2 4.5-.2-.1.1-.1.1-.2.2-.8-.2-3 .2-2.9.7-.4 2.4 10.7 1.2 6-1.2.2-.1.4-.2.6-.2.5-.3 1.1-.4 1.7-.5z" fill="#a18466"/><path d="m20 3.8c.2.2.6.5.7 1.1.2.8-.1 1.4-.3 1.8-.6.6-1.4.8-2.1 1.1-1 .4-2 .7-2.7.8-.2 0-.6.1-1.1.2-.8.1-1.8.2-2.9.2-.8 0-2.1 0-3.4-.3-.8-.6-1-1-1.2-1.5-.1-.2-.1-.5-.1-.6.7-.4 1.8-1.4 3.4-1.6 1.4-.2 2.9-.2 4.4-.2-.1.1-.1.1-.2.2-.8-.2-3 .2-2.8.7-.4 2.4 10.6 1.2 6-1.2.2-.1.4-.2.6-.2.5-.3 1.1-.4 1.7-.5z" fill="#9f8367"/><path d="m20 3.8c.2.2.6.5.7 1.1.2.8-.1 1.4-.3 1.7-.6.6-1.4.8-2.1 1.1-1 .4-2 .7-2.7.8-.2 0-.6.1-1.1.2-.8.1-1.8.2-2.9.2-.8 0-2.1 0-3.4-.3-.8-.5-1-.9-1.2-1.4 0-.2-.1-.5-.1-.6.7-.5 1.8-1.4 3.4-1.6 1.4-.2 2.9-.2 4.4-.2-.1.1-.1.1-.2.1-.8-.2-2.9.2-2.8.7-.4 2.3 10.6 1.2 6-1.2.2-.1.4-.2.6-.2.5-.2 1.1-.3 1.7-.4z" fill="#9e8369"/><path d="m20 3.8c.2.2.6.5.7 1.1.2.8-.1 1.4-.3 1.7-.6.6-1.4.8-2.1 1.1-1 .4-2 .7-2.7.8-.2 0-.6.1-1.1.2-.8.1-1.8.2-2.9.2-.8 0-2.1 0-3.4-.3-.8-.5-1-1-1.2-1.4 0-.3-.1-.5-.1-.7.7-.4 1.8-1.3 3.4-1.5 1.4-.2 2.9-.2 4.4-.2-.1.1-.1.1-.2.1-.8-.2-2.9.2-2.7.6-.3 2.3 10.5 1.1 6-1.2.2-.1.4-.2.5-.2.6-.1 1.1-.2 1.7-.3z" fill="#9c826a"/><path d="m20 3.8c.2.2.5.5.7 1 .2.8-.1 1.4-.3 1.7-.6.5-1.4.8-2.1 1.1-1 .4-2 .7-2.7.8-.2 0-.6.1-1.1.2-.8.1-1.8.2-2.9.2-.8 0-2.1 0-3.4-.3-.8-.4-1-.9-1.2-1.3 0-.3-.1-.5 0-.7.6-.4 1.7-1.3 3.3-1.5 1.4-.2 2.9-.2 4.4-.2-.1.1-.1.1-.2.1-.8-.2-2.8.2-2.7.6-.3 2.3 10.4 1.1 6-1.2.2-.1.4-.2.5-.2.6-.1 1.1-.2 1.7-.3z" fill="#9b826b"/><path d="m20 3.8c.2.2.5.5.7 1 .2.8-.1 1.4-.3 1.7-.6.5-1.4.8-2.1 1.1-1 .4-2 .7-2.7.8-.2 0-.6.1-1.1.2-.8.1-1.8.2-2.9.2-.8 0-2.1 0-3.4-.3-.8-.4-1-.9-1.2-1.3 0-.3 0-.5 0-.7.6-.4 1.7-1.3 3.3-1.5 1.4-.2 2.9-.2 4.3-.2-.1.1-.1.1-.2.1-.7-.2-2.8.2-2.6.6-.3 2.2 10.3 1.1 6-1.3.2-.1.4-.2.5-.2.6 0 1.1-.1 1.7-.2z" fill="#9a816c"/><path d="m20 3.8c.2.2.5.5.7 1 .2.7-.1 1.4-.3 1.7-.6.5-1.4.8-2.1 1.1-1 .4-2 .6-2.7.8-.2 0-.6.1-1.1.2-.8.1-1.8.2-2.9.2-.8 0-2.1 0-3.4-.3-.8-.5-1-.9-1.2-1.4 0-.2 0-.4 0-.6.6-.4 1.7-1.3 3.3-1.5 1.3-.2 2.9-.2 4.3-.2-.1.1-.1.1-.2.1-.7-.2-2.7.2-2.6.6-.3 2.2 10.3 1.1 6-1.3.2-.1.4-.2.5-.2.6 0 1.1-.2 1.7-.2z" fill="#98806e"/><path d="m20 3.8c.2.2.5.5.7 1 .2.7-.1 1.4-.2 1.7-.7.5-1.5.8-2.2 1.1-1 .4-2 .6-2.7.8-.2 0-.6.1-1.1.2-.8.1-1.8.2-2.9.2-.8 0-2.1 0-3.4-.3-.8-.5-1-.9-1.2-1.4 0-.2 0-.5 0-.6.6-.4 1.7-1.3 3.3-1.5 1.3-.2 2.8-.2 4.3-.2-.1.1-.1.1-.2.1-.7-.2-2.7.1-2.5.6-.3 2.2 10.2 1 6-1.3.2-.1.4-.2.5-.2.5-.1 1-.2 1.6-.2z" fill="#97806f"/><path d="m20 3.8c.2.2.5.5.7 1 .2.7-.1 1.4-.2 1.7-.8.5-1.5.7-2.2 1-1 .4-2 .6-2.7.8-.2 0-.6.1-1.1.2-.8.1-1.8.2-2.9.2-.8 0-2.1.1-3.4-.3-.8-.4-1-.9-1.1-1.3-.1-.2-.1-.5-.1-.6.6-.4 1.7-1.3 3.3-1.5 1.3-.2 2.8-.2 4.3-.2-.1 0-.1.1-.2.1-.7-.2-2.6.1-2.5.6-.2 2.2 10.1 1 5.9-1.3.2-.1.4-.2.5-.2.6-.1 1.1-.2 1.7-.2z" fill="#957f70"/><path d="m20 3.8c.2.2.5.5.7 1 .2.7-.1 1.3-.2 1.6-.6.5-1.4.8-2.1 1.1-1 .4-2 .6-2.7.8-.3 0-.6.1-1.1.2-.8.1-1.8.2-2.9.2-.8 0-2.1.1-3.4-.2-.9-.5-1.1-1-1.2-1.4-.1-.3-.1-.5-.1-.6.6-.4 1.7-1.3 3.2-1.5 1.3-.2 2.8-.2 4.3-.2-.1 0-.1.1-.2.1-.7-.2-2.6.1-2.4.6-.2 2.1 10.1 1 5.9-1.3.2 0 .4-.1.6-.2.5-.1 1-.2 1.6-.2z" fill="#947f72"/><path d="m19.9 3.7c.2.2.5.5.7 1 .2.7-.1 1.3-.2 1.6-.6.5-1.4.8-2.1 1.1-1 .4-2 .6-2.7.8-.3 0-.6.1-1.1.2-.8.1-1.8.2-2.9.2-.8 0-2.1.1-3.4-.2-.8-.5-1-1-1.1-1.4-.1-.2-.1-.5-.1-.6.6-.4 1.7-1.2 3.2-1.4 1.3-.2 2.8-.2 4.2-.2-.1 0-.1.1-.2.1-.7-.2-2.5.1-2.4.6-.2 2.1 10 1 5.9-1.3.3-.1.5-.1.7-.2.5-.1 1-.2 1.5-.3z" fill="#937e73"/><path d="m19.9 3.7c.2.2.5.5.7 1 .2.7-.1 1.3-.2 1.6-.6.5-1.4.8-2.1 1.1-1 .4-2 .6-2.7.8-.3 0-.6.1-1.1.2-.8.1-1.8.2-2.9.2-.8 0-2.1.1-3.4-.2-.8-.5-1-1-1.1-1.4-.1-.3-.1-.5-.1-.6.6-.4 1.7-1.2 3.2-1.4 1.3-.2 2.8-.2 4.2-.2-.1 0-.1.1-.2.1-.6-.2-2.4.1-2.2.6-.2 2.1 9.9.9 5.9-1.3.2-.1.3-.2.5-.2.5-.2 1-.2 1.5-.3z" fill="#917e74"/><path d="m19.9 3.7c.2.2.5.5.7 1 .2.7-.1 1.3-.2 1.6-.7.5-1.4.8-2.1 1-1 .4-2 .6-2.7.8-.3 0-.6.1-1.1.2-.8.1-1.8.2-2.9.2-.8 0-2.1.1-3.4-.2-.8-.4-1-.9-1.1-1.3-.1-.3-.1-.5-.1-.6.6-.4 1.7-1.2 3.2-1.4 1.3-.2 2.8-.2 4.2-.2-.1 0-.1.1-.1.1-.7-.2-2.5.1-2.3.6-.1 2 9.8.9 5.9-1.3.2-.1.3-.2.5-.2.5-.2 1-.3 1.5-.3z" fill="#907d75"/><path d="m19.9 3.7c.2.2.5.5.7 1 .2.7-.1 1.3-.2 1.6-.7.5-1.4.8-2.1 1-1 .4-2 .6-2.7.8-.3 0-.6.1-1.1.2-.8.1-1.8.2-2.9.2-.8 0-2.1.1-3.4-.2-.8-.5-1-.9-1.1-1.3-.1-.3-.1-.5-.1-.7.7-.3 1.7-1.1 3.2-1.3 1.3-.2 2.7-.2 4.2-.2-.1 0-.1.1-.1.1-.7-.2-2.5.1-2.3.5-.1 2 9.8.9 5.9-1.3.2-.1.3-.2.5-.2.5-.1 1-.2 1.5-.2z" fill="#8e7c77"/><path d="m19.9 3.7c.2.2.5.5.6 1 .2.7-.1 1.3-.2 1.6-.7.5-1.4.7-2.1 1-1 .4-2 .6-2.7.8-.3 0-.6.1-1.1.2-.8.1-1.8.2-2.9.2-.8 0-2.1.1-3.4-.2-.7-.4-.9-.9-1-1.3-.1-.3-.1-.5-.1-.7.7-.3 1.7-1.1 3.2-1.3 1.3-.2 2.7-.2 4.1-.2-.1 0-.1.1-.1.1-.6-.2-2.4.1-2.2.5-.1 2 9.7.9 5.9-1.3.2-.1.3-.2.5-.2.5-.1 1-.2 1.5-.2z" fill="#8d7c78"/><path d="m19.9 3.7c.2.2.5.5.6 1 .2.7-.1 1.3-.2 1.6-.7.5-1.4.7-2.1 1-1 .4-2 .6-2.7.8-.3 0-.6.1-1.1.2-.8.1-1.8.2-2.9.2-.9 0-2.1.1-3.4-.2-.7-.4-.9-.9-1-1.3-.1-.3-.1-.5-.1-.7.7-.3 1.7-1.1 3.2-1.3 1.3-.2 2.7-.2 4.1-.2-.1 0-.1.1-.1.1-.6-.2-2.3.1-2.1.5-.1 2 9.6.9 5.9-1.3.2-.1.3-.2.5-.2.4-.1 1-.2 1.4-.2z" fill="#8c7b79"/><path d="m19.9 3.7c.2.2.5.5.6 1 .2.7-.1 1.3-.2 1.5-.7.5-1.4.7-2.2 1-1 .4-2 .6-2.7.7-.3 0-.6.1-1.1.2-.8.1-1.8.2-2.9.2-.9 0-2.1.1-3.4-.2-.7-.4-.9-.9-1-1.3 0-.1 0-.3 0-.5.7-.3 1.7-1.1 3.2-1.3 1.3-.2 2.7-.2 4.1-.2-.1 0-.1.1-.1.1-.6-.2-2.3.1-2 .5 0 1.9 9.5.8 5.9-1.3 0-.1.2-.1.4-.2.4-.1 1-.2 1.4-.2z" fill="#8a7b7a"/><path d="m19.9 3.7c.2.2.5.5.6.9.2.7-.1 1.2-.2 1.5-.7.5-1.4.7-2.2 1-1 .4-2 .6-2.8.7-.3 0-.6.1-1.1.2-.8.1-1.8.2-2.9.2-.9 0-2.1.1-3.4-.1-.7-.4-.9-.9-1-1.3.1-.2.1-.4.1-.5.7-.4 1.7-1.1 3.2-1.3 1.3-.2 2.7-.2 4.1-.2-.1 0-.1.1-.1.1-.5-.2-2.2.1-2 .5 0 1.9 9.5.8 5.9-1.3 0-.1.2-.1.4-.2.5-.1 1-.2 1.4-.2z" fill="#897a7c"/><path d="m19.9 3.7c.2.2.5.5.6.9.2.7-.1 1.2-.2 1.5-.7.5-1.4.7-2.2 1-1 .4-2 .6-2.8.7-.3 0-.6.1-1.1.2-.8.1-1.8.2-2.9.3-.9 0-2.1.1-3.4-.1-.7-.4-.9-.9-1-1.3.1-.3.1-.5.1-.6.7-.4 1.7-1.1 3.1-1.3 1.3-.2 2.7-.2 4-.2 0 0-.1.1-.1.1-.5-.2-2.2.1-1.9.5 0 1.9 9.4.8 5.8-1.3.2-.1.3-.2.5-.2.6-.1 1.1-.2 1.5-.2z" fill="#877a7d"/><path d="m20 3.7c.2.2.5.5.6.9.2.7-.1 1.2-.2 1.5-.7.5-1.4.7-2.2 1-1 .4-2 .6-2.8.7-.3 0-.6.1-1.1.2-.8.1-1.8.2-2.9.3-.9.1-2.1.1-3.4-.1-.7-.4-.9-.9-1-1.3 0-.3 0-.5 0-.6.7-.4 1.7-1.1 3.1-1.3 1.3-.2 2.6-.2 4-.2 0 0-.1.1-.1.1-.5-.2-2.1.1-1.9.5 0 1.8 9.3.8 5.8-1.3.2-.1.3-.1.5-.2.6-.1 1.1-.2 1.6-.2z" fill="#86797e"/><path d="m20 3.7c.2.2.5.5.6.9.2.7-.1 1.2-.2 1.5-.7.5-1.4.7-2.2 1-1 .4-2 .6-2.8.7-.3 0-.6.1-1.1.2-.9.1-1.8.2-2.9.3-.8 0-2.1 0-3.4-.2-.6-.4-.8-.9-.9-1.3-.1-.2-.1-.4-.1-.6.7-.3 1.7-1 3.1-1.2 1.2-.2 2.6-.2 4-.2 0 0-.1.1-.1.1-.5-.2-2.1.1-1.8.4.1 1.8 9.2.7 5.8-1.3.2-.1.3-.1.5-.2.5-.1 1-.1 1.5-.1z" fill="#85787f"/><path d="m20 3.7c.2.2.5.5.6.9.2.6-.1 1.2-.2 1.5-.7.5-1.4.7-2.2 1-1 .4-2 .6-2.8.7-.3 0-.6.1-1.1.2-.9.1-1.8.2-2.9.3-.8-.1-2.1 0-3.4-.2-.6-.4-.8-.9-.9-1.3-.1-.2-.1-.4-.1-.6.7-.3 1.7-1 3.1-1.2 1.2-.2 2.6-.2 4-.2 0 0-.1.1-.1.1-.5-.2-2 .1-1.8.4.1 1.8 9.2.8 5.8-1.3.2-.1.3-.1.5-.2.5-.1 1-.1 1.5-.1z" fill="#837881"/><path d="m20 3.7c.2.2.5.5.6.9.2.6-.1 1.2-.2 1.5-.7.5-1.4.7-2.2 1-1 .4-2 .6-2.8.7-.3 0-.7.1-1.1.2-.9.1-1.8.2-2.9.3-.8-.1-2.1 0-3.4-.2-.6-.4-.8-.9-.9-1.3 0-.2-.1-.4 0-.6.6-.3 1.6-1 3.1-1.2 1.2-.2 2.6-.2 3.9-.2 0 0-.1.1-.1.1-.5-.2-2 .1-1.7.4 0 1.8 9 .7 5.7-1.3.2-.1.3-.1.5-.2.5-.1 1-.1 1.5-.1z" fill="#827782"/><path d="m20 3.7c.2.2.5.5.6.9.2.6-.1 1.2-.2 1.4-.7.4-1.4.7-2.2.9-1 .4-2 .6-2.8.7-.3 0-.7.1-1.1.2-.9.1-1.8.2-2.9.3-.8.1-2.1.2-3.4 0-.6-.5-.8-.9-.9-1.3 0-.2-.1-.4 0-.6.6-.3 1.6-1 3-1.2 1.2-.2 2.6-.2 3.9-.2 0 0-.1.1-.1.1-.4-.2-1.9.1-1.6.4.1 1.7 9 .7 5.7-1.3.2-.1.3-.1.5-.2.5-.1 1-.1 1.5-.1z" fill="#807783"/><path d="m20 3.6c.2.2.5.4.6.9.2.6-.1 1.2-.2 1.4-.7.4-1.4.7-2.2.9-1 .4-2 .6-2.8.7-.3.1-.7.1-1.1.2-.9.1-1.8.2-2.9.3-.9.1-2.1.2-3.4 0-.6-.4-.8-.8-.9-1.3 0-.2-.1-.4 0-.6.6-.3 1.6-1 3-1.2 1.2-.2 2.6-.2 3.9-.2 0 0-.1.1-.1.1-.4-.1-1.9.2-1.6.5.1 1.7 8.9.7 5.8-1.3.2-.1.3-.1.5-.2.4-.1.9-.1 1.4-.2z" fill="#7f7684"/><path d="m20 3.6c.2.2.5.4.6.9.2.6-.1 1.1-.1 1.4-.7.4-1.4.7-2.2.9-1 .4-2 .6-2.8.7-.3.1-.7.1-1.1.2-.9.1-1.8.2-2.9.3-1 .1-2.2.2-3.5 0-.6-.4-.8-.9-.9-1.3 0-.2-.1-.4 0-.6.6-.3 1.6-1 3-1.2 1.2-.2 2.6-.2 3.9-.2 0 0-.1.1-.1.1-.5-.1-1.9.2-1.6.5.2 1.7 8.9.6 5.8-1.3.2-.1.3-.1.5-.2.4-.1.9-.2 1.4-.2z" fill="#7d7686"/><path d="m20 3.6c.2.2.5.4.6.9.2.6-.1 1.1-.1 1.4-.7.4-1.5.7-2.2.9-1 .4-2 .6-2.8.7-.3.1-.7.1-1.1.2-.9.1-1.8.2-2.9.3-1 .1-2.2.2-3.5 0-.6-.4-.8-.9-.9-1.3 0-.2-.1-.4 0-.6.6-.3 1.6-1 3-1.2 1.2-.2 2.5-.2 3.8-.2 0 0-.1.1-.1.1-.4-.1-1.8.2-1.5.5.2 1.6 8.8.6 5.8-1.3.2-.1.3-.1.5-.2.4-.1.9-.2 1.4-.2z" fill="#7c7587"/><path d="m20 3.6c.2.2.5.4.6.9.2.6 0 1.1-.1 1.4-.7.4-1.5.7-2.2.9-1 .3-2 .6-2.8.7-.3.1-.7.1-1.1.2-.9.1-1.8.2-2.9.3-1 0-2.2.1-3.5 0-.6-.4-.8-.9-.9-1.3 0-.2-.1-.4 0-.6.6-.3 1.6-1 3-1.2 1.2-.2 2.5-.2 3.8-.2 0 0-.1.1-.1.1-.4-.2-1.7.1-1.4.4.2 1.6 8.7.6 5.7-1.3.2-.1.3-.1.5-.2.4 0 .9-.1 1.4-.1z" fill="#7b7488"/><path d="m20 3.6c.2.2.4.4.6.9.2.6 0 1.1-.1 1.4-.7.4-1.5.6-2.2.9-1 .3-2 .6-2.8.7-.3.1-.7.1-1.1.2-.9.1-1.8.2-2.9.3-1 0-2.2.1-3.5-.1-.6-.4-.8-.8-.9-1.2 0-.2-.1-.4 0-.6.6-.3 1.6-1 3-1.1 1.2-.2 2.5-.2 3.8-.2 0 0-.1.1-.1.1-.4-.2-1.7.1-1.4.4.3 1.6 8.7.6 5.7-1.3.2-.1.3-.1.5-.2.4-.1.9-.2 1.4-.2z" fill="#797489"/><path d="m20 3.6c.2.1.4.4.6.9.2.6 0 1.1-.1 1.4-.7.4-1.5.6-2.2.9-1 .3-2 .5-2.8.7-.3.1-.7.1-1.1.2-.9.1-1.9.2-2.9.3-1 0-2.3.1-3.5-.1-.6-.4-.8-.8-.9-1.2 0-.2-.1-.4 0-.5.6-.4 1.6-1 2.9-1.2 1.2-.2 2.5-.2 3.8-.2 0 0-.1.1-.1.1-.3-.2-1.6 0-1.3.3.3 1.5 8.6.5 5.7-1.3.2-.1.3-.1.5-.2.4-.1.9-.1 1.4-.1z" fill="#78738b"/><path d="m20 3.6c.2.1.4.4.6.8.2.6 0 1.1-.1 1.3-.7.4-1.5.6-2.2.9-1 .3-2 .5-2.8.7-.3.1-.7.1-1.1.2-.9.1-1.9.2-2.9.3-1 .2-2.3.2-3.5.1-.6-.4-.8-.9-.9-1.3 0-.2-.1-.4 0-.5.6-.3 1.6-.9 2.9-1.1 1.2-.2 2.5-.2 3.8-.2 0 0-.1.1-.1.1-.3-.2-1.6 0-1.3.3.3 1.5 8.5.5 5.7-1.3.2-.1.3-.1.5-.2.4-.1.9-.1 1.4-.1z" fill="#76738c"/><path d="m20 3.6c.2.1.4.4.6.8.2.6 0 1.1-.1 1.3-.7.4-1.5.6-2.2.9-1 .3-2 .5-2.8.7-.3.1-.7.1-1.1.2-.9.1-1.9.2-2.9.3-.9.1-2.2.2-3.4 0-.7-.3-.9-.8-1-1.2 0-.2 0-.4 0-.5.6-.3 1.6-.9 2.9-1.1 1.2-.2 2.5-.2 3.7-.2 0 0-.1.1-.1.1-.3-.2-1.5 0-1.2.3.3 1.5 8.4.5 5.7-1.3.2-.1.3-.1.5-.2.5-.1.9-.1 1.4-.1z" fill="#75728d"/><path d="m20 3.6c.2.1.4.4.6.8.2.6 0 1.1-.1 1.3-.7.4-1.5.6-2.2.9-1 .3-2 .5-2.8.7-.3.1-.7.1-1.1.2-.9.1-1.9.2-2.9.3-.9.1-2.2.2-3.4 0-.7-.3-.9-.8-1-1.2 0-.2 0-.4 0-.5.7-.3 1.6-.9 2.9-1.1 1.2-.2 2.4-.2 3.7-.2 0 0 0 .1-.1.1-.3-.2-1.5 0-1.2.3.4 1.5 8.4.5 5.7-1.3.2-.1.3-.1.5-.2.5-.1.9-.1 1.4-.1z" fill="#74728e"/><path d="m20 3.6c.2.1.4.4.6.8.2.6 0 1.1-.1 1.3-.7.4-1.5.6-2.2.9-1 .3-2 .5-2.8.7-.3.1-.7.1-1.1.2-.9.1-1.9.2-2.9.3-.9.1-2.2.2-3.4 0-.7-.4-.9-.8-1-1.2 0-.2 0-.4 0-.5.7-.3 1.6-.9 2.9-1.1 1.2-.2 2.4-.2 3.7-.2 0 0 0 .1-.1.1-.3-.2-1.5 0-1.1.3.4 1.4 8.3.5 5.7-1.3.2-.1.3-.1.5-.2.4-.1.8-.1 1.3-.1z" fill="#727190"/><path d="m20 3.6c.2.1.4.4.5.8.2.6 0 1-.1 1.3-.7.4-1.5.6-2.2.8-1 .3-2 .5-2.8.7-.3.1-.7.1-1.1.2-.9.1-1.9.2-2.9.3-.9.1-2.2.2-3.4.1-.6-.4-.8-.8-.8-1.2 0-.2 0-.4 0-.5.6-.3 1.5-.9 2.8-1.1 1.1-.1 2.4-.2 3.7-.2 0 0 0 .1-.1.1-.3-.2-1.4 0-1.1.3.4 1.4 8.2.4 5.7-1.3.2-.1.3-.1.5-.2.4-.1.8-.1 1.3-.1z" fill="#717091"/><path d="m20 3.6c.2.1.4.4.5.8.2.6 0 1-.1 1.3-.7.4-1.5.6-2.2.8-1 .3-2 .5-2.8.7-.3.1-.7.1-1.1.2-.9.1-1.9.2-2.9.3-.9.1-2.2.2-3.4.1-.6-.4-.8-.9-.8-1.3 0-.2 0-.4 0-.5.6-.2 1.5-.8 2.8-1 1.1-.1 2.4-.2 3.6-.2 0 0 0 .1-.1.1-.2-.2-1.4 0-1 .3.4 1.4 8.2.4 5.7-1.3.2-.1.3-.1.5-.2.4-.1.8-.1 1.3-.1z" fill="#6f7092"/><path d="m20 3.6c.2.1.4.4.5.8.2.5 0 1-.1 1.3-.7.4-1.5.6-2.3.8-1 .3-2 .5-2.8.7-.3.1-.7.1-1.1.2-.9.1-1.9.2-2.9.3s-2.2.2-3.5.1c-.4-.4-.6-.9-.6-1.3 0-.2 0-.4 0-.5.6-.3 1.5-.8 2.8-1 1.1-.1 2.4-.2 3.6-.2 0 0 0 .1-.1.1-.2-.2-1.3 0-1 .3.4 1.3 8.1.4 5.7-1.4.2-.1.3-.1.4-.2z" fill="#6e6f93"/><path d="m20 3.6c.2.1.4.4.5.8.2.5 0 1-.1 1.3-.7.4-1.5.6-2.3.8-1 .3-2 .5-2.8.7-.3.1-.7.1-1.1.2-.9.1-1.9.2-2.9.3s-2.2.2-3.5.1c-.4-.4-.6-.9-.6-1.3 0-.2 0-.4 0-.5.6-.3 1.5-.8 2.8-1 1.1-.1 2.4-.2 3.6-.2v.1c-.2-.2-1.3 0-.9.3.5 1.3 8 .4 5.6-1.4.1-.1.3-.1.4-.2.4-.1.8 0 1.3 0z" fill="#6d6f95"/><path d="m20 3.6c.1.1.4.4.5.8.2.5 0 1-.1 1.2-.7.4-1.5.6-2.3.8-1 .3-2 .5-2.8.7-.3.1-.7.1-1.1.2-.9.1-1.9.2-2.9.3s-2.2.2-3.5.1c-.4-.4-.6-.8-.6-1.2 0-.2 0-.4 0-.5.6-.3 1.5-.8 2.8-1 1.1-.1 2.3-.1 3.6-.2v.1c-.2-.2-1.2 0-.9.2.5 1.3 7.9.3 5.6-1.4.1-.1.3-.1.4-.2.4 0 .8 0 1.3.1z" fill="#6b6e96"/><path d="m20 3.6c.1.1.4.4.5.8.2.5 0 1-.1 1.2-.7.4-1.5.6-2.3.8-1 .3-2 .5-2.8.7-.3.1-.7.1-1.1.2-.9.1-1.9.2-2.9.3s-2.2.2-3.5.1c-.4-.4-.6-.8-.6-1.2 0-.2 0-.4 0-.5.6-.2 1.5-.8 2.8-1 1.1-.1 2.3-.1 3.5-.2v.1c-.2-.2-1.2 0-.8.2.5 1.3 7.9.3 5.6-1.4.1-.1.3-.1.4-.2.4 0 .8 0 1.3.1z" fill="#6a6e97"/><path d="m20 3.6c.1.1.4.4.5.8.2.5 0 1-.1 1.2-.7.4-1.5.6-2.3.8-1 .3-2 .5-2.8.6-.3.1-.7.1-1.1.2-.9.1-1.9.2-2.9.3s-2.2.2-3.5.1c-.4-.3-.6-.8-.6-1.2 0-.2 0-.4 0-.5.6-.2 1.5-.7 2.7-.9 1.1-.1 2.3-.1 3.5-.2v.1c-.2-.2-1.1 0-.7.2.5 1.2 7.8.3 5.6-1.4.1-.1.3-.1.4-.2.4 0 .8 0 1.3.1z" fill="#686d99"/><path d="m20 3.6c.1.1.4.4.5.8.2.5 0 1-.1 1.2-.7.4-1.5.6-2.3.8-1 .3-2 .5-2.8.6-.3 0-.6.1-1.1.1-.9.1-1.9.2-2.9.3s-2.2.2-3.5.1c-.4-.2-.6-.7-.6-1.1 0-.2 0-.4 0-.5.6-.2 1.5-.7 2.7-.9 1.1-.1 2.3-.1 3.5-.2v.1c-.1-.2-1.1 0-.7.2.6 1.2 7.7.3 5.6-1.4.1-.1.3-.1.4-.2.4 0 .8 0 1.3.1z" fill="#676c9a"/><path d="m20 3.6c.1.1.4.4.5.7.2.5 0 .9-.1 1.2-.7.4-1.5.5-2.3.8-1 .3-2 .5-2.8.6-.3.1-.7.1-1.1.2-.9.1-1.9.2-2.9.3s-2.2.2-3.5.2c-.4-.3-.6-.8-.6-1.2 0-.2 0-.4 0-.5.6-.2 1.5-.7 2.7-.9 1.1-.1 2.3-.1 3.5-.2v.1c-.1-.2-1 0-.6.2.6 1.2 7.6.3 5.6-1.4.1-.1.3-.1.4-.2.3 0 .8 0 1.2.1z" fill="#666c9b"/><path d="m20 3.6c.1.1.4.4.5.7.2.5 0 .9 0 1.2-.7.3-1.5.5-2.3.8-1 .3-2 .5-2.8.6-.4 0-.8.1-1.2.2-.9.1-1.9.2-2.9.4-1 .1-2.2.2-3.5.2-.4-.5-.6-.9-.6-1.3 0-.2 0-.4 0-.5.6-.2 1.5-.8 2.7-.9 1.1-.1 2.3-.1 3.4-.2v.1c-.1-.2-1 0-.6.2.6 1.1 7.6.2 5.6-1.4.1-.1.3-.1.4-.2.4 0 .9 0 1.3.1z" fill="#646b9c"/><path d="m20 3.6c.1.1.4.4.5.7.2.5 0 .9 0 1.2-.7.3-1.5.5-2.3.8-1 .3-2 .5-2.8.6-.4 0-.8.1-1.2.1-.9.1-1.9.2-2.9.4-1 .1-2.2.2-3.5.2-.4-.4-.6-.8-.6-1.2 0-.2 0-.4 0-.5.6-.2 1.5-.8 2.7-.9 1.1-.1 2.3-.1 3.4-.2v.1c-.1-.2-.9 0-.5.2.6 1.1 7.5.2 5.6-1.4.1-.1.3-.1.4-.2.3 0 .8 0 1.2.1z" fill="#636b9e"/><path d="m20 3.6c.1.1.4.4.5.7.2.5 0 .9 0 1.1-.7.3-1.5.5-2.3.7-1 .3-2 .5-2.8.6-.4.2-.8.2-1.2.3-.9.1-1.9.2-2.9.4-1 .1-2.2.3-3.5.2-.4-.4-.6-.9-.6-1.2 0-.2 0-.4 0-.5.6-.2 1.5-.8 2.7-.9 1.1-.1 2.2-.1 3.4-.2v.1c-.1-.2-.9 0-.5.2.7 1.1 7.4.2 5.6-1.4.1-.1.3-.1.4-.2.4 0 .8 0 1.2.1z" fill="#616a9f"/><path d="m20 3.6c.1.1.4.4.5.7.2.5 0 .9 0 1.1-.7.3-1.5.5-2.3.7-1 .3-2 .5-2.8.6-.4.1-.8.2-1.2.3-.9.1-1.9.2-2.9.4-1 .1-2.2.3-3.5.2-.4-.4-.5-.9-.6-1.3 0-.2 0-.4 0-.5.6-.2 1.5-.7 2.7-.8 1.1-.1 2.2-.1 3.4-.2v.1c-.1-.2-.8 0-.4.2.7 1 7.4.2 5.6-1.4.1-.1.3-.1.4-.2.3-.1.7 0 1.1.1z" fill="#606aa0"/><path d="m20 3.6c.1.1.4.4.5.7.2.5 0 .9 0 1.1-.7.3-1.5.5-2.3.7-1 .3-2 .5-2.8.6-.3.1-.7.1-1.1.2-.9.1-1.9.3-2.9.4s-2.2.3-3.5.2c-.5-.4-.6-.8-.7-1.2 0-.2 0-.4 0-.5.6-.2 1.5-.7 2.7-.8 1.1-.1 2.2-.1 3.3-.2v.1c0-.2-.8 0-.4.1.7 1 7.3.1 5.5-1.4.1-.1.3-.1.4-.2.5 0 .9.1 1.3.2z" fill="#5f69a1"/><path d="m20 3.6c.1.1.4.4.5.7.2.5 0 .9 0 1.1-.7.3-1.5.5-2.3.7-1 .3-2 .5-2.8.6-.3.1-.7.1-1.1.2-.9.1-1.9.3-2.9.4s-2.2.3-3.5.2c-.5-.4-.6-.8-.7-1.2 0-.2 0-.4 0-.5.6-.2 1.5-.7 2.7-.8 1-.1 2.2-.1 3.3-.2v.1c0-.2-.7 0-.3.1.7 1 7.2.1 5.5-1.4.1-.1.3-.1.4-.2.4 0 .8.1 1.2.2z" fill="#5d68a3"/><path d="m20 3.6c.1.1.4.4.5.7.2.5 0 .9 0 1.1-.7.3-1.5.5-2.3.7-1 .3-2 .5-2.8.6-.3.1-.7.1-1.1.2-.9.1-1.9.3-2.9.4s-2.2.3-3.5.2c-.5-.4-.6-.8-.7-1.2 0-.2 0-.4 0-.5.6-.2 1.5-.7 2.6-.8 1-.1 2.2-.1 3.3-.2v.1c0-.2-.7 0-.3.1.8 1 7.1.1 5.5-1.4.1-.1.3-.1.4-.2.5 0 .9.1 1.3.2z" fill="#5c68a4"/><path d="m20 3.5c.1.1.4.4.5.7.2.5 0 .8 0 1.1-.7.3-1.5.5-2.3.7-1 .3-2 .5-2.8.6-.3.1-.7.1-1.1.2-.9.1-1.9.3-2.9.4s-2.2.3-3.5.3c-.5-.4-.6-.9-.7-1.2 0-.2 0-.3 0-.5.6-.2 1.5-.7 2.6-.8 1-.1 2.2-.1 3.3-.2v.1c0-.2-.7 0-.2.1.8.9 7.1 0 5.5-1.4.1-.1.3-.1.4-.2.4 0 .8 0 1.2.1z" fill="#5a67a5"/><path d="m20 3.5c.1.1.4.4.5.7.2.4 0 .8 0 1.1-.7.3-1.5.5-2.3.7-1 .3-1.9.4-2.8.6-.3.1-.7.1-1.1.2-.9.1-1.9.3-2.9.4s-2.2.3-3.5.3c-.5-.4-.6-.9-.7-1.3 0-.2 0-.3 0-.5.7-.1 1.5-.6 2.6-.7 1-.1 2.1-.1 3.3-.2v.1c0-.2-.6-.1-.2.1.8.9 7 0 5.5-1.4.1-.1.3-.1.4-.2.4 0 .8 0 1.2.1z" fill="#5967a6"/><path d="m20 3.5c.1.1.3.4.5.7.2.4 0 .8 0 1-.7.3-1.5.5-2.3.7-1 .3-1.9.4-2.8.6-.3.1-.7.1-1.1.2-.9.1-1.9.3-2.9.4s-2.2.3-3.5.3c-.5-.4-.6-.8-.7-1.2 0-.2 0-.3 0-.5.7-.1 1.5-.6 2.6-.7 1-.1 2.1-.1 3.2-.2v.1c0-.2-.6-.1-.1.1.8.9 6.9 0 5.5-1.4.1-.1.3-.1.4-.2.4 0 .8 0 1.2.1z" fill="#5866a8"/><path d="m20 3.5c.1.1.3.4.5.7.2.4 0 .8 0 1-.7.3-1.5.5-2.3.7-1 .3-1.9.4-2.8.6-.3.1-.7.1-1.1.2-.9.1-1.9.3-2.9.4s-2.2.3-3.5.3c-.5-.4-.6-.8-.7-1.2 0-.2 0-.3 0-.5.7-.1 1.5-.6 2.6-.7 1-.1 2.1-.1 3.2-.2v.1c0-.2-.5-.1 0 .1.9.8 6.8 0 5.5-1.4.1-.1.3-.1.4-.2.3 0 .7 0 1.1.1z" fill="#5666a9"/><path d="m20 3.5c.1.1.3.4.4.7.2.4 0 .8 0 1-.7.3-1.5.5-2.3.7-1 .3-1.9.4-2.8.6-.3.1-.7.1-1.1.2-.9.1-1.9.3-2.9.4s-2.3.3-3.5.3c-.4-.4-.5-.8-.6-1.2 0-.2 0-.3 0-.5.7-.1 1.5-.6 2.6-.7 1-.1 2.1-.1 3.2-.2v.1c.1-.2-.5-.1 0 .1.9.8 6.8 0 5.5-1.4.1-.1.3-.1.4-.2.3 0 .7 0 1.1.1z" fill="#5565aa"/><path d="m20 3.5c.1.1.3.3.4.6.2.4 0 .8 0 1-.7.3-1.5.5-2.3.7-1 .2-1.9.4-2.8.6-.3.1-.7.1-1.1.2-.9.1-1.9.3-2.9.4s-2.3.3-3.5.3c-.4-.3-.5-.8-.6-1.1 0-.2 0-.3 0-.4.7-.3 1.5-.7 2.6-.8 1-.1 2.1-.1 3.2-.2.1-.2-.4-.1.1 0 .9.8 6.7 0 5.5-1.4.1-.1.3-.1.4-.2.2.1.6.2 1 .3z" fill="#5364ab"/><path d="m20 3.5c.1.1.3.3.4.6.1.4 0 .8 0 1-.7.3-1.6.4-2.4.6-1 .2-1.9.4-2.8.6-.3.1-.7.1-1.1.2-.9.1-1.9.3-2.9.4s-2.3.3-3.5.3c-.3-.2-.4-.7-.5-1.1 0-.2 0-.3 0-.4.7-.2 1.5-.6 2.6-.7 1-.1 2.1-.1 3.1-.2.1-.2-.4-.1.1 0 .9.8 6.6-.1 5.4-1.4.1-.1.3-.1.4-.2.4.1.8.2 1.2.3z" fill="#5264ad"/><path d="m20 3.5c.1.1.3.3.4.6.1.4.1.8 0 1-.7.3-1.6.4-2.4.6-1 .2-1.9.4-2.8.6-.3.1-.7.1-1.1.2-.9.1-1.9.3-2.9.4-1.1.1-2.3.3-3.5.3-.3-.3-.4-.7-.5-1.1 0-.2 0-.3 0-.4.7-.2 1.5-.6 2.6-.7 1-.1 2.1-.1 3.1-.2.1-.2-.3-.1.2 0 1 .7 6.6-.1 5.4-1.4.1-.1.3-.1.4-.2.3.1.7.2 1.1.3z" fill="#5163ae"/><path d="m20 3.5c.1.1.3.3.4.6.1.4.1.8 0 1-.7.3-1.6.4-2.4.6-1 .2-1.9.4-2.8.6-.3.1-.7.1-1.1.2-.9.1-1.9.3-2.9.4-1.1.1-2.3.3-3.5.3-.3-.3-.4-.7-.4-1.1 0-.2 0-.3 0-.4.6-.2 1.4-.6 2.5-.7 1-.1 2-.1 3.1-.2.1-.2-.3-.1.2 0 1 .7 6.5-.1 5.4-1.4.1-.1.3-.1.4-.2.4.1.7.2 1.1.3z" fill="#4f63af"/><path d="m20 3.5c.1.1.3.3.4.6.1.4.1.7 0 .9-.8.3-1.6.4-2.4.6-1 .2-1.9.4-2.8.6-.3.1-.7.1-1.1.2-.9.1-1.9.3-2.9.4-1.1.2-2.3.4-3.5.4-.3-.3-.4-.7-.4-1.1 0-.2 0-.3 0-.4.6-.2 1.4-.6 2.5-.7 1-.1 2-.1 3.1-.2.1-.2-.2-.1.3 0 1 .7 6.4-.1 5.4-1.4.1-.1.3-.1.4-.2.3.1.6.2 1 .3z" fill="#4e62b0"/><path d="m20 3.5c.1.1.3.3.4.6.1.4.1.7 0 .9-.8.3-1.6.4-2.4.6-1 .2-1.9.4-2.8.6-.3.1-.7.1-1.1.2-.9.1-1.9.3-2.9.4-1.1.2-2.3.4-3.5.4-.3-.3-.4-.8-.4-1.1 0-.2 0-.3 0-.4.6-.2 1.4-.6 2.4-.7s2-.1 3-.2c.2-.2-.2-.1.3 0 1 .6 6.3-.2 5.4-1.4.1-.1.3-.1.4-.2.5.1.8.2 1.2.3z" fill="#4c62b2"/><path d="m20 3.5c.1.1.3.3.4.6.1.4.1.7.1.9-.8.3-1.6.4-2.4.6-1 .2-1.9.4-2.8.6-.3.1-.7.1-1.1.2-.9.1-1.9.3-2.9.4-1.1.2-2.3.3-3.5.4-.4-.3-.5-.8-.5-1.1 0-.2 0-.3 0-.4.6-.2 1.4-.6 2.4-.7s2-.1 3-.2h.1c.2-.2-.1-.1.4 0 1.1.6 6.3-.2 5.4-1.4.1-.1.3-.1.4-.2.3.1.6.2 1 .3z" fill="#4b61b3"/><path d="m20 3.5c.1.1.3.3.4.6.1.4.1.7.1.9-.8.3-1.6.4-2.4.6-1 .2-1.9.4-2.8.6-.3.1-.7.1-1.1.2-.9.1-1.9.3-2.9.4-1.1.2-2.3.3-3.5.4-.4-.4-.5-.8-.5-1.2 0-.2 0-.3 0-.4.6-.1 1.4-.5 2.4-.6.9-.1 2-.1 3-.2h.1c.2-.2-.1-.1.4 0 1.1.6 6.2-.2 5.4-1.4.1-.1.2-.1.4-.2.3.1.6.2 1 .3z" fill="#4a60b4"/><path d="m20 3.5c.1.1.3.3.4.6.1.4.1.7.1.9-.8.2-1.6.4-2.4.6-1 .2-1.9.4-2.8.6-.3.1-.7.1-1.1.2-.9.2-1.9.3-2.9.4-1.1.2-2.3.3-3.5.4-.4-.4-.5-.8-.5-1.2 0-.2 0-.3 0-.4.6-.1 1.4-.5 2.4-.6.9-.1 2-.1 3-.2h.1c.2-.2 0-.1.5 0 1.1.5 6.1-.2 5.4-1.4.1-.1.2-.1.4-.2.2.1.5.1.9.3z" fill="#4860b5"/><path d="m20 3.5c.1.1.3.3.4.6.1.4.1.7.1.9-.8.2-1.6.4-2.4.6-1 .2-1.9.4-2.8.5-.3.1-.7.1-1.1.2-.9.2-1.9.3-2.9.4-1.2.1-2.4.3-3.6.4-.3-.3-.4-.7-.4-1.1 0-.2 0-.3 0-.4.6-.1 1.4-.5 2.4-.6.9-.1 1.9-.1 2.9-.2h.1c.2-.2 0-.1.5-.1 1.1.5 6-.2 5.4-1.4.1-.1.2-.1.4-.2.3.1.6.2 1 .4z" fill="#475fb7"/><path d="m20 3.5c.1.1.3.3.4.6.1.4.1.7.1.9-.8.2-1.6.4-2.4.6-1 .2-1.9.4-2.8.5-.3.1-.7.1-1.1.2-.9.2-1.9.3-2.9.4-1.3.1-2.5.3-3.7.4-.2-.3-.3-.8-.3-1.1 0-.2 0-.3 0-.4.6-.2 1.4-.5 2.4-.6.9-.1 1.9-.1 2.9-.2h.1c.2-.2.1-.1.6-.1 1.2.5 6-.3 5.4-1.4.1-.1.2-.1.4-.2.2.1.5.2.9.4z" fill="#455fb8"/><path d="m20 3.5c.1.1.3.3.4.6.1.4.1.7.1.8-.8.2-1.6.4-2.4.6-1 .2-1.9.4-2.8.5-.5 0-.8.1-1.3.2-.9.2-1.9.3-2.9.4-1.1.2-2.3.4-3.5.5-.3-.3-.3-.8-.3-1.1 0-.2 0-.3 0-.4.6-.2 1.4-.5 2.4-.6.9-.1 1.9-.1 2.9-.2h.1c.3-.2.1-.1.7-.1 1.2.5 5.9-.3 5.3-1.4.1-.1.2-.1.4-.2.2.1.5.2.9.4z" fill="#445eb9"/><path d="m20 3.5c.1.1.3.3.4.6s.1.6.1.8c-.8.2-1.6.4-2.4.5-1 .2-1.9.4-2.8.5-.5.1-.9.2-1.3.2-.9.2-1.9.3-2.9.4-1.1.2-2.3.5-3.5.5-.3-.3-.3-.7-.3-1.1 0-.2 0-.3 0-.4.6-.1 1.4-.4 2.4-.5.9-.1 1.9-.1 2.9-.2h.1c.3-.2.1-.1.7-.1 1.2.4 5.8-.3 5.3-1.4.1-.1.2-.1.4-.2.2.1.5.2.9.4z" fill="#435ebb"/><path d="m20 3.5c.1.1.3.3.4.5.1.3.1.6.1.8-.8.2-1.6.4-2.4.5-1 .2-1.9.4-2.8.5-.5.2-.9.2-1.3.3-.9.2-1.9.3-2.9.4-1.1.2-2.3.4-3.5.5-.3-.3-.3-.7-.3-1.1 0-.2 0-.3 0-.4.6-.1 1.4-.4 2.4-.5.9-.1 1.9-.1 2.8-.2h.1c.3-.1.2-.1.8-.1 1.2.4 5.7-.3 5.3-1.5.1-.1.2-.1.4-.2.2.2.5.3.9.5z" fill="#415dbc"/><path d="m20 3.5c.1.1.3.3.4.5.1.3.1.6.1.8-.8.2-1.7.4-2.5.5-1 .2-1.9.4-2.9.5-.3.1-.7.2-1.1.3-.9.2-1.9.3-2.9.5-1.1.1-2.3.3-3.5.4-.3-.3-.3-.7-.3-1.1 0-.2 0-.3 0-.4.6-.1 1.4-.4 2.4-.5.9-.1 1.9-.1 2.8-.2h.1c.3-.1.2-.1.8-.1 1.2.4 5.7-.4 5.3-1.5.1-.1.2-.1.4-.2.2.2.6.3.9.5z" fill="#405cbd"/><path d="m20 3.5c.1.1.3.3.4.5.1.3.1.6.1.8-.8.2-1.7.3-2.5.5-1 .2-1.9.4-2.9.5-.3.1-.7.2-1.1.2-1 .2-1.9.3-2.9.5-1.1.2-2.3.4-3.5.5-.3-.3-.3-.8-.3-1.1 0-.2 0-.3 0-.4.6-.1 1.4-.4 2.3-.5s1.8-.1 2.8-.2h.1c.3-.1.3-.1.9-.1 1.3.3 5.6-.4 5.3-1.5.1-.1.2-.1.3-.2.3.2.7.3 1 .5z" fill="#3e5cbe"/><path d="m20 3.5c.1.1.3.3.4.5.1.3.1.6.1.8-.8.2-1.7.3-2.5.5-1 .2-1.9.4-2.9.5-.3 0-.7.1-1.1.2-1 .2-1.9.3-2.9.5-1.1.1-2.3.3-3.5.5-.3-.3-.3-.8-.3-1.1 0-.2 0-.3 0-.4.7-.1 1.4-.4 2.3-.5s1.8-.1 2.8-.2h.1c.3-.1.3-.1.9-.1 1.3.3 5.6-.4 5.3-1.5.1-.1.2-.1.3-.2.3.2.7.3 1 .5z" fill="#3d5bc0"/><path d="m20 3.5c.1.1.3.3.4.5.1.3.1.6.1.8-.8.2-1.6.3-2.4.5-1 .2-1.9.4-2.9.5-.3.1-.7.1-1.1.2-1 .2-1.9.3-2.9.5-1.2.1-2.4.3-3.6.4-.3-.3-.3-.7-.3-1 0-.1 0-.3 0-.4.7-.1 1.4-.4 2.3-.5s1.8-.1 2.8-.2h.1c.4-.1.4-.1 1-.1 1.3.3 5.5-.4 5.3-1.5.1-.1.2-.1.3-.2.3.1.6.3.9.5z" fill="#3c5bc1"/><path d="m20 3.5c.1.1.3.3.4.5.1.3.1.6.1.7-.8.2-1.7.3-2.5.5-1 .2-1.9.4-2.9.5-.3.1-.7.1-1.1.2-1 .2-1.9.3-2.9.5-1.1.2-2.3.4-3.5.5-.3-.3-.3-.7-.3-1.1 0-.1 0-.3 0-.4.7 0 1.4-.3 2.3-.4s1.8-.1 2.7-.2h.1c.4-.1.4-.2 1-.2 1.3.3 5.4-.4 5.3-1.5.2.1.3 0 .4-.1.3.1.6.3.9.5z" fill="#3a5ac2"/><path d="m20 3.5c.1.1.3.3.3.5.1.3.1.6.1.7-.7.2-1.6.3-2.4.5-1 .2-1.9.4-2.9.5-.4.1-.7.1-1.1.2-1 .1-2 .3-2.9.4-1.2.2-2.4.4-3.5.6-.3-.3-.3-.7-.3-1.1 0-.1 0-.3 0-.4.7 0 1.4-.3 2.3-.4s1.8-.1 2.7-.2h.1c.4-.1.5-.2 1.1-.2 1.4.2 5.3-.5 5.3-1.5.1 0 .2 0 .3-.1.3.1.6.3.9.5z" fill="#395ac3"/><path d="m20 3.4c.1.1.3.3.3.5.1.3.1.5.1.7-.7.2-1.6.4-2.4.5-1 .2-1.9.3-2.9.5-.4.1-.7.1-1.1.2-1 .2-2 .3-2.9.5-1.2.2-2.4.4-3.5.6-.3-.3-.3-.8-.3-1.1 0-.1 0-.3 0-.4.7-.1 1.4-.3 2.3-.4s1.8-.1 2.7-.2h.1c.4-.1.5-.2 1.1-.2 1.4.2 5.2-.5 5.2-1.5.2 0 .3 0 .4-.1.3.1.6.3.9.4z" fill="#3759c5"/><path d="m20 3.4c.1.1.2.3.3.5.1.3.1.5.1.7-.8.2-1.6.3-2.5.5-1 .2-1.9.3-2.9.5-.4.1-.7.1-1.1.2-1 .2-1.9.3-2.9.5-1.1.2-2.3.4-3.5.5-.2-.2-.2-.7-.2-1 0-.1 0-.3 0-.4.7-.1 1.4-.3 2.3-.4.8-.1 1.8-.1 2.7-.2h.1c.4-.2.6-.2 1.2-.2 1.4.2 5.2-.5 5.2-1.5.1 0 .2-.1.3-.1.3.1.6.2.9.4z" fill="#3658c6"/><path d="m20 3.4c.1.1.2.3.3.5.1.3.1.5.1.7-.8.2-1.6.3-2.5.5-1 .2-1.9.3-2.9.5-.4.1-.7.1-1.1.2-.9.1-1.9.3-2.9.4-1.1.2-2.3.5-3.5.6-.2-.3-.2-.7-.2-1 0-.1 0-.3 0-.4.7-.1 1.4-.3 2.3-.4.8-.1 1.7-.1 2.6-.2h.1c.4-.2.6-.2 1.2-.2 1.4.1 5.1-.5 5.2-1.5.2 0 .3-.1.4-.1.3.1.6.2.9.4z" fill="#3558c7"/><path d="m20 3.4c.1.1.2.3.3.5.1.3.1.5.1.7-.8.2-1.6.3-2.4.4-1 .2-1.9.3-2.9.5-.4.1-.7.1-1.1.2-1 .2-2 .3-3 .5-1.1.2-2.3.4-3.5.6-.2-.3-.2-.7-.2-1.1 0-.1 0-.3 0-.4.7 0 1.4-.2 2.3-.3.8-.1 1.7-.1 2.6-.2h.1c.5-.1.7-.2 1.3-.2 1.5.1 5-.6 5.2-1.5.1 0 .2-.1.3-.1.3.1.6.2.9.4z" fill="#3357c8"/><path d="m20 3.4c.1.1.2.3.3.5.1.3.1.5.2.7-.9.1-1.7.2-2.5.4-1 .2-1.9.3-2.9.5-.4.1-.7.1-1.2.2-.9.1-1.9.3-2.9.5-1.1.2-2.3.4-3.5.6-.2-.3-.2-.7-.2-1 0-.1 0-.3.1-.4.6-.1 1.3-.3 2.2-.4.8-.1 1.7-.1 2.6-.2h.1c.5-.1.7-.2 1.3-.2 1.5.1 4.9-.6 5.2-1.5.1 0 .2-.1.4-.1.2.1.5.2.8.4z" fill="#3257ca"/><path d="m20 3.4c.1.1.2.3.3.5.1.3.1.5.2.7-.9.1-1.7.2-2.5.4-1 .2-1.9.3-2.9.5-.4.1-.7.1-1.2.2-.9.1-1.9.3-2.9.4-1.1.2-2.3.5-3.5.6-.2-.2-.2-.7-.2-1 0-.1 0-.3.1-.4.6 0 1.3-.2 2.2-.3.8-.1 1.7-.1 2.6-.2h.1c.5-.1.8-.2 1.4-.2 1.5.1 4.9-.6 5.2-1.5.1 0 .2-.1.3-.1.2.1.5.2.8.4z" fill="#3056cb"/><path d="m20 3.4c.1.1.2.3.3.4.1.3.1.5.2.6-.8.2-1.6.3-2.5.4-1 .2-1.9.3-2.9.5-.4.1-.7.1-1.2.2-1 .2-2 .3-2.9.5-1.1.3-2.3.5-3.5.7-.2-.3-.2-.7-.2-1 0-.1 0-.3.1-.4.6 0 1.3-.2 2.1-.3s1.7-.1 2.5-.2h.1c.5-.1.8-.2 1.5-.2 1.5 0 4.8-.6 5.2-1.5.2-.1.3-.1.4-.2.2.1.5.3.8.5z" fill="#2f56cc"/><path d="m20 3.4c.1.1.2.3.3.4.1.2.1.5.2.6-.8.2-1.6.3-2.5.4-1 .2-1.9.3-2.9.5-.4.1-.7.1-1.2.2-1 .2-2 .3-2.9.5-1.2.3-2.3.5-3.5.7-.2-.3-.2-.7-.1-1 0-.1 0-.3.1-.3.5-.1 1.2-.3 2-.4.8 0 1.7-.1 2.5-.2h.1c.5-.1.9-.2 1.5-.3 1.6 0 4.7-.7 5.2-1.5.2 0 .3 0 .4-.1.2.1.5.3.8.5z" fill="#2e55cd"/><path d="m20 3.4c.1.1.2.3.3.4.1.2.1.5.2.6-.8.1-1.6.3-2.5.4-1 .2-2 .4-2.9.5-.4.1-.7.1-1.2.2-1 .2-2 .3-2.9.5-1.2.2-2.4.5-3.5.7-.2-.3-.2-.7-.1-1.1 0-.1 0-.3.1-.3.5 0 1.2-.2 2-.3.8 0 1.7-.1 2.5-.2h.1c.6-.1.9-.2 1.6-.3 1.6 0 4.7-.7 5.2-1.5.1 0 .2-.1.3-.1.2.1.5.3.8.5z" fill="#2c54cf"/><path d="m20 3.4c.1.1.2.3.3.4.1.2.1.4.2.6-.8.1-1.6.3-2.5.4-1 .2-2 .3-2.9.5-.4.1-.8.1-1.2.2-1 .2-2 .3-2.9.5-1.2.2-2.4.5-3.5.7-.2-.3-.2-.7-.1-1.1 0-.1 0-.2.1-.3.6 0 1.3-.2 2.1-.2.7-.1 1.5-.2 2.4-.3h.1c.6-.1 1-.2 1.6-.3 1.6-.1 4.6-.7 5.2-1.5.1 0 .2-.1.3-.1.2.1.5.3.8.5z" fill="#2b54d0"/><path d="m20 3.4c.1.1.2.3.3.4.1.2.1.4.2.6-.8.1-1.6.2-2.5.4-1 .2-1.9.3-2.9.5-.4.1-.8.1-1.2.2-1 .2-2 .3-2.9.5-1.2.2-2.4.4-3.5.6-.1-.3-.1-.7-.1-1 0-.1 0-.2.1-.3.6 0 1.3-.2 2.1-.2.8-.1 1.6-.1 2.4-.2h.2c.6-.1 1-.2 1.7-.3 1.6-.1 4.5-.7 5.1-1.5.1 0 .2-.1.3-.1s.4.2.7.4z" fill="#2953d1"/><path d="m20 3.4c.1.1.2.3.3.4.1.2.1.4.2.6-.8.1-1.6.2-2.5.4-1 .1-2 .2-2.9.4-.4.1-.8.1-1.2.2-1 .2-2 .3-2.9.5-1.2.2-2.4.5-3.5.7-.1-.3-.1-.7-.1-1 0-.1 0-.2.1-.3.6 0 1.3-.1 2.1-.2s1.6-.1 2.4-.2h.2c.6-.1 1-.2 1.7-.3 1.7-.1 4.4-.7 5.1-1.5.1 0 .2-.1.3-.1.2 0 .4.2.7.4z" fill="#2853d2"/><path d="m20 3.4c.1.1.2.2.3.4s.2.4.2.6c-.8.1-1.7.2-2.5.4-1 .1-2 .2-2.9.4-.4.1-.8.1-1.2.2-1 .2-2 .3-2.9.5-1.2.2-2.4.5-3.6.7-.1-.3-.1-.7-.1-1 0-.1 0-.2.1-.3.6 0 1.3-.1 2-.2.8-.1 1.6-.1 2.4-.2h.2c.6-.1 1.1-.2 1.8-.3 1.7-.2 4.4-.8 5.1-1.5.1 0 .2-.1.3-.1.3 0 .5.2.8.4z" fill="#2752d4"/><path d="m20 3.4c.1.1.2.2.3.4s.2.4.2.5c-.8.1-1.7.2-2.5.4-1 .1-2 .3-3 .4-.4.1-.8.1-1.2.2-1 .2-2 .3-2.9.5-1.1.3-2.3.5-3.5.8-.1-.3-.1-.7-.1-1 0-.1 0-.2.1-.3.6 0 1.3-.1 2-.2.8-.1 1.6-.2 2.4-.3h.2c.6-.1 1.1-.2 1.8-.3 1.8-.2 4.2-.9 5.2-1.5.1-.1.2-.1.3-.1.2.1.4.2.7.5z" fill="#2552d5"/><path d="m20 3.4c.1.1.2.2.3.4s.2.4.2.5c-.8.1-1.7.2-2.5.3-1 .2-2 .3-3 .5-.4.1-.8.1-1.2.2-1 .2-2 .3-2.9.5-1.1.2-2.3.5-3.5.7-.1-.3-.1-.7 0-1 0-.1 0-.2.1-.3.6 0 1.3-.1 2-.2.7 0 1.5-.1 2.3-.2h.2c.6-.1 1.2-.2 1.9-.3 1.7-.2 4.1-1 5.1-1.6.1-.1.2-.1.3-.1.2.2.4.3.7.6z" fill="#2451d6"/><path d="m20 3.4c.1.1.2.2.3.4s.2.4.2.5c-.8.1-1.7.2-2.5.3-1 .1-2 .3-3 .4-.4.1-.8.1-1.2.2-1 .2-2 .3-2.9.5-1.2.3-2.3.6-3.5.8-.1-.3-.1-.7 0-1 0-.1 0-.2.1-.3.6 0 1.3-.1 2-.1.7-.1 1.5-.2 2.3-.3h.2c.7-.1 1.2-.2 1.9-.4 1.8-.2 4.1-.9 5.1-1.5.1-.1.2-.1.3-.1.2.1.4.3.7.6z" fill="#2250d7"/><path d="m20 3.4c.1.1.2.2.3.4s.2.4.2.5c-.8.1-1.7.2-2.5.3-1 .1-2 .3-3 .4-.4.1-.8.1-1.2.2-1 .2-2 .3-2.9.5-1.2.3-2.3.5-3.5.8-.1-.3-.1-.7 0-1 0-.1 0-.2.1-.3.6 0 1.3-.1 2-.1.7-.1 1.5-.2 2.2-.3h.2c.7-.1 1.3-.2 2-.4 1.8-.3 4-.9 5.1-1.5.1-.1.2-.1.3-.1.2.1.4.3.7.6z" fill="#2150d9"/><path d="m20 3.4c.1.1.2.2.3.4s.2.3.2.5c-.8.1-1.7.2-2.5.3-1 .1-2 .2-3 .4-.4.1-.8.1-1.2.2-1 .2-2 .4-2.9.5-1.2.2-2.4.5-3.5.8-.1-.2-.1-.7 0-1 0-.1 0-.2.1-.3.6 0 1.3-.1 2-.1.7-.1 1.5-.1 2.3-.2h.2c.7-.1 1.3-.2 2-.4 1.8-.3 4-.9 5.1-1.5.1 0 .2-.1.3-.1s.3.2.6.5z" fill="#204fda"/><path d="m20 3.4c.1.1.2.2.2.3.1.2.2.3.2.5-.8.1-1.7.2-2.5.3-.9.1-1.9.3-2.9.4-.4.1-.8.1-1.2.2-1 .2-2 .4-2.9.5-1.2.3-2.4.6-3.5.8-.1-.2-.1-.7 0-1 0-.1 0-.2.1-.3.6 0 1.2 0 1.9-.1s1.5-.1 2.3-.2h.2c.7-.1 1.4-.2 2.1-.4 1.8-.3 3.9-1 5.1-1.5.1 0 .2-.1.3-.1.1.1.3.3.6.6z" fill="#1e4fdb"/><path d="m20 3.4c.1.1.2.2.2.3.1.2.2.3.2.5-.8.1-1.7.2-2.5.3-.9.1-1.9.2-2.9.4-.4.1-.8.1-1.2.2-1 .2-2 .4-2.9.6-1.2.2-2.4.5-3.5.7-.1-.2 0-.7 0-1 0-.1 0-.2.1-.3.6 0 1.2 0 1.9-.1s1.5-.1 2.2-.2h.2c.7-.1 1.4-.2 2.2-.4 1.9-.4 3.8-1 5-1.5.1 0 .2-.1.3-.1.2.1.4.3.7.6z" fill="#1d4edc"/><path d="m20 3.4c.1.1.2.2.2.3.1.2.2.3.2.4-.8.1-1.7.2-2.5.3-.9.2-1.9.3-2.9.5-.4 0-.8.1-1.2.1-1 .2-2 .4-2.9.6-1.2.3-2.4.5-3.5.8-.1-.2 0-.7 0-1 0-.1 0-.2.1-.3.6 0 1.2 0 1.9-.1s1.5-.1 2.2-.2h.2c.7-.1 1.5-.3 2.2-.4 1.9-.4 3.8-1 5-1.5.1 0 .2-.1.3-.1.2.1.4.3.7.6z" fill="#1b4ede"/><path d="m20.5 4.1c-2.1.2-4.3.5-6.6.9s-4.5.9-6.5 1.4c-.1-.3 0-1 .1-1.3 3.6.1 9-1.1 11.8-2.4.2.2.4.4.6.7.3.2.4.5.6.7z" fill="#1a4ddf"/><path d="m26.9 13.3c0 .7-.1.8-.1.8-.4-.2-1-.2-1.5-.4.2-.3-.4-1.7-.8-1.8.4-.3.8-.6 1.1-.8-.1-.1-.1-.2-.2-.3-.1-.2-.2-.3-.3-.5.9-.8 1.9-1.5 2.8-2.3.3.3.6.6.9 1-.1 1.3-1 3.3-1.9 4.3z" fill="#fff"/><path d="m9.5 28.9c.1.3-1.1.7-1.8 1.4-.4.4-.7.9-.9 1.9-.5.4-1 .8-1.5 1.2-.6-1.7 1.1-2.7 3.6-4.6 0 0 .3-.2.5-.1.1.1.1.2.1.2z" fill="#4b7069"/><path d="m8.8 21.8c-1.1.6-2.2-.4-1.2 1.4-1.8.1-3.1-5.4-.7-6.6-.1 1.3 1 4.3 1.9 5.2z" fill="#5d4456"/><path d="m8.8 21.8c-1.1.6-2.2-.5-1.2 1.3-1.8.1-3-5.3-.6-6.5-.2 1.3.9 4.3 1.8 5.2z" fill="#5c4459"/><path d="m8.8 21.8c-1.1.6-2.3-.6-1.3 1.2-1.8.1-3-5.2-.6-6.3-.1 1.2 1 4.2 1.9 5.1z" fill="#5b445b"/><path d="m8.8 21.8c-1.2.6-2.3-.6-1.3 1-1.7.1-2.9-5.1-.6-6.2-.1 1.4 1 4.3 1.9 5.2z" fill="#59455e"/><path d="m8.8 21.8c-1.2.6-2.3-.7-1.3.9-1.7.1-2.8-5-.6-6.1-.1 1.4 1 4.2 1.9 5.2z" fill="#584560"/><path d="m8.9 21.8c-1.2.5-2.3-.7-1.3.8-1.7.1-2.8-4.9-.5-6-.2 1.4.8 4.2 1.8 5.2z" fill="#574563"/><path d="m8.9 21.8c-1.2.5-2.3-.8-1.4.7-1.6.1-2.7-4.8-.5-5.8-.1 1.3 1 4.1 1.9 5.1z" fill="#564565"/><path d="m8.9 21.8c-1.2.5-2.3-.9-1.4.6-1.6.1-2.6-4.7-.5-5.7-.1 1.3 1 4.1 1.9 5.1z" fill="#544568"/><path d="m8.9 21.8c-1.2.5-2.3-.9-1.4.4-1.6.1-2.6-4.6-.5-5.6-.1 1.4 1 4.2 1.9 5.2z" fill="#53456a"/><path d="m8.9 21.8c-1.2.5-2.3-1-1.5.3-1.4.1-2.4-4.5-.4-5.5-.1 1.4 1 4.1 1.9 5.2z" fill="#52466d"/><path d="m8.9 21.8c-1.3.5-2.3-1-1.5.2-1.4 0-2.4-4.4-.4-5.4-.1 1.4 1 4.1 1.9 5.2z" fill="#51466f"/><path d="m9 21.8c-1.3.4-2.3-1.1-1.5.1-1.5 0-2.4-4.3-.5-5.3 0 1.4 1 4.1 2 5.2z" fill="#4f4672"/><path d="m9 21.8c-1.3.4-2.3-1.2-1.5-.1-1.4.1-2.3-4.2-.4-5.1-.1 1.5.9 4.1 1.9 5.2z" fill="#4e4674"/><path d="m9 21.8c-1.3.4-2.3-1.2-1.6-.2-1.4.1-2.2-4.1-.4-5 0 1.5 1 4.1 2 5.2z" fill="#4d4677"/><path d="m9 21.8c-1.3.4-2.4-1.3-1.6-.3-1.3.1-2.2-4-.3-4.9-.1 1.5.9 4 1.9 5.2z" fill="#4c467a"/><path d="m9 21.8c-1.3.4-2.4-1.3-1.6-.4-1.3.1-2.1-3.9-.3-4.7-.1 1.4 1 3.9 1.9 5.1z" fill="#4a477c"/><path d="m9 21.8c-1.3.4-2.4-1.4-1.6-.6-1.3.1-2-3.8-.3-4.6-.1 1.5 1 4 1.9 5.2z" fill="#49477f"/><path d="m9 21.8c-1.4.3-2.4-1.4-1.7-.7-1.2.1-2-3.7-.3-4.5.1 1.5 1.1 4 2 5.2z" fill="#484781"/><path d="m9.1 21.8c-1.4.3-2.4-1.5-1.7-.8-1.2.1-1.9-3.6-.2-4.4-.1 1.5.9 4 1.9 5.2z" fill="#474784"/><path d="m9.1 21.8c-1.4.3-2.4-1.6-1.7-.9-1.1.1-1.8-3.5-.2-4.2-.1 1.4.9 3.8 1.9 5.1z" fill="#454786"/><path d="m9.1 21.8c-1.4.3-2.4-1.6-1.8-1.1-1.1.1-1.8-3.4-.2-4.1 0 1.6 1 3.9 2 5.2z" fill="#444789"/><path d="m9.1 21.8c-1.4.3-2.4-1.7-1.8-1.2-1.1.1-1.7-3.3-.2-4 0 1.6 1 3.9 2 5.2z" fill="#43488b"/><path d="m9.1 21.8c-1.4.3-2.4-1.7-1.8-1.3-1 .1-1.6-3.2-.1-3.9 0 1.6.9 3.9 1.9 5.2z" fill="#42488e"/><path d="m9.1 21.8c-1.4.2-2.4-1.8-1.8-1.4-1 .1-1.6-3-.1-3.8 0 1.6.9 3.9 1.9 5.2z" fill="#404890"/><path d="m9.1 21.8c-1.5.2-2.4-1.9-1.9-1.5-1 .1-1.5-2.9-.1-3.6.1 1.5 1.1 3.7 2 5.1z" fill="#3f4893"/><path d="m9.2 21.8c-1.5.2-2.4-1.9-1.9-1.7-.9.1-1.4-2.8-.1-3.5 0 1.6 1 3.8 2 5.2z" fill="#3e4895"/><path d="m9.2 21.8c-1.5.2-2.5-2-1.9-1.8-.9.1-1.4-2.7 0-3.4-.1 1.6.9 3.8 1.9 5.2z" fill="#3d4898"/><path d="m9.2 21.8c-1.5.2-2.5-2-1.9-1.9-.8.1-1.3-2.6 0-3.3-.1 1.6.9 3.8 1.9 5.2z" fill="#3c499b"/><path d="m9.2 21.8c-1.5.2-2.5-2.1-2-2-.8.1-1.2-2.5 0-3.1.1 1.5 1 3.7 2 5.1z" fill="#3a499d"/><path d="m9.2 21.8c-1.5.1-2.5-2.2-2-2.2-.8.1-1.2-2.4 0-3 .1 1.7 1 3.7 2 5.2z" fill="#3949a0"/><path d="m9.2 21.8c-1.5.1-2.5-2.2-2-2.3-.7.1-1.1-2.3.1-2.9 0 1.7.9 3.7 1.9 5.2z" fill="#3849a2"/><path d="m9.3 21.8c-1.6.1-2.5-2.3-2.1-2.4-.7.1-1-2.2.1-2.8 0 1.7.9 3.7 2 5.2z" fill="#3749a5"/><path d="m9.3 21.8c-1.6.1-2.5-2.3-2.1-2.5-.7.1-1-2.1.1-2.6 0 1.6.9 3.6 2 5.1z" fill="#3549a7"/><path d="m9.3 21.8c-1.6.1-2.5-2.4-2.1-2.7-.6.1-.9-2 .1-2.5.1 1.7 1 3.7 2 5.2z" fill="#3449aa"/><path d="m9.3 21.8c-1.6 0-2.5-2.5-2.1-2.8-.6.1-.8-1.9.1-2.4.1 1.7 1 3.6 2 5.2z" fill="#334aac"/><path d="m9.3 21.8c-1.6 0-2.5-2.5-2.2-2.9-.6.1-.8-1.8.2-2.3.1 1.7 1 3.6 2 5.2z" fill="#324aaf"/><path d="m9.3 21.8c-1.6 0-2.5-2.6-2.2-3-.5.1-.7-1.7.2-2.2.1 1.7 1 3.6 2 5.2z" fill="#304ab1"/><path d="m9.3 21.8c-1.6 0-2.5-2.6-2.2-3.2-.5.1-.6-1.6.2-2 .1 1.7 1 3.6 2 5.2z" fill="#2f4ab4"/><path d="m9.4 21.8c-1.7 0-2.6-2.7-2.2-3.3-.4.1-.6-1.5.2-1.9 0 1.8.9 3.6 2 5.2z" fill="#2e4ab6"/><path d="m9.4 21.8c-1.7 0-2.6-2.8-2.3-3.4-.4.1-.5-1.4.3-1.8.1 1.8.9 3.5 2 5.2z" fill="#2d4ab9"/><path d="m9.4 21.8c-1.7-.1-2.6-2.8-2.3-3.5-.4.1-.4-1.3.3-1.7.1 1.8.9 3.5 2 5.2z" fill="#2b4bbb"/><path d="m9.4 21.8c-1.7-.1-2.6-2.9-2.3-3.7-.3.1-.4-1.2.3-1.5.1 1.8.9 3.5 2 5.2z" fill="#2a4bbe"/><path d="m9.4 21.8c-1.7-.1-2.6-2.9-2.4-3.8-.3.1-.3-1.1.3-1.4.2 1.8 1.1 3.5 2.1 5.2z" fill="#294bc1"/><path d="m9.4 21.8c-1.7-.1-2.6-3-2.4-3.9-.3.1-.3-1 .4-1.3.1 1.8 1 3.5 2 5.2z" fill="#284bc3"/><path d="m9.4 21.8c-1.7-.1-2.6-3.1-2.4-4-.2.1-.2-.9.4-1.2.2 1.8 1 3.4 2 5.2z" fill="#264bc6"/><path d="m9.5 21.8c-1.8-.1-2.6-3.1-2.4-4.1-.2.1-.1-.8.4-1 .1 1.7.9 3.3 2 5.1z" fill="#254bc8"/><path d="m9.5 21.8c-1.8-.2-2.6-3.2-2.5-4.3-.1.1-.1-.7.4-.9.2 1.9 1 3.4 2.1 5.2z" fill="#244ccb"/><path d="m9.5 21.8c-1.8-.2-2.6-3.2-2.5-4.4-.1.1 0-.6.5-.8.1 1.9.9 3.4 2 5.2z" fill="#234ccd"/><path d="m9.5 21.8c-1.8-.2-2.6-3.3-2.5-4.5-.1.1.1-.5.5-.7.1 1.9.9 3.3 2 5.2z" fill="#214cd0"/><path d="m9.5 21.8c-1.8-.2-2.6-3.4-2.5-4.6 0 .1.1-.4.5-.5.1 1.8.9 3.2 2 5.1z" fill="#204cd2"/><path d="m9.5 21.9c-1.8-.2-2.7-3.4-2.6-4.8 0 .1.2-.3.5-.4.3 1.8 1.1 3.2 2.1 5.2z" fill="#1f4cd5"/><path d="m9.6 21.9c-1.9-.3-2.7-3.5-2.6-4.9 0 .1.3-.2.6-.3.1 1.8.9 3.2 2 5.2z" fill="#1e4cd7"/><path d="m9.6 21.9c-1.9-.3-2.7-3.5-2.6-5 .1.1.3-.1.6-.2.1 1.8.9 3.2 2 5.2z" fill="#1c4dda"/><path d="m9.6 21.9c-1.9-.3-2.7-3.6-2.7-5.1.1.1.4 0 .6-.1.2 1.8 1 3.1 2.1 5.2z" fill="#1b4ddc"/><path d="m9.6 21.9c-1.9-.3-2.7-3.7-2.7-5.3.1.1.5.1.6.1.2 1.8 1 3.1 2.1 5.2z" fill="#1a4ddf"/><path d="m26.6 14.1c-.4 0-.6.1-.7.2-.5.5.5 1.8-.1 2.4-.2.2-.4.2-.5.2-.4-1-.9-1.6-1.4-1.6-.2 0-.4.2-.4.2-.3.3-.2.8.1 1.4 0 .2-.1.2-.1.2-.1-.2-.1-.6-.2-.1-.2.5-1.4.9-2 1.5-.4.4-.8.5-1.1 1-.5.3-1.1.6-1.7 1-2.4 1.6-4 3.4-5 5 0 .1 0 .1-.1.2-.1.2-.1.3-.1.3s.2-.6 0-1.2c0-.1-.2-.7-.8-.9-.1 0-.3-.1-.4 0-.2.2 0 .6 0 1.3 0 .4-.2.8-.3 1.1-1.1 0-3.8-2.2-4.2-.2-.5-.6.7-1.3 1.1-1.9.6-.2 1.7 1.6 2.6.9.8-1 0-1.3-.7-2.1.9-.5 1.7-.6 2.1-.3 4.4 1.6 7.3-5 11-7.7 3.2-.1-.2-2.8 2.9-.9z" fill="#251d22"/><path d="m13 26.6c0 .2-.2.8-.9 1.2-.2.1-.5.2-.7.2 1.1 1.6-2.3 1.5-2.3.1.2-.5 1.4 0 1.5.4.1-.2.2-.6 0-1-.2-.6-.9-.9-1.4-1.1-.8-.3-1.3-.3-1.4-.6 0-.1.1-.2.1-.3.2-.2.6-.2 1.8.3 1.3.5 1.7.9 2 .8.5-.2.5-1.2.5-1.3 0-.6-.2-1.1-.1-1.2s.4.1.5.2c.9.5.5 2 .4 2.3z" fill="#5d4456"/><path d="m15.2 18.6c-1.8 1.7-3 2.2-4.9 3.9-.2-.5-.9-.7-1.3-.6-.7.1-1-4.4-1.8-5.2 1.6.2 3.7-2.7 2.3-4.2h.1c.8.1 2.2.1 3.1-.1.3.2.6.3.9.3-1.2 1.2.2 5.5 1.6 5.9z" fill="#4b7069"/><path d="m14.2 18.9c0 .1 0 .1 0 0-.1.1-.2.3-.3.3-1.5-3.8-.5-4.1-1.2-6.8.4.2 1.2.4 1.7.3-.1 3.6-.2 6.2-.2 6.2z" fill="#1a4ddf"/><path d="m7.4 29.6c.2-.1-1.2 1.2-1.2.6-.6.9-1.1 1.7-2 2 .3-.8 2.1-2.6 2.4-2.9.3-1.7 1.6-1.7 2.4-3 .7.1 1.5.6.7 1.3-.3-.2-.8.4-.6.7-.6.4-1.2.9-1.7 1.3z" fill="#1a4ddf"/><path d="m20.9 18.6c.9-.4.9-.4 1.5-1 .5-.5.9-.9 1.1-1.3.1.1.1.2.2.3s.1.2.1.4c-.2.2-.6.6-1 .9-.7.6-1.3 1.1-1.5 1.3-.9.7-1.8 1.5-2.7 2.3-1 .9-2.6 2.2-5.2 4.4.4-2.2 4.1-3.7 4.8-4.6 0 0 2.1-2.4 2.7-2.7z" fill="#4b7069"/><path d="m10.3 7.4c-.1 1.2 1.5 1.1 2.4 1.5-.7-2.2 4.1-.7 5.6-1.6-1.8-.9-6.4-.7-8 .1z" fill="#5d4456"/><path d="m18.7 6.5c.1-1.2-1.6-1-2.5-1.3.8 2.2-4 1-5.5 1.9 1.8.8 6.4.3 8-.6z" fill="#5d4456"/><path d="m16.3 5.3c-.3.2-.8.3-1.2.4-1.3.2-2.8.3-3.8.3 1.5-.7 3.9-1.1 5-.7z" fill="#5d4456"/><path d="m18.6 25.7c-.1 0-.2-.1-.4-.3-.3-.4-.3-.9-.3-1.3.6-.6 1-1.1 1.3-1.4 1.4-1.4 2.3-2.1 2.2-2.9 0-.1 0-.2-.1-.2-1 1-1.9 1.7-2.5 2.2-1.7 1.4-3 2.2-4.9 4-.2.2-.3.3-.4.4 0 .4.1 1.8 1.2 2.9.2.3 1.6 1.6 3.4 1.3.2 0 1.5-.3 1.9-1.3.6-1.3-.6-3-1.4-3.4z" fill="#5d4456"/><path d="m20 27.7c-1-1.9.3.2-.4 1.6-2.6 3.2-6-2.3-6.1-3.1 0 0 .1.3.5 1.3.2 3.5 6.7 5.1 6 .2z" fill="#ffee5b"/><path d="m19.6 27.8c-.1 2.5-3.5 2.5-4.8.7-.8-.9-.8-2.3.5-1.6.6.3.7.7 1.4.8.9.5 3-2.2 2.9.1z" fill="#0e0700"/><path d="m12 26c-.5.7-1.4-.5-2.2-.6.7 0 1.5 1 1.7.3.5.3.5-.4.5-1.3.2.3.2 1.1 0 1.6z" fill="#e8a126"/><path d="m19.2 28.8c-.6.9-2.1.7-2.9.5-.3-.1-1.1-.4-1.5-1.2-.1-.3-.3-.8-.1-1 .1-.1.4 0 .5 0 .4.1.5.4.9.7.2.1.4.2.7.2 1.1.2 1.9-1.1 2.4-.8.3.1.4 1 0 1.6z" fill="#ce3f13"/><path d="m7.5 23.3c-.2-.6-.2-1.3.2-1.6.6-.5 1.6 0 1.8.1.3.2.6.4.7.6 4.3-3.1 8.6-6.3 12.9-9.4" fill="none" stroke="#1d1d1d" stroke-miterlimit="10" stroke-width=".36"/><path d="m19.4 2.7c-.2-.2-.4-.4-.7-.5-.8-.5-2-1-2.1-.8-.2.3.8 1.7 2 1.7.3-.1.6-.3.8-.4z" fill="#ce3f13"/><path d="m7.6 5.9c.2-.5.5-1.4.3-2.7-.2.2-.4.3-.5.5-.1.1-.2.1-.3.2.1.1.2.4.3.7.1.4 0 .8-.1 1.1-.1.2-.2.4-.3.8-.3.6-.4.8-.4.8.1 0 .6-.6 1-1.4z" fill="#e8a126"/><path d="m17.7 5.3c.4.1.7.3.9.6.3.3.3.8.2 1.2-.2.4-.5.6-.9.7-.4.2-.8.3-1.2.4-1.5.4-3.2.5-4.8.3-.3 0-.6-.1-.9-.2-.4-.2-.7-.4-.8-.8s0-.8.3-1.1.6-.5 1-.6c1.4-.6 3-.8 4.6-.8.5 0 1.1 0 1.6.2-.1.1 0 .1 0 .1z" fill="none" stroke="#0f0f0f" stroke-miterlimit="10" stroke-width=".167"/></svg>