<svg enable-background="new 0 0 32.5 34.1" viewBox="0 0 32.5 34.1" xmlns="http://www.w3.org/2000/svg" xmlns:xlink="http://www.w3.org/1999/xlink"><linearGradient id="a"><stop offset=".322" stop-color="#8d7484"/><stop offset=".6468" stop-color="#00332f"/></linearGradient><linearGradient id="b" gradientUnits="userSpaceOnUse" x1="-1.4633" x2="9.3155" xlink:href="#a" y1="19.324" y2="19.324"/><linearGradient id="c" gradientUnits="userSpaceOnUse" x1="-1.0431" x2="11.0816" xlink:href="#a" y1="17.3529" y2="17.3529"/><path d="m5.2 5.9c-.1-.7.2-1.4.3-1.4-.1.3.5 3.1 1.5 1.4-.2.4-.4.8-.5 1.1-.3.2-1.3-.7-1.3-1.1zm6.3 22v.3c-.1-.1-.2-.2 0-.3zm-4.4-11.2h.2c.6 1.6 1.3 3.5 2.1 5.1-.3-.1-.6-.1-.9-.2-.8-1-1.7-3.8-1.6-5 .1 0 .2.1.2.1zm6.4 11.6c-.4-.2-1.1.2-1.7.6.1 0 .2-.6 0-.7.5.2 1.6-1.1 1.4-1.5.1-.1 0 0 0 0 .6 1.7 1 2.3.3 1.6zm5.9-7.7c-5.1 4.9-8.9 6.5.9-1.1.2-.5.7-.6 1.1-1 .1-.4 1.6-1.7 1.9-1.7-1.6.9-4 3.9-3.9 3.8zm6.9-3.3c0-.1 0 0 0 0zm1.5-1.8c.1-.1.3-.2.3-.2-.1 0-.2.2-.3.2z" fill="url(#b)"/><path d="m30.7 9.9c-1.1-1.4-1.8-2.4-2.8-2.3-.3 0-.3.1-1.8 1.2-1.1.7-1.8 1.1-1.7 1.4 0 .1.1.1.4.4.2.2.4.3.4.4-.3.3-.7.5-1.1.7-1.8-1.6-3.3-.7-2.5.8-.1 0-.3 0-.4.1-.3.1-.3.4-.4.5-.3-.4-1-1-2-1.5s-1.9-.5-2.4-.5c0-.1 0-.4-.1-.4 12-3.7-.8-15.8-9.3-6.9-2.2-.8-2.8 3.3-.5 3.5-.2 2 2.7 3.1 5.1 3.6-.9 0-2.2.2-3.2.7-2.8-.2-5 1-4.1 3.6-.6.5-1.8 1.6-2.2 3.3-.6 2.6.9 5.5 3.7 7.2-.4.2-.8.7-1.1 1-.2-.3-.4-.8-.8-.8-.5-.1-.7.5-1.6 1.2-1.1 1-1.6.9-1.7 1.3-.2.7 1 1.1 2.3 2.8 1.4 1.7 1.6 2.9 2.3 2.9.5 0 .5-.6 1.7-1.5.8-.5 1.6-.9 1.6-1.3 0-.1-.1-.3-.2-.4-.1-.2-.2-.3-.3-.4.1-.1.2-.2.3-.3.2.4.4.8.7 1.1.8.9 2.2.8 3.1.5 1.6-.6 2.1-2.3 2.1-2.5 1.6 1.7 3.7 2.2 5 1.4.5-.3 1.1-.9 1.3-1.8s-.3-1.7-.4-1.9c-.1-.1-.2-.4-.5-.7-.5-.5-1-.6-1.2-1.2-.1-.2-.2-.4-.2-.5.4-.5.9-1.1 1.4-1.7.7-.8 1.5-1.5 2.1-2.1.7 1.1 1.9 1.6 2.7 1.3.5-.2.8-.8.8-.9.4-1-.1-2-.2-2 .1 0 .6 0 1.1-.4.4-.4.4-1 .4-1 .5.1 1-.1 1.2-.4.4-.5.2-1.2.2-1.2.1-.2.4-.4.6-.5h.1c.1.2.2.3.4.5 1.4-1.2 2.3-2 2.9-2.5 0 0 .1-.1.2-.2.5-1.1-.8-2.8-1.4-3.6zm-.6 4.3c-.6-.1-2.2.8-2.3 1.4-.2-.9-1.6-2.1-2.5-1.8 0-.2-.1-.6-.3-1s-.4-.6-.6-.8c.4-.3.8-.6 1.2-.9-.2-.2-.4-.5-.6-.7 1-.8 2-1.6 3-2.4.6.5 1.4 1.3 2 2.6.6 1 .9 1.9 1 2.6-.3.3-.6.6-.9 1z" fill="url(#c)"/><path d="m31.9 12.7c.1.4-.2.9-1.9 1.9 0-.2-.1-.3-.2-.4-.5-.3-1.6 1-2.1 1.5-.2-.3-.3-.5-.5-.8.9-1.4 1.9-2.9 2.9-4.2.2.2.4.6.8.9.7.7 1 .8 1 1.1z" fill="#d7e2d6"/><path d="m16.6 5.4c.1 0 .1-.1.2-.1 5.8 2.3-2.3 3.5-6 1.9-.8-1.9 3.7-2 5.1-2-.3.2-.8.5-1 .8.1.1 1.5-.5 1.7-.6z" fill="#ffa180"/><path d="m25.4 15.2c-2.7-1.1-2.7 1.4-4 3.3-.4.4-.8.5-1.1 1-2.6 1.7-4.6 4.9-8.1 3-.3.2-.7.6-.9.9-.2-.1-.6-.5-.8-.7 6.1-4.2 5.3-4.8 12.8-9.6.3.5 1.2 2.3 1.9 1.4-.1-.1 0 0 .2.7z" fill="#fff"/><path d="m8 23.8c-.7.5-1.4 1.2-2 1.7-3.7-2-5.5-8.4-.6-10.6.7.3 1.5.7 2.2.9-4 .9-2.6 7.6.4 8z" fill="#b26b9b"/><path d="m14.2 6.5c-.7.1-2 .2-3.5-.2 1.8-1.7 10.4-1.4 3.5.2z" fill="#8d4e70"/><path d="m9.7 24.7c-.8.5-1.2.2-1.9.6-.4.6 0 1 .9 1-.5 4-1.9 6.8-3.3 6.8-.6 0-.7-.6-3.5-3.3-.3-.3-.8-.7-.7-1.3.1-.3.3-.4 1.2-1.1.9-.8 1.1-1.1 1.5-1 .1 0 .5.1.8.9 1.2-1.1 2.4-2.3 3.6-3.4.5-.2 1.4.5 1.4.8z" fill="#fff"/><path d="m27.8 16.1c.1.4 0 .8-.3 1-.3.3-.8.3-1.2.1.1.5-.1 1.1-.5 1.4-.5.4-1.1.1-1.2.1.7 1 .6 2.2 0 2.7-.3.3-.9.5-1.4.3-.4-.1-.7-.4-.9-.6-.5-.6-.6-1.4-.7-1.7.4-.4.9-.8 1.4-1.3.4-.3.7-.7 1-1-.2-.5-.6-1.5-.4-1.7h.2c.7.1 1.2 1.6 1.3 1.8.8-.1 1-.4 1.2-.7.4-.8-.5-1.9-.1-2.3.1-.1.2-.1.2-.1s.1 0 .1.1c.4.3.6.7.7.9.2.4.1.4.6 1z" fill="#b26b9b"/><path d="m9.4 26.5c.1.1.2.1.3.2-.8-.1-3.1 1.8-3.1 2.6-.3.3-2.1 2.2-2.4 2.9-.5-.7-1.2-1.6-1.8-2.3 2.4.8 5.8-3.1 5.5-4 .4.3.9.4 1.5.6z" fill="#8d4e70"/><path d="m28 9.4c-.1-.1-.3-.2-.2-.4 0-.1.1-.2.2-.3 0-.1 0-.3-.1-.7-.5.4-1 .8-1.5 1.2s-1 .9-1.4 1.3c-.2-.1-.4-.2-.4-.4 0-.3.6-.5 1.6-1.2 1.2-.8 1.2-1 1.5-1.1 1.8-.4 4.4 4.6 4.2 4.8-.2.1-1-1.4-2.5-2.2-.6-.2-1-.7-1.4-1z" fill="#8d4e70"/><g fill="#ffa180"><path d="m30.9 11.8c-.3.1-1.3.3-2.2 1.2-.9 1-1 2.1-1.1 2.4-.2-.4-.6-.9-.9-1.2.1-.2.1-.6.1-.8.4-.4.9-1.1 1.3-2.2.4-.9.4-1.8.5-2.3.3.2.7.5 1 .9.7.7 1.1 1.4 1.3 2z"/><path d="m9.6 29c-1 .3-2 .7-2.8 1.7-1 1.2-1.1 3-1.6 2.9-.1 0-.1-.1-.6-.7-.2-.3-.4-.5-.5-.6 1.1-.9 2-2.5 3.4-2.8.1-.8.7-2 1.4-1.8 0 .4.2.8.7 1.3z"/><path d="m10.6 27.9c-.2-.1-1.2-.5-1.6-.1.1-.1.3-.2.5-.5s.2-.5.2-.6c.1.1.4.3.6.6.2.2.3.4.3.6z"/><path d="m20.3 18.7c-1.4 2.2-4.3 5.2-6.8 6.9.8-3.2 5-4.4 6.8-6.9z"/></g><path d="m24.8 13.8c0 .1 0 .6-.2.7-.3.1-.9-.9-1.4-1.7-.5.4-1.1.9-1.6 1.2-1-.5-.3-1.6.3-1.1 0-.1-.5-1.4 0-1.7.1-.1.2-.1.4-.1 1 0 2.5 1.3 2.5 2.7z" fill="#b26b9b"/><path d="m11.9 10.9c1.3.2 2.7.2 4.1-.1.3 2.3-3.8 2.2-4.1.1z" fill="#8d4e70"/><path d="m7.1 5.7c-.2.5-.5 1-.7 1-.5-.4-1.1-.7-1-1.6.1-1.6 2.2-1.4 1.9 0-.8-.5-1.5.5-.8.9z" fill="#b26b9b"/><path d="m11.3 24.4c-.6 1-1.4-.5-2.1-.6-1.1-.3-1.6-.1-1.7-1 0 0 0 .4-.1.2-.5-1 1.2-1.5 1.6-1.2 1 .3 1.1 1.2 1.9 1.6.3.1.7.6.4 1z" fill="#b26b9b"/><path d="m12.4 12.3c-.6.3-2.2.4-2.9.2-.1-.2-.6-.7-.9-.7.7-.4 2.2-.7 3-.6.1.3.5.9.8 1.1z" fill="#b26b9b"/><path d="m9.1 28.9c0 .2.2.5.5.7.1 0 .2.1.5.2s1 .3 1.7 0c.2-.1.5-.2.7-.4.3-.3.3-.6.4-.6s.3.5.1.9c-.1.5-.5.7-.8.8-.2.1-1.4.7-2.4.2-.2-.1-.5-.3-.7-.7-.3-.5-.1-1 0-1.1z" fill="#00332f"/><path d="m7.2 4.8c0 .1 0 .1.1.2-.3.7-.3 1.2-.9 1.6-.3-.2-.3-1.4-.1-1.7.1.2.9-.2.8-.4.1.1.1.2.1.3z" fill="#ffa282"/><path d="m8.1 31.1c.1.7-2.2 1.8-2.4 1.5-.1-.1.1-.7 1.8-2.3.1.1.3.2.4.4.1.1.2.3.2.4z" fill="#d7e2d6"/><path d="m30.8 13.3c.1.2.1.3.2.5-.7.5-1.3 1.1-2 1.6-.2-.2-.4-.4-.6-.6 0-.1 0-.2 0-.3 0 .3.4.2.3-.1.7-.3 1.4-.7 2.1-1.1z" fill="#d7e2d6"/><path d="m12.9 12.5c-.7.4-2.4.5-3.2.3-.1-.1-.1-.2-.1-.3-.1-.1-.2-.2-.2-.2.8-.1 2-.2 2.9-.1.1.1.3.2.6.3z" fill="#ffa282"/><path d="m9.2 15.3c0 .2-1.3 1.2-2 1.1.3-.2.6-.4 1-.6-.8-.4-1.8-.8-2.7-1.2-.3.2-.6.3-.9.5-1.4-4.4 7.2-4.6 4.6.2z" fill="#8d4e70"/><path d="m9.3 5.7s-.1 0-.2 0z" fill="#23c8b5"/><path d="m17.9 3.7h.1s0 0-.1 0z" fill="#23c8b5"/><path d="m16.2 5.8c-.8 1.4-3.9 2.3-5.3 1.5-2-1.8 4.7-2.4 4.8-1.5.1 0 .2-.1.2-.2.1 0 .1 0 .2.1.1 0 .1.1.1.1z" fill="#ffa180"/><path d="m11.2 7c-.1 0-.1 0 0 0 0-.2 6.8-.8 4.4-1.3-1.2-.5-2.6.1-3.8.1 1.1-.4 2.7-.6 3.8-.4h-.1c3.6 1.4-2.9 1.3-4.3 1.6z" fill="#ffa282"/><path d="m15.7 12.3c-.4 2.1-.8 4.3-1.1 6.5-.1.1-.2.1-.2.2-.7-1.1-.9-5-.2-6.2.5 0 1-.2 1.5-.5z" fill="#b26b9b"/><path d="m18.5 16.1c.2-.1.7-.5 1.4-1 .5-.4 1-.7 1.3-.8-.2-.4-.8-1.4-2-2.1-1.3-.8-2.5-.8-2.9-.8 0 .4-.7 1.2-1 1.2-.3 2.1-.7 4.6-1.2 6.7 1.2-.6 3-2.2 4.4-3.2z" fill="#ffecff"/><path d="m13.3 26.4c.1.4-.9 1.7-1.4 1.7.5 1.6-1.9 1.5-2.4.7-.1.1-.1.2-.2.2.3.8 3.2 1 3.5-.7.1.1.5.6.4 1.1-.1.6-.5.9-.9 1.1-.2.1-.6.4-1.1.5-.3.1-1 .2-1.5-.2-.1-.1-.3-.2-.5-.6-.4-.7-.2-1.5-.2-1.5-.1 0-.6 1.1 0 2 .2.3.5.5.6.6.8.5 1.9.3 2.7 0 1-.5 1.9-1.7 1.8-2.7 0-.3-.1-.4-.6-1.8-.2-.1-.2-.2-.2-.4z" fill="#ffecff"/><path d="m12.1 7.4c-.2.2-.4.3-.6.5-.2 0-.3 0-.5 0-.7-2.4-1-.8-.5.1.3.8 1.6.2 1.6-.6z" fill="#ffecff"/><path d="m18.8 7c.2-.6-2.7-2.5-3.1-1.5.1.2 1.5.3 1.7.4.9.7-.5 1.2-1 .7-1.6 1-4 .7-5.6.6 0 .1.1.1.2.2 6.2.4 7.8.1 7.8-.4z" fill="#ffecff"/><path d="m20.1 3.5c-.4.2-.7.6-1.1 1-.3.4-.7.8-1.2 1-.8-.5-2.5-.6-4.1-.5s-3 .6-3.3 1.2c-.9-.2-2-.4-3-.5.1-.3.1-.7.1-1s-.1-.6-.3-.8c0-.1.7-.2 2.7-.3 1 0 2.3-.1 4-.1s3.7 0 6.2 0z" fill="#d7e2d6"/><path d="m13.3 2.3c1-.1 2.1-.1 3.2 0 .8.1 1.6.2 2.5.4v.3c-.2 0-.4 0-.5.1-.1 0-.2.1-.2.1-.3.2-.7.3-1.2.4-.9-.3-2.4-.3-3.8 0-1.3.3-2.3.7-2.9 1.1-.1.1-.1.1-.2.2-.6.1-1.4.1-2.2-.1-.2 0-.4-.1-.5-.1.1-.2.5-.7.9-1.1 0-.2.1-.4 0-.5.2-.2.7-.3 1.9-.4.8-.2 1.8-.3 3-.4z" fill="#d7e2d6"/><path d="m17.6 1.8c-.6-.1-2.6-.4-4.9.3-1.1.4-1.8.8-2.5 1.2-.7.3-1.3.5-2.2.4-.2 0-.4-.1-.5-.1.3-.3.9-.8 1.7-1.4.9-.5 2.1-1.1 3.5-1.3 1-.2 2-.2 2.9-.1s1.8.5 2.5 1c-.1.1-.3 0-.5 0z" fill="#d7e2d6"/><path d="m20.3 7.9c-.5.8-1.2 1.2-1.8 1.6-1.1.7-2 .9-2.6 1-.4.1-1.9.5-3.9.2-.5-.1-1.9-.3-3.3-1-1.3-.5-1.7-1-1.9-1.5-.1-.4-.2-.7-.2-.9.7-.7 2-2.1 4.2-2.4 1.8-.3 3.8-.2 5.7-.1-.2.1-.3.2-.4.2-1.7-.3-5.4.4-5.6 1.3-1.7 3.9 14.4 2.3 6.5-1.1.9-.4 2-.9 2.9-1.3.2.2.8.7 1 1.5.3 1.1-.3 2.1-.6 2.5z" fill="#ffa180"/><path d="m20 3.8c.2.2.6.5.7 1.1.2.8-.1 1.5-.3 1.8-.6.6-1.4.9-2.1 1.2-1 .5-2 .7-2.7.8-.2 0-.6.1-1.1.2-.8.1-1.8.1-2.9.2-.8 0-2 0-3.4-.4-.8-.5-1.1-1-1.2-1.4-.1-.3-.1-.5-.1-.7.7-.4 1.8-1.4 3.4-1.6 1.4-.2 3-.2 4.5-.2 0 .1-.1.2-.1.2-.9-.2-3.1.2-3 .7-.5 2.4 10.9 1.2 6.1-1.2.2-.1.4-.2.6-.3.4-.1 1-.3 1.6-.4z" fill="#ffa181"/><path d="m20 3.6c.1.1.4.4.5.7.2.5 0 .9 0 1.1-.7.3-1.5.5-2.3.7-1 .3-2 .5-2.8.6-.3.1-.7.1-1.1.2-.9.1-1.9.3-2.9.4s-2.2.3-3.5.2c-.5-.4-.6-.8-.7-1.2 0-.2 0-.4 0-.5.6-.2 1.5-.7 2.7-.8 1.1-.1 2.2-.1 3.3-.2v.1c0-.2-.8 0-.4.1.7 1 7.3.1 5.5-1.4.1-.1.3-.1.4-.2.5 0 .9.1 1.3.2z" fill="#ffa281"/><path d="m20.5 4.1c-2.1.2-4.3.5-6.6.9s-4.5.9-6.5 1.4c-.1-.3 0-1 .1-1.3 3.6.1 9-1.1 11.8-2.4.2.2.4.4.6.7.3.2.4.5.6.7z" fill="#ffa282"/><path d="m26.9 13.3c0 .7-.1.8-.1.8-.4-.2-1-.2-1.5-.4.2-.3-.4-1.7-.8-1.8.4-.3.8-.6 1.1-.8-.1-.1-.1-.2-.2-.3-.1-.2-.2-.3-.3-.5.9-.8 1.9-1.5 2.8-2.3.3.3.6.6.9 1-.1 1.3-1 3.3-1.9 4.3z" fill="#fff"/><path d="m9.5 28.9c.1.3-1.1.7-1.8 1.4-.4.4-.7.9-.9 1.9-.5.4-1 .8-1.5 1.2-.6-1.7 1.1-2.7 3.6-4.6 0 0 .3-.2.5-.1.1.1.1.2.1.2z" fill="#d7e2d6"/><path d="m8.8 21.8c-1.1.6-2.2-.4-1.2 1.4-1.8.1-3.1-5.4-.7-6.6-.1 1.3 1 4.3 1.9 5.2z" fill="#b26b9b"/><path d="m8.8 21.8c-1.1.6-2.2-.5-1.2 1.3-1.8.1-3-5.3-.6-6.5-.2 1.3.9 4.3 1.8 5.2z" fill="#b36c9b"/><path d="m8.8 21.8c-1.1.6-2.3-.6-1.3 1.2-1.8.1-3-5.2-.6-6.3-.1 1.2 1 4.2 1.9 5.1z" fill="#b56d9a"/><path d="m8.8 21.8c-1.2.6-2.3-.6-1.3 1-1.7.1-2.9-5.1-.6-6.2-.1 1.4 1 4.3 1.9 5.2z" fill="#b66e9a"/><path d="m8.8 21.8c-1.2.6-2.3-.7-1.3.9-1.7.1-2.8-5-.6-6.1-.1 1.4 1 4.2 1.9 5.2z" fill="#b86f99"/><path d="m8.9 21.8c-1.2.5-2.3-.7-1.3.8-1.7.1-2.8-4.9-.5-6-.2 1.4.8 4.2 1.8 5.2z" fill="#b97099"/><path d="m8.9 21.8c-1.2.5-2.3-.8-1.4.7-1.6.1-2.7-4.8-.5-5.8-.1 1.3 1 4.1 1.9 5.1z" fill="#bb7198"/><path d="m8.9 21.8c-1.2.5-2.3-.9-1.4.6-1.6.1-2.6-4.7-.5-5.7-.1 1.3 1 4.1 1.9 5.1z" fill="#bc7298"/><path d="m8.9 21.8c-1.2.5-2.3-.9-1.4.4-1.6.1-2.6-4.6-.5-5.6-.1 1.4 1 4.2 1.9 5.2z" fill="#bd7397"/><path d="m8.9 21.8c-1.2.5-2.3-1-1.5.3-1.4.1-2.4-4.5-.4-5.5-.1 1.4 1 4.1 1.9 5.2z" fill="#bf7497"/><path d="m8.9 21.8c-1.3.5-2.3-1-1.5.2-1.4 0-2.4-4.4-.4-5.4-.1 1.4 1 4.1 1.9 5.2z" fill="#c07596"/><path d="m9 21.8c-1.3.4-2.3-1.1-1.5.1-1.5 0-2.4-4.3-.5-5.3 0 1.4 1 4.1 2 5.2z" fill="#c27696"/><path d="m9 21.8c-1.3.4-2.3-1.2-1.5-.1-1.4.1-2.3-4.2-.4-5.1-.1 1.5.9 4.1 1.9 5.2z" fill="#c37795"/><path d="m9 21.8c-1.3.4-2.3-1.2-1.6-.2-1.4.1-2.2-4.1-.4-5 0 1.5 1 4.1 2 5.2z" fill="#c57895"/><path d="m9 21.8c-1.3.4-2.4-1.3-1.6-.3-1.3.1-2.2-4-.3-4.9-.1 1.5.9 4 1.9 5.2z" fill="#c67995"/><path d="m9 21.8c-1.3.4-2.4-1.3-1.6-.4-1.3.1-2.1-3.9-.3-4.7-.1 1.4 1 3.9 1.9 5.1z" fill="#c77a94"/><path d="m9 21.8c-1.3.4-2.4-1.4-1.6-.6-1.3.1-2-3.8-.3-4.6-.1 1.5 1 4 1.9 5.2z" fill="#c97b94"/><path d="m9 21.8c-1.4.3-2.4-1.4-1.7-.7-1.2.1-2-3.7-.3-4.5.1 1.5 1.1 4 2 5.2z" fill="#ca7c93"/><path d="m9.1 21.8c-1.4.3-2.4-1.5-1.7-.8-1.2.1-1.9-3.6-.2-4.4-.1 1.5.9 4 1.9 5.2z" fill="#cc7d93"/><path d="m9.1 21.8c-1.4.3-2.4-1.6-1.7-.9-1.1.1-1.8-3.5-.2-4.2-.1 1.4.9 3.8 1.9 5.1z" fill="#cd7e92"/><path d="m9.1 21.8c-1.4.3-2.4-1.6-1.8-1.1-1.1.1-1.8-3.4-.2-4.1 0 1.6 1 3.9 2 5.2z" fill="#cf7f92"/><path d="m9.1 21.8c-1.4.3-2.4-1.7-1.8-1.2-1.1.1-1.7-3.3-.2-4 0 1.6 1 3.9 2 5.2z" fill="#d08091"/><path d="m9.1 21.8c-1.4.3-2.4-1.7-1.8-1.3-1 .1-1.6-3.2-.1-3.9 0 1.6.9 3.9 1.9 5.2z" fill="#d18191"/><path d="m9.1 21.8c-1.4.2-2.4-1.8-1.8-1.4-1 .1-1.6-3-.1-3.8 0 1.6.9 3.9 1.9 5.2z" fill="#d38290"/><path d="m9.1 21.8c-1.5.2-2.4-1.9-1.9-1.5-1 .1-1.5-2.9-.1-3.6.1 1.5 1.1 3.7 2 5.1z" fill="#d48390"/><path d="m9.2 21.8c-1.5.2-2.4-1.9-1.9-1.7-.9.1-1.4-2.8-.1-3.5 0 1.6 1 3.8 2 5.2z" fill="#d6848f"/><path d="m9.2 21.8c-1.5.2-2.5-2-1.9-1.8-.9.1-1.4-2.7 0-3.4-.1 1.6.9 3.8 1.9 5.2z" fill="#d7858f"/><path d="m9.2 21.8c-1.5.2-2.5-2-1.9-1.9-.8.1-1.3-2.6 0-3.3-.1 1.6.9 3.8 1.9 5.2z" fill="#d8868f"/><path d="m9.2 21.8c-1.5.2-2.5-2.1-2-2-.8.1-1.2-2.5 0-3.1.1 1.5 1 3.7 2 5.1z" fill="#da888e"/><path d="m9.2 21.8c-1.5.1-2.5-2.2-2-2.2-.8.1-1.2-2.4 0-3 .1 1.7 1 3.7 2 5.2z" fill="#db898e"/><path d="m9.2 21.8c-1.5.1-2.5-2.2-2-2.3-.7.1-1.1-2.3.1-2.9 0 1.7.9 3.7 1.9 5.2z" fill="#dd8a8d"/><path d="m9.3 21.8c-1.6.1-2.5-2.3-2.1-2.4-.7.1-1-2.2.1-2.8 0 1.7.9 3.7 2 5.2z" fill="#de8b8d"/><path d="m9.3 21.8c-1.6.1-2.5-2.3-2.1-2.5-.7.1-1-2.1.1-2.6 0 1.6.9 3.6 2 5.1z" fill="#e08c8c"/><path d="m9.3 21.8c-1.6.1-2.5-2.4-2.1-2.7-.6.1-.9-2 .1-2.5.1 1.7 1 3.7 2 5.2z" fill="#e18d8c"/><path d="m9.3 21.8c-1.6 0-2.5-2.5-2.1-2.8-.6.1-.8-1.9.1-2.4.1 1.7 1 3.6 2 5.2z" fill="#e28e8b"/><path d="m9.3 21.8c-1.6 0-2.5-2.5-2.2-2.9-.6.1-.8-1.8.2-2.3.1 1.7 1 3.6 2 5.2z" fill="#e48f8b"/><path d="m9.3 21.8c-1.6 0-2.5-2.6-2.2-3-.5.1-.7-1.7.2-2.2.1 1.7 1 3.6 2 5.2z" fill="#e5908a"/><path d="m9.3 21.8c-1.6 0-2.5-2.6-2.2-3.2-.5.1-.6-1.6.2-2 .1 1.7 1 3.6 2 5.2z" fill="#e7918a"/><path d="m9.4 21.8c-1.7 0-2.6-2.7-2.2-3.3-.4.1-.6-1.5.2-1.9 0 1.8.9 3.6 2 5.2z" fill="#e89289"/><path d="m9.4 21.8c-1.7 0-2.6-2.8-2.3-3.4-.4.1-.5-1.4.3-1.8.1 1.8.9 3.5 2 5.2z" fill="#ea9389"/><path d="m9.4 21.8c-1.7-.1-2.6-2.8-2.3-3.5-.4.1-.4-1.3.3-1.7.1 1.8.9 3.5 2 5.2z" fill="#eb9488"/><path d="m9.4 21.8c-1.7-.1-2.6-2.9-2.3-3.7-.3.1-.4-1.2.3-1.5.1 1.8.9 3.5 2 5.2z" fill="#ec9588"/><path d="m9.4 21.8c-1.7-.1-2.6-2.9-2.4-3.8-.3.1-.3-1.1.3-1.4.2 1.8 1.1 3.5 2.1 5.2z" fill="#ee9688"/><path d="m9.4 21.8c-1.7-.1-2.6-3-2.4-3.9-.3.1-.3-1 .4-1.3.1 1.8 1 3.5 2 5.2z" fill="#ef9787"/><path d="m9.4 21.8c-1.7-.1-2.6-3.1-2.4-4-.2.1-.2-.9.4-1.2.2 1.8 1 3.4 2 5.2z" fill="#f19887"/><path d="m9.5 21.8c-1.8-.1-2.6-3.1-2.4-4.1-.2.1-.1-.8.4-1 .1 1.7.9 3.3 2 5.1z" fill="#f29986"/><path d="m9.5 21.8c-1.8-.2-2.6-3.2-2.5-4.3-.1.1-.1-.7.4-.9.2 1.9 1 3.4 2.1 5.2z" fill="#f49a86"/><path d="m9.5 21.8c-1.8-.2-2.6-3.2-2.5-4.4-.1.1 0-.6.5-.8.1 1.9.9 3.4 2 5.2z" fill="#f59b85"/><path d="m9.5 21.8c-1.8-.2-2.6-3.3-2.5-4.5-.1.1.1-.5.5-.7.1 1.9.9 3.3 2 5.2z" fill="#f69c85"/><path d="m9.5 21.8c-1.8-.2-2.6-3.4-2.5-4.6 0 .1.1-.4.5-.5.1 1.8.9 3.2 2 5.1z" fill="#f89d84"/><path d="m9.5 21.9c-1.8-.2-2.7-3.4-2.6-4.8 0 .1.2-.3.5-.4.3 1.8 1.1 3.2 2.1 5.2z" fill="#f99e84"/><path d="m9.6 21.9c-1.9-.3-2.7-3.5-2.6-4.9 0 .1.3-.2.6-.3.1 1.8.9 3.2 2 5.2z" fill="#fb9f83"/><path d="m9.6 21.9c-1.9-.3-2.7-3.5-2.6-5 .1.1.3-.1.6-.2.1 1.8.9 3.2 2 5.2z" fill="#fca083"/><path d="m9.6 21.9c-1.9-.3-2.7-3.6-2.7-5.1.1.1.4 0 .6-.1.2 1.8 1 3.1 2.1 5.2z" fill="#fea182"/><path d="m9.6 21.9c-1.9-.3-2.7-3.7-2.7-5.3.1.1.5.1.6.1.2 1.8 1 3.1 2.1 5.2z" fill="#ffa282"/><path d="m26.6 14.1c-.4 0-.6.1-.7.2-.5.5.5 1.8-.1 2.4-.2.2-.4.2-.5.2-.4-1-.9-1.6-1.4-1.6-.2 0-.4.2-.4.2-.3.3-.2.8.1 1.4 0 .2-.1.2-.1.2-.1-.2-.1-.6-.2-.1-.2.5-1.4.9-2 1.5-.4.4-.8.5-1.1 1-.5.3-1.1.6-1.7 1-2.4 1.6-4 3.4-5 5 0 .1 0 .1-.1.2-.1.2-.1.3-.1.3s.2-.6 0-1.2c0-.1-.2-.7-.8-.9-.1 0-.3-.1-.4 0-.2.2 0 .6 0 1.3 0 .4-.2.8-.3 1.1-1.1 0-3.8-2.2-4.2-.2-.5-.6.7-1.3 1.1-1.9.6-.2 1.7 1.6 2.6.9.8-1 0-1.3-.7-2.1.9-.5 1.7-.6 2.1-.3 4.4 1.6 7.3-5 11-7.7 3.2-.1-.2-2.8 2.9-.9z" fill="#8d4e70"/><path d="m13 26.6c0 .2-.2.8-.9 1.2-.2.1-.5.2-.7.2 1.1 1.6-2.3 1.5-2.3.1.2-.5 1.4 0 1.5.4.1-.2.2-.6 0-1-.2-.6-.9-.9-1.4-1.1-.8-.3-1.3-.3-1.4-.6 0-.1.1-.2.1-.3.2-.2.6-.2 1.8.3 1.3.5 1.7.9 2 .8.5-.2.5-1.2.5-1.3 0-.6-.2-1.1-.1-1.2s.4.1.5.2c.9.5.5 2 .4 2.3z" fill="#b26b9b"/><path d="m15.2 18.6c-1.8 1.7-3 2.2-4.9 3.9-.2-.5-.9-.7-1.3-.6-.7.1-1-4.4-1.8-5.2 1.6.2 3.7-2.7 2.3-4.2h.1c.8.1 2.2.1 3.1-.1.3.2.6.3.9.3-1.2 1.2.2 5.5 1.6 5.9z" fill="#d7e2d6"/><path d="m14.2 18.9c0 .1 0 .1 0 0-.1.1-.2.3-.3.3-1.5-3.8-.5-4.1-1.2-6.8.4.2 1.2.4 1.7.3-.1 3.6-.2 6.2-.2 6.2z" fill="#ffa282"/><path d="m7.4 29.6c.2-.1-1.2 1.2-1.2.6-.6.9-1.1 1.7-2 2 .3-.8 2.1-2.6 2.4-2.9.3-1.7 1.6-1.7 2.4-3 .7.1 1.5.6.7 1.3-.3-.2-.8.4-.6.7-.6.4-1.2.9-1.7 1.3z" fill="#ffa282"/><path d="m20.9 18.6c.9-.4.9-.4 1.5-1 .5-.5.9-.9 1.1-1.3.1.1.1.2.2.3s.1.2.1.4c-.2.2-.6.6-1 .9-.7.6-1.3 1.1-1.5 1.3-.9.7-1.8 1.5-2.7 2.3-1 .9-2.6 2.2-5.2 4.4.4-2.2 4.1-3.7 4.8-4.6 0 0 2.1-2.4 2.7-2.7z" fill="#d7e2d6"/><path d="m10.3 7.4c-.1 1.2 1.5 1.1 2.4 1.5-.7-2.2 4.1-.7 5.6-1.6-1.8-.9-6.4-.7-8 .1z" fill="#b26b9b"/><path d="m18.7 6.5c.1-1.2-1.6-1-2.5-1.3.8 2.2-4 1-5.5 1.9 1.8.8 6.4.3 8-.6z" fill="#b26b9b"/><path d="m16.3 5.3c-.3.2-.8.3-1.2.4-1.3.2-2.8.3-3.8.3 1.5-.7 3.9-1.1 5-.7z" fill="#b26b9b"/><path d="m18.6 25.7c-.1 0-.2-.1-.4-.3-.3-.4-.3-.9-.3-1.3.6-.6 1-1.1 1.3-1.4 1.4-1.4 2.3-2.1 2.2-2.9 0-.1 0-.2-.1-.2-1 1-1.9 1.7-2.5 2.2-1.7 1.4-3 2.2-4.9 4-.2.2-.3.3-.4.4 0 .4.1 1.8 1.2 2.9.2.3 1.6 1.6 3.4 1.3.2 0 1.5-.3 1.9-1.3.6-1.3-.6-3-1.4-3.4z" fill="#b26b9b"/><path d="m20 27.7c-1-1.9.3.2-.4 1.6-2.6 3.2-6-2.3-6.1-3.1 0 0 .1.3.5 1.3.2 3.5 6.7 5.1 6 .2z" fill="#ffecff"/><path d="m19.6 27.8c-.1 2.5-3.5 2.5-4.8.7-.8-.9-.8-2.3.5-1.6.6.3.7.7 1.4.8.9.5 3-2.2 2.9.1z" fill="#2f2a37"/><path d="m12 26c-.5.7-1.4-.5-2.2-.6.7 0 1.5 1 1.7.3.5.3.5-.4.5-1.3.2.3.2 1.1 0 1.6z" fill="#ffa180"/><path d="m19.2 28.8c-.6.9-2.1.7-2.9.5-.3-.1-1.1-.4-1.5-1.2-.1-.3-.3-.8-.1-1 .1-.1.4 0 .5 0 .4.1.5.4.9.7.2.1.4.2.7.2 1.1.2 1.9-1.1 2.4-.8.3.1.4 1 0 1.6z" fill="#00332f"/><path d="m7.5 23.3c-.2-.6-.2-1.3.2-1.6.6-.5 1.6 0 1.8.1.3.2.6.4.7.6 4.3-3.1 8.6-6.3 12.9-9.4" fill="none" stroke="#1d1d1d" stroke-miterlimit="10" stroke-width=".36"/><path d="m19.4 2.7c-.2-.2-.4-.4-.7-.5-.8-.5-2-1-2.1-.8-.2.3.8 1.7 2 1.7.3-.1.6-.3.8-.4z" fill="#00332f"/><path d="m7.6 5.9c.2-.5.5-1.4.3-2.7-.2.2-.4.3-.5.5-.1.1-.2.1-.3.2.1.1.2.4.3.7.1.4 0 .8-.1 1.1-.1.2-.2.4-.3.8-.3.6-.4.8-.4.8.1 0 .6-.6 1-1.4z" fill="#ffa180"/><path d="m17.7 5.3c.4.1.7.3.9.6.3.3.3.8.2 1.2-.2.4-.5.6-.9.7-.4.2-.8.3-1.2.4-1.5.4-3.2.5-4.8.3-.3 0-.6-.1-.9-.2-.4-.2-.7-.4-.8-.8s0-.8.3-1.1.6-.5 1-.6c1.4-.6 3-.8 4.6-.8.5 0 1.1 0 1.6.2-.1.1 0 .1 0 .1z" fill="none" stroke="#0f0f0f" stroke-miterlimit="10" stroke-width=".167"/></svg>