<?xml version="1.0" encoding="utf-8"?>
<!-- Generator: Adobe Illustrator 28.0.0, SVG Export Plug-In . SVG Version: 6.00 Build 0)  -->
<svg version="1.1" id="Layer_1" xmlns="http://www.w3.org/2000/svg" xmlns:xlink="http://www.w3.org/1999/xlink" x="0px" y="0px"
	 viewBox="0 0 15.1 17" style="enable-background:new 0 0 15.1 17;" xml:space="preserve">
<style type="text/css">
	.st0{fill:#0E5DCD;}
	.st1{fill:#FFFFFF;}
</style>
<path class="st0" d="M11.8,17H3.3C1.5,17,0,15.5,0,13.7V3.3C0,1.5,1.5,0,3.3,0h8.5c1.8,0,3.3,1.5,3.3,3.3v10.4
	C15.1,15.5,13.6,17,11.8,17z"/>
<g>
	<path class="st1" d="M7.3,13.1c0-2.5,0-5,0-7.5C6.6,6.1,6,6.6,5.3,7.1c-0.3-0.3-0.7-0.6-1-0.9c1-0.8,2.1-1.5,3.1-2.3H9v9.3H7.3z"/>
</g>
</svg>
